<?xml version="1.0" standalone="no"?>
<!DOCTYPE svg PUBLIC "-//W3C//DTD SVG 20010904//EN"
 "http://www.w3.org/TR/2001/REC-SVG-20010904/DTD/svg10.dtd">
<svg version="1.5" xmlns="http://www.w3.org/2000/svg"
 width="25px" height="25px" viewBox="0 0 300 300"
 preserveAspectRatio="xMidYMid meet">
<metadata>
Created by potrace 1.10, written by Peter Selinger 2001-2011
</metadata>
<g transform="translate(0.000000,300.000000) scale(0.100000,-0.100000)"
fill="white" stroke="white">
<path d="M2410 2230 c-8 -5 -52 -10 -97 -10 -123 0 -124 -1 -152 -114 l-23
-96 654 0 c555 0 659 -2 683 -15 58 -30 56 -50 -34 -356 -94 -318 -100
-333 -136 -364 l-31 -25 -444 0 c-491 0 -466 3 -448 -63 17 -60 36 -63
487 -90 395 -24 409 -25 433 -48 17 -16 24 -33 24 -61 0 -51 13 -74 47 -85
16 -6 231 -10 490 -11 431 -2 463 -1 483 16 19 16 21 22 11 40 l-12 22
474 0 c320 0 475 3 475 10 0 6 -6 12 -12 15 -7 2 -191 15 -408 30 217
14 409 30 426 36 59 18 121 112 109 162 -4 15 2 37 15 60 12 20 74 222
139 449 l116 413 108 5 c59 4 112 11 118 17 8 8 7 19 -3 39 -14 31
-35 40 -58 24z m-250 -254 c0 -18 -17 -29 -30 -21 -8 5 -7 11 1 21
15 18 29 18 29 0z m-1060 -13 c-1 -21 -19 -35 -39 -28 -32 10 -26 35
9 35 17 0 30 -3 30 -7z m270 -2 c0 -5 -8 -17 -17 -26 -16 -16 -17 -16
-30 1 -20 27 -16 34 17 34 17 0 30 -4 30 -9z m280 6 c0 -2 -9 -14 -20
-27 -17 -20 -21 -21 -35 -7 -24 25 -18 37 20 37 19 0 35 -2 35 -3z
m260 -10 c0 -7 -5 -18 -12 -25 -9 -9 -16 -8 -30 5 -26 23 -22 33 12
33 18 0 30 -5 30 -13z m-868 -107 c9 -47 17 -89 18 -95 0 -6 -34 -9 -87
-8 l-88 2 -22 78 c-33 119 -38 111 69 109 l92 -1 18 -85z m258 66 c0
-13 3 -56 6 -97 l7 -74 -89 2 -88 1 -13 84 c-7 45 -12 89 -13 95 0 10
25 13 95 12 92 -1 95 -1 95 -23z m267 -74 l-5 -94 -87 0 -87 0 -4 94
-5 95 96 0 97 0 -5 -95z m273 84 c0 -6 -5 -47 -12 -92 l-12 -83 -89
-3 -89 -3 6 59 c3 32 6 75 6 96 l0 36 95 0 c54 0 95 -5 95 -10z m280 12
c0 -2 -13 -45 -29 -96 l-28 -93 -86 -2 c-48 -1 -87 1 -87 4 0 10 30 162
35 177 3 8 32 12 100 12 52 0 95 -1 95 -2z m-992 -211 l22 -24 -20 -18
c-20 -18 -21 -18 -46 7 -24 23 -24 26 -9 42 22 21 27 20 53 -7z m244 6
c22 -19 23 -30 4 -49 -19 -18 -22 -18 -47 7 -20 20 -20 22 -3 40
21 23 23 23 46 2z m256 -4 c11 -17 10 -23 -10 -39 -29 -24 -30 -24
-46 1 -11 18 -11 24 4 40 22 24 36 24 52 -2z m251 2 c8 -14 5 -23
-15 -40 -25 -21 -27 -22 -45 -5 -19 17 -19 18 3 41 26 28 44 29 57 4z
m-983 -22 c7 -11 -22 -47 -31 -38 -2 3 -8 20 -11 38 -7 31 -6 33 14 22
11 -6 24 -16 28 -22z m194 -113 l17 -76 -81 0 -81 0 -21 75 c-11 41 -20
76 -18 78 1 1 40 1 85 0 l83 -2 16 -75z m225 72 c1 -2 5 -36 9 -75 l6
-73 -79 0 -79 0 -11 63 c-17 98 -22 92 70 90 45 -1 82 -3 84 -5z m243
-68 l-3 -75 -83 -3 -82 -3 0 78 0 78 86 0 86 0 -4 -75z m237 30 c-3 -25
-9 -60 -12 -77 l-5 -33 -79 0 c-77 0 -79 -1 -79 -24 0 -28 16 -36 70
-36 47 0 78 11 108 40 18 17 23 18 28 7 3 -9 13 -13 27 -9 12 3 19
1 15 -3 -4 -4 -22 -8 -40 -7 -23 1 -28 -2 -18 -8 9 -6 10 -10 3 -10 -6
0 -14 -10 -16 -22 -4 -19 -4 -18 -6 5 -2 48 -19 20 -31 -53 l-12 -70
-70 0 -70 0 6 108 c5 104 14 207 21 227 1 6 39 10 85 10 l82 0 -7 -45z m251
35 c-2 -5 -12 -40 -22 -77 l-18 -68 -78 0 c-62 0 -78 3 -78 15 0 13 18
109 24 130 2 6 41 10 90 10 53 0 84 -4 82 -10z m-896 -155 c0 -5 10 -11
23 -11 20 -1 20 -2 2 -6 -11 -3 -25 -9 -31 -14 -13 -11 -28 16
-18 32 7 12 24 11 24 -1z m239 -22 c-10 -4 -19 -13 -19 -20 0 -9 3 -9
12 0 8 8 15 9 25 1 8 -7 39 -10 78 -7 l65 4 0 -68 0 -68 -75 0
-75 0 0 71 c0 62 -2 70 -15 59 -12 -10 -16 -8 -25 15 -13 35 -5
46 24 32 23 -11 24 -12 5 -19z m-454 12 c3 -6 18 -7 33 -12 30 -7
30 -7 29 -30 -1 -15 -5 -23 -10 -21 -2 2 -22 10 -44 22 -15 11
-25 26 -22 33 4 7 21 8 43 4z m233 -90 c-6 -19 -25 -26 -44 -17 -16
9 -19 19 -14 43 6 25 15 34 31 29 24 -8 31 -19 27 -47z m224 4
c11 -5 18 -17 18 -31 0 -19 -5 -26 -17 -31 -17 -5 -31 0 -42 13
-5 7 -7 19 -5 30 3 11 12 18 23 18 5 0 13 -5 18 -10z m25 -61
c7 -12 12 -29 13 -38 1 -12 -4 -23 -13 -24 -9 1 -17 13 -18 27
-3 26 4 38 18 38z"/>
</g>
</svg>
