<svg width="1570" height="800" viewBox="0 0 1570 800" fill="none" xmlns="http://www.w3.org/2000/svg">
<rect width="1570" height="800" fill="url(#paint0_linear_3_1171)"/>
<g filter="url(#filter0_d_3_1171)">
<path d="M584.056 473.202C589.202 475.522 591.474 481.615 588.867 486.622C568.946 524.876 539.017 557.32 502.073 580.573C462.201 605.669 415.833 619.005 368.471 619C321.11 618.995 274.745 605.647 234.879 580.543C197.94 557.282 168.019 524.831 148.107 486.572C145.501 481.565 147.774 475.472 152.921 473.153C157.967 470.878 163.883 473.093 166.451 477.996C184.729 512.899 212.096 542.507 245.843 563.759C282.438 586.803 324.999 599.055 368.474 599.06C411.949 599.065 454.512 586.823 491.112 563.787C524.865 542.543 552.239 512.941 570.525 478.042C573.094 473.139 579.011 470.926 584.056 473.202Z" fill="white"/>
</g>
<g filter="url(#filter1_d_3_1171)">
<path d="M606.072 357.559C611.674 357.122 615.878 352.214 615.187 346.638C609.366 299.683 589.698 255.334 558.494 219.101C527.19 182.752 485.752 156.286 439.381 142.887C434.118 141.366 428.728 144.606 427.37 149.913C425.995 155.286 429.271 160.729 434.593 162.291C476.777 174.676 514.464 198.857 542.986 231.975C571.459 265.037 589.468 305.46 594.93 348.276C595.638 353.827 600.493 357.994 606.072 357.559Z" fill="white"/>
</g>
<g filter="url(#filter2_d_3_1171)">
<path d="M132.928 360.559C127.326 360.122 123.122 355.214 123.813 349.638C129.669 302.405 149.535 257.814 181.05 221.471C212.666 185.013 254.497 158.593 301.234 145.426C306.507 143.941 311.875 147.218 313.197 152.535C314.535 157.916 311.222 163.334 305.892 164.861C263.37 177.036 225.322 201.176 196.514 234.397C167.756 267.561 149.565 308.205 144.07 351.276C143.362 356.827 138.507 360.994 132.928 360.559Z" fill="white"/>
</g>
<g filter="url(#filter3_d_3_1171)">
<path d="M684.635 421V359.629H660.432V345.367H726.341V359.629H702.139V421H684.635ZM735.759 421V345.367H768.498C775.269 345.367 781.103 346.483 786.001 348.716C790.9 350.877 794.681 354.01 797.347 358.116C800.012 362.222 801.344 367.12 801.344 372.811C801.344 378.429 800.012 383.291 797.347 387.397C794.681 391.431 790.9 394.528 786.001 396.689C781.103 398.85 775.269 399.931 768.498 399.931H745.484L753.263 392.259V421H735.759ZM783.841 421L764.932 393.556H783.624L802.749 421H783.841ZM753.263 394.204L745.484 385.993H767.525C772.928 385.993 776.961 384.84 779.627 382.535C782.292 380.158 783.624 376.916 783.624 372.811C783.624 368.633 782.292 365.391 779.627 363.086C776.961 360.781 772.928 359.629 767.525 359.629H745.484L753.263 351.309V394.204ZM805.272 421L838.983 345.367H856.271L890.09 421H871.721L844.061 354.226H850.976L823.208 421H805.272ZM822.127 404.793L826.773 391.503H865.671L870.425 404.793H822.127ZM897.936 421V345.367H912.415L957.039 399.823H950.016V345.367H967.303V421H952.933L908.201 366.544H915.224V421H897.936ZM985.198 421V345.367H1019.56C1027.77 345.367 1035.01 346.951 1041.27 350.121C1047.54 353.218 1052.44 357.576 1055.97 363.194C1059.5 368.813 1061.26 375.476 1061.26 383.183C1061.26 390.819 1059.5 397.482 1055.97 403.172C1052.44 408.791 1047.54 413.185 1041.27 416.354C1035.01 419.451 1027.77 421 1019.56 421H985.198ZM1002.7 406.63H1018.69C1023.73 406.63 1028.09 405.693 1031.77 403.82C1035.51 401.876 1038.39 399.138 1040.41 395.609C1042.5 392.079 1043.54 387.937 1043.54 383.183C1043.54 378.357 1042.5 374.215 1040.41 370.758C1038.39 367.228 1035.51 364.527 1031.77 362.654C1028.09 360.709 1023.73 359.737 1018.69 359.737H1002.7V406.63ZM1074.46 421V345.367H1108.82C1117.03 345.367 1124.27 346.951 1130.54 350.121C1136.81 353.218 1141.71 357.576 1145.24 363.194C1148.76 368.813 1150.53 375.476 1150.53 383.183C1150.53 390.819 1148.76 397.482 1145.24 403.172C1141.71 408.791 1136.81 413.185 1130.54 416.354C1124.27 419.451 1117.03 421 1108.82 421H1074.46ZM1091.97 406.63H1107.96C1113 406.63 1117.36 405.693 1121.03 403.82C1124.78 401.876 1127.66 399.138 1129.68 395.609C1131.77 392.079 1132.81 387.937 1132.81 383.183C1132.81 378.357 1131.77 374.215 1129.68 370.758C1127.66 367.228 1124.78 364.527 1121.03 362.654C1117.36 360.709 1113 359.737 1107.96 359.737H1091.97V406.63ZM1179.26 421V390.098L1183.26 400.687L1149.98 345.367H1168.56L1194.06 387.829H1183.37L1208.97 345.367H1226.15L1192.87 400.687L1196.76 390.098V421H1179.26Z" fill="white"/>
</g>
<g filter="url(#filter4_d_3_1171)">
<path d="M1288.95 347.7C1286.18 347.7 1283.62 347.267 1281.25 346.4C1278.92 345.5 1276.88 344.233 1275.15 342.6C1273.45 340.967 1272.12 339.05 1271.15 336.85C1270.18 334.617 1269.7 332.167 1269.7 329.5C1269.7 326.833 1270.18 324.4 1271.15 322.2C1272.12 319.967 1273.45 318.033 1275.15 316.4C1276.88 314.767 1278.92 313.517 1281.25 312.65C1283.62 311.75 1286.18 311.3 1288.95 311.3C1292.18 311.3 1295.07 311.867 1297.6 313C1300.17 314.133 1302.3 315.767 1304 317.9L1297.7 323.6C1296.57 322.267 1295.32 321.25 1293.95 320.55C1292.62 319.85 1291.12 319.5 1289.45 319.5C1288.02 319.5 1286.7 319.733 1285.5 320.2C1284.3 320.667 1283.27 321.35 1282.4 322.25C1281.57 323.117 1280.9 324.167 1280.4 325.4C1279.93 326.633 1279.7 328 1279.7 329.5C1279.7 331 1279.93 332.367 1280.4 333.6C1280.9 334.833 1281.57 335.9 1282.4 336.8C1283.27 337.667 1284.3 338.333 1285.5 338.8C1286.7 339.267 1288.02 339.5 1289.45 339.5C1291.12 339.5 1292.62 339.15 1293.95 338.45C1295.32 337.75 1296.57 336.733 1297.7 335.4L1304 341.1C1302.3 343.2 1300.17 344.833 1297.6 346C1295.07 347.133 1292.18 347.7 1288.95 347.7ZM1308.41 347V312H1318.31V339.15H1335.01V347H1308.41ZM1356.04 347.7C1353.24 347.7 1350.66 347.25 1348.29 346.35C1345.93 345.45 1343.86 344.183 1342.09 342.55C1340.36 340.883 1339.01 338.95 1338.04 336.75C1337.08 334.55 1336.59 332.133 1336.59 329.5C1336.59 326.867 1337.08 324.45 1338.04 322.25C1339.01 320.05 1340.36 318.133 1342.09 316.5C1343.86 314.833 1345.93 313.55 1348.29 312.65C1350.66 311.75 1353.24 311.3 1356.04 311.3C1358.88 311.3 1361.46 311.75 1363.79 312.65C1366.16 313.55 1368.21 314.833 1369.94 316.5C1371.68 318.133 1373.03 320.05 1373.99 322.25C1374.99 324.45 1375.49 326.867 1375.49 329.5C1375.49 332.133 1374.99 334.567 1373.99 336.8C1373.03 339 1371.68 340.917 1369.94 342.55C1368.21 344.183 1366.16 345.45 1363.79 346.35C1361.46 347.25 1358.88 347.7 1356.04 347.7ZM1356.04 339.5C1357.38 339.5 1358.61 339.267 1359.74 338.8C1360.91 338.333 1361.91 337.667 1362.74 336.8C1363.61 335.9 1364.28 334.833 1364.74 333.6C1365.24 332.367 1365.49 331 1365.49 329.5C1365.49 327.967 1365.24 326.6 1364.74 325.4C1364.28 324.167 1363.61 323.117 1362.74 322.25C1361.91 321.35 1360.91 320.667 1359.74 320.2C1358.61 319.733 1357.38 319.5 1356.04 319.5C1354.71 319.5 1353.46 319.733 1352.29 320.2C1351.16 320.667 1350.16 321.35 1349.29 322.25C1348.46 323.117 1347.79 324.167 1347.29 325.4C1346.83 326.6 1346.59 327.967 1346.59 329.5C1346.59 331 1346.83 332.367 1347.29 333.6C1347.79 334.833 1348.46 335.9 1349.29 336.8C1350.16 337.667 1351.16 338.333 1352.29 338.8C1353.46 339.267 1354.71 339.5 1356.04 339.5ZM1387.64 347V319.85H1376.89V312H1408.24V319.85H1397.54V347H1387.64ZM1435.33 312H1445.23V347H1435.33V312ZM1421.83 347H1411.93V312H1421.83V347ZM1436.03 333.35H1421.13V325.15H1436.03V333.35Z" fill="white"/>
</g>
<g filter="url(#filter5_d_3_1171)">
<path d="M284.084 511.504C282.092 511.504 280.244 511.192 278.54 510.568C276.86 509.92 275.396 509.008 274.148 507.832C272.924 506.656 271.964 505.276 271.268 503.692C270.572 502.084 270.224 500.32 270.224 498.4C270.224 496.48 270.572 494.728 271.268 493.144C271.964 491.536 272.924 490.144 274.148 488.968C275.396 487.792 276.86 486.892 278.54 486.268C280.244 485.62 282.092 485.296 284.084 485.296C286.412 485.296 288.488 485.704 290.312 486.52C292.16 487.336 293.696 488.512 294.92 490.048L290.384 494.152C289.568 493.192 288.668 492.46 287.684 491.956C286.724 491.452 285.644 491.2 284.444 491.2C283.412 491.2 282.464 491.368 281.6 491.704C280.736 492.04 279.992 492.532 279.368 493.18C278.768 493.804 278.288 494.56 277.928 495.448C277.592 496.336 277.424 497.32 277.424 498.4C277.424 499.48 277.592 500.464 277.928 501.352C278.288 502.24 278.768 503.008 279.368 503.656C279.992 504.28 280.736 504.76 281.6 505.096C282.464 505.432 283.412 505.6 284.444 505.6C285.644 505.6 286.724 505.348 287.684 504.844C288.668 504.34 289.568 503.608 290.384 502.648L294.92 506.752C293.696 508.264 292.16 509.44 290.312 510.28C288.488 511.096 286.412 511.504 284.084 511.504ZM298.098 511V485.8H305.226V505.348H317.25V511H298.098ZM332.392 511.504C330.376 511.504 328.516 511.18 326.812 510.532C325.108 509.884 323.62 508.972 322.348 507.796C321.1 506.596 320.128 505.204 319.432 503.62C318.736 502.036 318.388 500.296 318.388 498.4C318.388 496.504 318.736 494.764 319.432 493.18C320.128 491.596 321.1 490.216 322.348 489.04C323.62 487.84 325.108 486.916 326.812 486.268C328.516 485.62 330.376 485.296 332.392 485.296C334.432 485.296 336.292 485.62 337.972 486.268C339.676 486.916 341.152 487.84 342.4 489.04C343.648 490.216 344.62 491.596 345.316 493.18C346.036 494.764 346.396 496.504 346.396 498.4C346.396 500.296 346.036 502.048 345.316 503.656C344.62 505.24 343.648 506.62 342.4 507.796C341.152 508.972 339.676 509.884 337.972 510.532C336.292 511.18 334.432 511.504 332.392 511.504ZM332.392 505.6C333.352 505.6 334.24 505.432 335.056 505.096C335.896 504.76 336.616 504.28 337.216 503.656C337.84 503.008 338.32 502.24 338.656 501.352C339.016 500.464 339.196 499.48 339.196 498.4C339.196 497.296 339.016 496.312 338.656 495.448C338.32 494.56 337.84 493.804 337.216 493.18C336.616 492.532 335.896 492.04 335.056 491.704C334.24 491.368 333.352 491.2 332.392 491.2C331.432 491.2 330.532 491.368 329.692 491.704C328.876 492.04 328.156 492.532 327.532 493.18C326.932 493.804 326.452 494.56 326.092 495.448C325.756 496.312 325.588 497.296 325.588 498.4C325.588 499.48 325.756 500.464 326.092 501.352C326.452 502.24 326.932 503.008 327.532 503.656C328.156 504.28 328.876 504.76 329.692 505.096C330.532 505.432 331.432 505.6 332.392 505.6ZM355.142 511V491.452H347.402V485.8H369.974V491.452H362.27V511H355.142ZM389.477 485.8H396.605V511H389.477V485.8ZM379.757 511H372.629V485.8H379.757V511ZM389.981 501.172H379.253V495.268H389.981V501.172ZM401.633 511V485.8H408.761V511H401.633ZM413.833 511V485.8H419.701L433.597 502.576H430.825V485.8H437.809V511H431.941L418.045 494.224H420.816V511H413.833ZM455.436 511.504C453.444 511.504 451.596 511.192 449.892 510.568C448.188 509.92 446.712 509.008 445.464 507.832C444.24 506.656 443.28 505.276 442.584 503.692C441.888 502.084 441.54 500.32 441.54 498.4C441.54 496.48 441.888 494.728 442.584 493.144C443.28 491.536 444.252 490.144 445.5 488.968C446.748 487.792 448.224 486.892 449.928 486.268C451.656 485.62 453.54 485.296 455.58 485.296C457.956 485.296 460.08 485.692 461.952 486.484C463.824 487.276 465.372 488.416 466.596 489.904L462.06 494.008C461.196 493.072 460.26 492.376 459.252 491.92C458.268 491.44 457.164 491.2 455.94 491.2C454.86 491.2 453.876 491.368 452.988 491.704C452.1 492.04 451.344 492.532 450.72 493.18C450.096 493.804 449.604 494.56 449.244 495.448C448.908 496.312 448.74 497.296 448.74 498.4C448.74 499.456 448.908 500.428 449.244 501.316C449.604 502.204 450.096 502.972 450.72 503.62C451.344 504.244 452.088 504.736 452.952 505.096C453.84 505.432 454.812 505.6 455.868 505.6C456.924 505.6 457.956 505.432 458.964 505.096C459.972 504.736 460.992 504.136 462.024 503.296L466.02 508.3C464.58 509.332 462.912 510.124 461.016 510.676C459.12 511.228 457.26 511.504 455.436 511.504ZM459.72 507.364V497.86H466.02V508.3L459.72 507.364Z" fill="white"/>
</g>
<g filter="url(#filter6_d_3_1171)">
<path d="M335.668 222.914H354.899L357.048 219.062C357.972 217.407 359.331 216.035 360.979 215.098C362.596 214.178 364.424 213.694 366.284 213.694H367.34C368.538 213.694 369.732 213.841 370.895 214.13L371.864 214.371C373.821 214.859 375.635 215.804 377.156 217.129C379.306 219.002 380.54 221.714 380.54 224.566V226.19C380.54 228.685 379.845 231.13 378.534 233.252L374.842 239.226L367.719 244.899L363.475 247.247C362.064 248.027 360.922 249.216 360.198 250.657L359.311 252.424C358.751 253.539 358.46 254.768 358.46 256.015V278.818C358.46 284.018 355.254 288.679 350.398 290.538C349.602 290.843 348.839 291.229 348.121 291.688L339.229 297.38L330.682 304.472L322.822 311.094C321.891 311.878 320.887 312.571 319.824 313.163L195.353 382.484L187.437 388.177C184.18 390.519 181.23 393.259 178.656 396.335C174.172 401.693 170.913 407.965 169.105 414.714L169 415.107V430H570V417.746C570 413.213 568.94 408.742 566.906 404.69C566.121 403.127 565.197 401.639 564.145 400.242L561.331 396.506C559.991 394.727 558.47 393.094 556.791 391.631L550.588 386.226C548.815 384.682 546.877 383.337 544.809 382.217L413.9 311.302C411.633 310.074 409.674 308.348 408.171 306.253C407.323 305.07 406.327 304.001 405.207 303.072L398.346 297.38L391.133 291.993C390.248 291.332 389.276 290.797 388.245 290.402C383.604 288.625 380.54 284.17 380.54 279.2V261.211L389.799 254.119L396.366 248.452C399.051 246.135 400.991 243.077 401.944 239.661L403.382 234.507C403.822 232.932 404.044 231.305 404.044 229.67V225.378C404.044 223.743 403.822 222.116 403.382 220.541L401.957 215.431C400.982 211.936 399.401 208.64 397.286 205.692L395.782 203.596C394.177 201.357 392.249 199.368 390.062 197.693C386.157 194.702 381.533 192.794 376.655 192.161L372.265 191.59C369.251 191.199 366.196 191.253 363.197 191.75L360.105 192.264C356.663 192.835 353.355 194.032 350.345 195.795C345.422 198.678 341.475 202.971 339.013 208.118L338.697 208.779C336.703 212.949 335.668 217.512 335.668 222.134V222.914Z" fill="white"/>
</g>
<path d="M195 408L361.434 314.954C364.724 313.115 368.726 313.088 372.04 314.882L544 408H195Z" fill="url(#paint1_linear_3_1171)"/>
<defs>
<filter id="filter0_d_3_1171" x="143.021" y="472.257" width="450.932" height="154.743" filterUnits="userSpaceOnUse" color-interpolation-filters="sRGB">
<feFlood flood-opacity="0" result="BackgroundImageFix"/>
<feColorMatrix in="SourceAlpha" type="matrix" values="0 0 0 0 0 0 0 0 0 0 0 0 0 0 0 0 0 0 127 0" result="hardAlpha"/>
<feOffset dy="4"/>
<feGaussianBlur stdDeviation="2"/>
<feComposite in2="hardAlpha" operator="out"/>
<feColorMatrix type="matrix" values="0 0 0 0 0 0 0 0 0 0 0 0 0 0 0 0 0 0 0.25 0"/>
<feBlend mode="normal" in2="BackgroundImageFix" result="effect1_dropShadow_3_1171"/>
<feBlend mode="normal" in="SourceGraphic" in2="effect1_dropShadow_3_1171" result="shape"/>
</filter>
<filter id="filter1_d_3_1171" x="423.056" y="142.511" width="196.205" height="223.079" filterUnits="userSpaceOnUse" color-interpolation-filters="sRGB">
<feFlood flood-opacity="0" result="BackgroundImageFix"/>
<feColorMatrix in="SourceAlpha" type="matrix" values="0 0 0 0 0 0 0 0 0 0 0 0 0 0 0 0 0 0 127 0" result="hardAlpha"/>
<feOffset dy="4"/>
<feGaussianBlur stdDeviation="2"/>
<feComposite in2="hardAlpha" operator="out"/>
<feColorMatrix type="matrix" values="0 0 0 0 0 0 0 0 0 0 0 0 0 0 0 0 0 0 0.25 0"/>
<feBlend mode="normal" in2="BackgroundImageFix" result="effect1_dropShadow_3_1171"/>
<feBlend mode="normal" in="SourceGraphic" in2="effect1_dropShadow_3_1171" result="shape"/>
</filter>
<filter id="filter2_d_3_1171" x="119.739" y="145.068" width="197.755" height="223.522" filterUnits="userSpaceOnUse" color-interpolation-filters="sRGB">
<feFlood flood-opacity="0" result="BackgroundImageFix"/>
<feColorMatrix in="SourceAlpha" type="matrix" values="0 0 0 0 0 0 0 0 0 0 0 0 0 0 0 0 0 0 127 0" result="hardAlpha"/>
<feOffset dy="4"/>
<feGaussianBlur stdDeviation="2"/>
<feComposite in2="hardAlpha" operator="out"/>
<feColorMatrix type="matrix" values="0 0 0 0 0 0 0 0 0 0 0 0 0 0 0 0 0 0 0.25 0"/>
<feBlend mode="normal" in2="BackgroundImageFix" result="effect1_dropShadow_3_1171"/>
<feBlend mode="normal" in="SourceGraphic" in2="effect1_dropShadow_3_1171" result="shape"/>
</filter>
<filter id="filter3_d_3_1171" x="656.432" y="345.367" width="573.72" height="83.6335" filterUnits="userSpaceOnUse" color-interpolation-filters="sRGB">
<feFlood flood-opacity="0" result="BackgroundImageFix"/>
<feColorMatrix in="SourceAlpha" type="matrix" values="0 0 0 0 0 0 0 0 0 0 0 0 0 0 0 0 0 0 127 0" result="hardAlpha"/>
<feOffset dy="4"/>
<feGaussianBlur stdDeviation="2"/>
<feComposite in2="hardAlpha" operator="out"/>
<feColorMatrix type="matrix" values="0 0 0 0 0 0 0 0 0 0 0 0 0 0 0 0 0 0 0.25 0"/>
<feBlend mode="normal" in2="BackgroundImageFix" result="effect1_dropShadow_3_1171"/>
<feBlend mode="normal" in="SourceGraphic" in2="effect1_dropShadow_3_1171" result="shape"/>
</filter>
<filter id="filter4_d_3_1171" x="1265.7" y="311.3" width="183.53" height="44.4" filterUnits="userSpaceOnUse" color-interpolation-filters="sRGB">
<feFlood flood-opacity="0" result="BackgroundImageFix"/>
<feColorMatrix in="SourceAlpha" type="matrix" values="0 0 0 0 0 0 0 0 0 0 0 0 0 0 0 0 0 0 127 0" result="hardAlpha"/>
<feOffset dy="4"/>
<feGaussianBlur stdDeviation="2"/>
<feComposite in2="hardAlpha" operator="out"/>
<feColorMatrix type="matrix" values="0 0 0 0 0 0 0 0 0 0 0 0 0 0 0 0 0 0 0.25 0"/>
<feBlend mode="normal" in2="BackgroundImageFix" result="effect1_dropShadow_3_1171"/>
<feBlend mode="normal" in="SourceGraphic" in2="effect1_dropShadow_3_1171" result="shape"/>
</filter>
<filter id="filter5_d_3_1171" x="266.224" y="485.296" width="204.372" height="34.208" filterUnits="userSpaceOnUse" color-interpolation-filters="sRGB">
<feFlood flood-opacity="0" result="BackgroundImageFix"/>
<feColorMatrix in="SourceAlpha" type="matrix" values="0 0 0 0 0 0 0 0 0 0 0 0 0 0 0 0 0 0 127 0" result="hardAlpha"/>
<feOffset dy="4"/>
<feGaussianBlur stdDeviation="2"/>
<feComposite in2="hardAlpha" operator="out"/>
<feColorMatrix type="matrix" values="0 0 0 0 0 0 0 0 0 0 0 0 0 0 0 0 0 0 0.25 0"/>
<feBlend mode="normal" in2="BackgroundImageFix" result="effect1_dropShadow_3_1171"/>
<feBlend mode="normal" in="SourceGraphic" in2="effect1_dropShadow_3_1171" result="shape"/>
</filter>
<filter id="filter6_d_3_1171" x="165" y="191.332" width="409" height="246.668" filterUnits="userSpaceOnUse" color-interpolation-filters="sRGB">
<feFlood flood-opacity="0" result="BackgroundImageFix"/>
<feColorMatrix in="SourceAlpha" type="matrix" values="0 0 0 0 0 0 0 0 0 0 0 0 0 0 0 0 0 0 127 0" result="hardAlpha"/>
<feOffset dy="4"/>
<feGaussianBlur stdDeviation="2"/>
<feComposite in2="hardAlpha" operator="out"/>
<feColorMatrix type="matrix" values="0 0 0 0 0 0 0 0 0 0 0 0 0 0 0 0 0 0 0.25 0"/>
<feBlend mode="normal" in2="BackgroundImageFix" result="effect1_dropShadow_3_1171"/>
<feBlend mode="normal" in="SourceGraphic" in2="effect1_dropShadow_3_1171" result="shape"/>
</filter>
<linearGradient id="paint0_linear_3_1171" x1="2.62022e-06" y1="180" x2="1434.63" y2="700.86" gradientUnits="userSpaceOnUse">
<stop stop-color="#4A8FC6"/>
<stop offset="1" stop-color="#1A2D47"/>
</linearGradient>
<linearGradient id="paint1_linear_3_1171" x1="195" y1="360" x2="544" y2="360" gradientUnits="userSpaceOnUse">
<stop stop-color="#4585B9"/>
<stop offset="1" stop-color="#396D9A"/>
</linearGradient>
</defs>
</svg>
