<?xml version="1.0" encoding="utf-8"?>
<!DOCTYPE svg PUBLIC "-//W3C//DTD SVG 1.0//EN" "http://www.w3.org/TR/2001/REC-SVG-20010904/DTD/svg10.dtd">
<svg version="1.0" xmlns="http://www.w3.org/2000/svg" width="496px" height="503px" viewBox="white" preserveAspectRatio="xMidYMid meet">
 <g fill="#ffffff">
  <path d="M197.5 500.3 c-15.6 -0.9 -17.5 -1.3 -17.5 -3.7 0 -2.2 0.5 -2.3 9.2 -3 6.9 -0.4 9.4 -0.3 10 0.6 0.6 1 0.8 1 0.8 0.1 0 -0.8 1.4 -1.3 3.5 -1.3 1.9 0 3.5 0.4 3.5 0.9 0 0.5 1.4 1.1 3 1.3 2 0.3 3 0 3 -0.9 0 -0.9 1.6 -1.3 5.5 -1.3 4.2 0 5.5 0.3 5.5 1.5 0 0.8 0.7 1.5 1.5 1.5 0.9 0 1.5 0.9 1.5 2.5 l0 2.5 -12.2 -0.2 c-6.8 -0.1 -14.5 -0.3 -17.3 -0.5z"/>
  <path d="M261 497 l0 -4.3 8.2 0.5 c4.9 0.3 8.4 1 8.6 1.6 0.5 1.7 2.2 1.5 2.2 -0.3 0 -1.2 1.7 -1.5 8.9 -1.5 4.9 0 9.1 0.4 9.3 0.9 0.2 0.6 2.1 0.6 4.8 0.1 2.5 -0.5 5.7 -0.9 7.3 -1 2.3 0 2.7 0.4 2.7 2.9 0 3.8 -0.6 3.9 -28.7 4.7 l-23.3 0.7 0 -4.3z"/>
  <path d="M170.3 498.3 c-4.5 -0.3 -5.3 -0.7 -5.3 -2.4 0 -1.7 0.7 -1.9 7 -1.9 6.8 0 7 0.1 7 2.5 0 1.8 -0.5 2.4 -1.7 2.3 -1 -0.1 -4.2 -0.3 -7 -0.5z"/>
  <path d="M325 495.5 c0 -2.5 0.1 -2.5 9 -2.5 8.1 0 9 0.2 9 1.9 0 1.5 -1.1 1.9 -6.1 2.5 -10.9 1.1 -11.9 0.9 -11.9 -1.9z"/>
  <path d="M149.3 496.3 c-0.7 -0.2 -1.3 -1.1 -1.3 -1.9 0 -1.1 1.6 -1.4 6.5 -1.4 5.8 0 6.5 0.2 6.5 2 0 1.8 -0.6 2 -5.2 1.9 -2.9 0 -5.9 -0.3 -6.5 -0.6z"/>
  <path d="M130.7 494.3 c-0.4 -0.3 -0.7 -1.7 -0.7 -3 0 -2 0.5 -2.3 3.5 -2.3 3.2 0 3.5 0.2 3.5 3 0 2.6 -0.4 3 -2.8 3 -1.6 0 -3.2 -0.3 -3.5 -0.7z"/>
  <path d="M357 491.5 c0 -1.9 0.5 -3.5 1 -3.5 0.6 0 1 -0.7 1 -1.5 0 -1.1 1.1 -1.5 4 -1.5 3.6 0 4 0.3 4 2.5 0 1.4 0.5 2.5 1 2.5 0.6 0 1 -0.6 1 -1.4 0 -2 6.2 -2.8 17.5 -2.4 8.2 0.3 9 0.5 9.3 2.4 0.3 1.9 -0.6 2.1 -14 3.8 -10.3 1.4 -14.3 1.6 -14.6 0.7 -0.5 -1.6 -3.2 -1.3 -3.2 0.4 0 1 -1.1 1.5 -3.5 1.5 -3.3 0 -3.5 -0.2 -3.5 -3.5z"/>
  <path d="M110.5 492.1 c-11.9 -1.6 -12 -1.6 -12.3 -4.4 l-0.3 -2.7 10.3 0.5 c5.7 0.3 12.2 0.8 14.6 1.1 4 0.5 4.2 0.7 4.2 4 0 4 1 3.9 -16.5 1.5z"/>
  <path d="M89.5 489.1 c-4.1 -0.8 -4.7 -4.1 -0.8 -4.1 4.8 0 7.3 1.1 7.3 3.1 0 2 -1.1 2.2 -6.5 1z"/>
  <path d="M413 486 c0 -1.6 0.7 -2 3.5 -2 4 0 4.9 2.4 1.3 3.4 -3.8 1 -4.8 0.7 -4.8 -1.4z"/>
  <path d="M58.5 483.9 c-5.5 -1 -11.5 -2.1 -13.2 -2.4 -2.5 -0.4 -3.3 -1.1 -3.3 -2.7 0 -1.9 0.3 -2 5.8 -1.3 3.1 0.4 10.5 0.6 16.5 0.5 l10.7 -0.1 0 3.4 c0 2.7 -0.5 3.6 -2.2 4.1 -2.8 0.7 -2 0.8 -14.3 -1.5z"/>
  <path d="M422.8 485.3 c-1.3 -0.3 -1.8 -1.4 -1.8 -3.7 l0 -3.3 7.7 -0.7 c4.2 -0.3 10.2 -0.6 13.5 -0.6 5.4 0 5.8 0.1 5.8 2.4 0 2.2 -0.6 2.5 -11.3 4.5 -6.3 1.1 -11.6 2 -11.8 2 -0.2 -0.1 -1.2 -0.3 -2.1 -0.6z"/>
  <path d="M453 477.6 c0 -3.4 0.1 -3.6 3.5 -3.6 3.2 0 3.5 0.2 3.5 3 0 2.3 -0.5 3 -1.9 3 -1.1 0 -2.6 0.3 -3.5 0.6 -1.3 0.5 -1.6 -0.1 -1.6 -3z"/>
  <path d="M23 476.9 c-12.5 -3.3 -19 -9.3 -21 -19.8 -2.1 -10.9 3.5 -51.2 7.3 -51.9 1.4 -0.3 1.7 0.4 1.7 3.2 0 2 -0.3 3.6 -0.7 3.6 -0.5 0 -0.7 5.2 -0.5 11.5 0.3 10.5 0.2 11.5 -1.5 11.6 -1.5 0 -1.4 0.2 0.5 1.1 2.4 1.2 2.6 2.6 1.6 10.2 -0.6 4 -1 4.6 -3 4.6 -1.5 0 -2.4 0.6 -2.4 1.5 0 0.9 0.9 1.5 2.4 1.5 2.8 0 3.6 2.1 3.6 9.8 l0 5.2 5.3 0 c2.8 0 8.2 0.3 12 0.7 l6.7 0.6 0 4.3 c0 5.2 -0.5 5.3 -12 2.3z"/>
  <path d="M461 475.1 c0 -4.6 0.2 -4.7 11.1 -5.7 4.6 -0.4 7.6 -1 6.7 -1.2 -1.3 -0.2 -1.8 -1.3 -1.8 -3.9 l0 -3.6 4.5 0.5 4.5 0.6 0 -3.8 c0 -2.4 0.5 -4 1.5 -4.4 1.9 -0.7 1.9 -2.1 -0.2 -4.1 -1.9 -1.9 -3.1 -11.5 -1.5 -11.5 1.4 0 2.7 -6.1 1.5 -6.9 -0.6 -0.3 -1.3 -5.7 -1.6 -11.8 -0.6 -10.6 -0.5 -11.3 1.2 -11.3 1.5 0 2.2 1.2 3.1 5.2 2.7 12.9 4.1 26.7 3.8 37.2 -0.3 11.1 -0.3 11.2 -4.1 16.3 -4.5 6.2 -9.2 8.7 -20.2 10.8 -4.4 0.8 -8.1 1.5 -8.2 1.5 -0.2 0 -0.3 -1.8 -0.3 -3.9z"/>
  <path d="M477.2 393.3 c0.3 -9 0.5 -9.8 2.3 -9.8 1.6 0 2.5 1.6 4.7 8 3.8 11.4 3.8 11.5 -2.2 11.5 l-5.1 0 0.3 -9.7z"/>
  <path d="M9.4 398.7 c1.2 -6.2 6.3 -18.2 7.9 -18.5 1.4 -0.3 1.6 1 1.6 9.7 0 10 0 10.1 -2.5 10.1 -1.3 0 -2.4 0.5 -2.4 1 0 0.6 -1.2 1 -2.6 1 -2.4 0 -2.6 -0.3 -2 -3.3z"/>
  <path d="M18.2 378.1 c-2.1 -1.3 3.6 -12.5 6.6 -12.9 2 -0.3 2.2 0 2.2 5.1 0 3.1 -0.3 6.2 -0.6 7.1 -0.7 1.7 -5.9 2.2 -8.2 0.7z"/>
  <path d="M469 374.8 c0.5 -9.4 0.1 -11.8 -2 -11.8 -1.1 0 -2 -0.4 -2 -1 0 -0.5 -0.7 -1 -1.5 -1 -0.9 0 -1.8 -1.2 -2.1 -3 -0.5 -2.3 -1.2 -3 -2.9 -3 -5 0 -5.5 -0.8 -5.5 -8.4 l0 -7.2 -3.7 -1 c-3.3 -0.8 -3.8 -1.3 -4.1 -4.1 -0.3 -3 -0.6 -3.3 -3.7 -3.3 -3.5 0 -4.5 -1.3 -4.5 -5.5 0 -2 -0.6 -2.4 -3.7 -2.7 -3.6 -0.3 -3.8 -0.5 -4.1 -4 -0.3 -3.7 -0.4 -3.8 -4.3 -3.8 -3.9 0 -3.9 0 -3.9 -3.8 0 -3.6 -0.2 -3.9 -3.7 -4.8 -3.3 -0.8 -3.8 -1.3 -4.1 -4.1 l-0.3 -3.3 -7.5 0 -7.4 0 0 -2.7 c0 -4.4 -1.1 -5.1 -9 -6 l-7.5 -0.8 -0.3 -3.2 -0.3 -3.3 -6.4 0 c-8.5 0 -9.5 -0.5 -9.5 -4.6 l0 -3.4 -7.3 0 c-4.1 0 -7.7 -0.3 -8.1 -0.7 -0.4 -0.4 -2.5 -0.6 -4.6 -0.4 -4 0.3 -4 0.2 -4 -3.3 l0 -3.6 -5 0 -5 0 0 4 0 4 -4 0 c-3.9 0 -4 0.1 -4 3.4 l0 3.5 -8 0.7 c-7.8 0.6 -8 0.7 -8 3.3 0 2.5 -0.5 2.8 -5.8 3.9 -3.2 0.7 -8.6 1.2 -12 1.2 l-6.2 0 0 3.9 0 3.8 -22.9 0.1 c-20.7 0 -23 -0.1 -23.4 -1.6 -0.4 -1.5 -0.5 -1.5 -0.6 0 -0.1 1.6 -1.4 1.7 -11.6 1.6 l-11.5 -0.1 0 -3.8 0 -3.9 -12 0 -12 0 0 -4 0 -4 -6.4 0 c-8.6 0 -9.6 -0.5 -9.6 -4.6 0 -2.4 -0.5 -3.4 -1.5 -3.4 -0.8 0 -1.5 -0.4 -1.5 -1 0 -0.5 -1.1 -1 -2.5 -1 -2.1 0 -2.5 -0.5 -2.5 -3 0 -2.9 -0.1 -3 -5 -3 l-5 0 0 3.4 0 3.3 -7.7 0.7 c-4.2 0.3 -9.6 0.6 -12 0.6 -4.2 0 -4.3 0.1 -4.3 3.4 0 2.8 -0.4 3.5 -2.6 4 -1.5 0.4 -5.1 0.4 -8 0 l-5.4 -0.6 0 3.2 c0 5.1 -2.1 6.4 -9.6 5.7 -6.2 -0.6 -6.4 -0.5 -6.4 1.6 0 4.5 -2.3 6.1 -9.4 6.5 -6.1 0.4 -6.6 0.6 -6.6 2.7 0 4.3 -1 5.5 -4.6 5.5 -3.3 0 -3.4 0.1 -3.4 4 0 4 0 4 -3.9 4 -3.9 0 -4 0.1 -4.3 3.8 -0.3 3.5 -0.5 3.7 -4 4 -3.2 0.3 -3.8 0.7 -3.8 2.7 0 4.3 -1 5.5 -4.6 5.5 -3.3 0 -3.4 0.1 -3.4 4 l0 4 -4 0 -4 0 0 8 0 8 -4 0 -4 0 0 4 0 4 -4.5 0 c-4 0 -4.5 -0.2 -4.5 -2.3 0 -1.2 2.7 -6.5 6.1 -11.7 23 -35.6 53.1 -60.4 92 -75.8 8.8 -3.5 25.8 -8.6 34.5 -10.2 l6.1 -1.2 7.3 5.6 c13.3 10.3 33.3 19.7 49.1 23.1 10.2 2.2 30.4 3 42.5 1.7 21.6 -2.4 44.2 -11.9 62.2 -26.1 l5.2 -4.2 8.3 1.6 c39.1 7.3 80.1 30.9 106 61 10.3 11.9 10.7 12.4 16.9 21.9 5.8 8.8 16.8 29.5 16.8 31.6 0 0.5 -2.3 1 -5.1 1 l-5.1 0 0.2 -4.2z"/>
  <path d="M243 255.9 c0 -3 0.1 -3 5.3 -2.9 12 0.3 18.7 1.2 18.7 2.6 0 1.8 -2.4 2.2 -14.2 2.8 l-9.8 0.4 0 -2.9z"/>
  <path d="M233 255.5 c0 -2.2 0.4 -2.5 3.5 -2.5 3.1 0 3.5 0.3 3.5 2.5 0 2.2 -0.4 2.5 -3.5 2.5 -3.1 0 -3.5 -0.3 -3.5 -2.5z"/>
  <path d="M206.9 252 c-23.1 -7.7 -44 -22.4 -59.1 -41.6 -7.8 -9.9 -9.3 -12.2 -14.7 -22.4 -4.8 -9.3 -12.1 -32 -12.1 -38.1 0 -1.5 7 -1 8.6 0.5 1.5 1.6 1.9 7.2 0.5 7.8 -0.4 0.2 -0.4 3.5 0.2 7.5 1 7.1 1 7.1 4.4 7.8 3.3 0.6 3.4 0.8 3.2 4.5 -0.2 2.2 0 4.2 0.4 4.6 0.4 0.4 0.7 1.9 0.7 3.4 0 2.3 0.6 2.9 4 3.9 l4 1.2 0 6.9 0 6.9 3.8 0.3 c3.5 0.3 3.7 0.5 4 4 0.3 3.5 0.5 3.7 4 4 3.5 0.3 3.7 0.5 4 4.1 0.3 3.6 0.4 3.7 4.4 3.7 l4 0 -0.4 4 -0.4 4 5.8 0 c8.1 0 10.8 1.2 10.8 5 0 2.8 0.2 3 3.9 3 3.6 0 4 0.3 4.4 2.8 l0.4 2.7 0.2 -2.7 c0.1 -2.5 0.5 -2.8 3.6 -2.8 3.3 0 3.5 0.2 3.5 3.5 0 3.1 -0.3 3.5 -2.5 3.5 -1.4 0 -2.5 0.3 -2.5 0.8 0 0.4 4.7 0.6 10.5 0.4 l10.5 -0.4 0 5.1 c0 6.1 0 6.1 -12.1 2.1z"/>
  <path d="M277.6 252.8 c-0.3 -1.3 -0.6 -3.5 -0.6 -5 0 -3.2 0.4 -3.3 13.3 -2.2 5.1 0.5 7.7 1.1 7.7 1.9 0 1.1 -7.6 4.4 -14 6 -1.4 0.4 -3.2 0.9 -4.1 1.1 -1.1 0.3 -1.9 -0.3 -2.3 -1.8z"/>
  <path d="M301 243.5 c0 -2.4 0.5 -3.5 1.5 -3.5 0.8 0 1.5 -0.7 1.5 -1.5 0 -0.9 0.9 -1.5 2.5 -1.5 2.1 0 2.5 -0.5 2.5 -3 0 -3.8 2.7 -5 11 -5 l5.9 0 0.3 -3.7 c0.3 -3.5 0.6 -3.8 3.6 -4.1 2.6 -0.3 3.2 -0.8 3.2 -2.7 0 -4.3 1 -5.5 4.6 -5.5 2.9 0 3.4 -0.3 3.4 -2.3 0 -2.9 2.9 -5.7 5.8 -5.7 2.3 0 2.8 -1.9 2.3 -8.4 -0.5 -5.7 0.6 -7.6 4.3 -7.6 l3.5 0 0.6 -5.7 c1.1 -9.9 1.2 -10.3 4.5 -10.3 2.8 0 3 -0.3 3 -3.7 0 -2 0.5 -7.4 1.2 -12 1.1 -7.6 1.4 -8.3 3.5 -8.3 2 0 2.3 -0.5 2.3 -4 0 -3.3 0.3 -4 2 -4 2.6 0 2.6 2.7 0 14.5 -4.1 18.6 -9.5 31.4 -19.5 46.4 -7.4 11 -23 27 -33 33.8 -6 4 -18.8 11.3 -19.9 11.3 -0.3 0 -0.6 -1.6 -0.6 -3.5z"/>
  <path d="M119 128.1 c0 -4.9 0.8 -7.1 2.6 -7.1 1 0 1.4 1.5 1.4 5.5 0 4.8 -0.2 5.5 -2 5.5 -1.7 0 -2 -0.7 -2 -3.9z"/>
  <path d="M120 114.7 c0 -2.5 2.8 -14.5 5.2 -22.4 1.6 -5.6 2.6 -7.3 4 -7.3 1.7 0 1.8 1.1 1.7 15 0 15 0 15 -2.3 15 -1.3 0 -3.8 0.3 -5.5 0.6 -2.4 0.5 -3.1 0.3 -3.1 -0.9z"/>
  <path d="M367.6 112.5 c-0.4 -1.4 -1.1 -2.5 -1.6 -2.5 -0.6 0 -1 -3.7 -1 -8.9 0 -8.4 0.1 -8.9 2.3 -9.5 1.2 -0.3 2.5 -0.6 2.8 -0.6 0.8 0 3.6 11.1 4.8 18.8 l0.8 5.2 -3.7 0 c-3.2 0 -3.9 -0.4 -4.4 -2.5z"/>
  <path d="M358.8 83.3 c-1.5 -0.4 -1.8 -1.7 -1.8 -8.4 0 -7.2 -0.2 -7.9 -2 -7.9 -1.1 0 -2 -0.4 -2 -0.9 0 -0.5 -0.9 -1.3 -2 -1.6 -1.3 -0.4 -2 -1.5 -2 -3 0 -2 -0.6 -2.4 -3.7 -2.7 -3.6 -0.3 -3.8 -0.5 -4.1 -4 -0.3 -3.7 -0.4 -3.8 -4.3 -3.8 -3.9 0 -3.9 0 -3.9 -4 0 -3.9 -0.1 -4 -3.4 -4 -3.6 0 -4.6 -1.2 -4.6 -5.6 0 -2.1 -0.4 -2.4 -4 -2.4 l-4 0 0 -4.2 0 -4.3 -7.1 0.3 c-7.8 0.4 -8.9 -0.2 -8.9 -4.9 0 -2.6 -0.2 -2.7 -8 -3.3 l-8 -0.7 0 -4.8 c0 -2.6 0.3 -5 0.6 -5.4 1.6 -1.5 23.3 8.5 34.6 15.9 9.3 6.2 27.9 24.7 34.1 34.2 5.6 8.3 13.8 24.3 13.1 25.4 -0.5 0.8 -5.7 0.9 -8.6 0.1z"/>
  <path d="M129 81.8 c0.1 -2.6 10.9 -21.8 16.4 -29.1 10.3 -13.7 27 -28 42.6 -36.5 19.9 -10.8 49.4 -16.7 71.5 -14.3 15.1 1.7 24.5 4.1 24.5 6.3 0 2.5 -3.9 3.2 -11.3 1.9 -8.1 -1.4 -17.4 -1.4 -17.9 0 -0.2 0.7 -3.2 0.8 -9.6 0.2 -5 -0.5 -9.2 -0.5 -9.2 -0.1 0 0.4 -1.6 0.8 -3.5 0.8 -2.4 0 -3.5 -0.5 -3.5 -1.5 0 -1.9 -0.7 -1.9 -2.6 0 -1.1 1 -3.6 1.5 -8.5 1.5 l-6.9 0 0 3.4 c0 4.1 -1 4.6 -9.6 4.6 -6.2 0 -6.4 0.1 -6.4 2.5 0 1.4 -0.4 2.5 -1 2.5 -0.5 0 -1 0.7 -1 1.6 0 1.4 -0.8 1.6 -5.6 1.1 -7.5 -0.8 -8.4 -0.3 -8.4 4.4 0 3.9 0 3.9 -3.9 3.9 -3.9 0 -4 0.1 -4.3 3.8 -0.3 3.4 -0.5 3.7 -3.8 4 -3.9 0.4 -5 1.5 -5 5.5 0 2.4 -0.4 2.7 -3.5 2.7 -3.3 0 -3.5 0.2 -3.5 3.5 0 3 -0.3 3.5 -2.4 3.5 -3.9 0 -5.6 1.1 -5.6 3.5 0 4.3 -1 5.5 -4.6 5.5 l-3.4 0 0 6.4 c0 4.5 -0.5 6.9 -1.6 8 -1.9 1.9 -8.4 2.2 -8.4 0.4z"/>
 </g>
 <g fill="#ffffff">
 </g>
 <g fill="#ffffff">
  <path d="M207.9 500.5 c-0.5 -0.4 -15.4 -1.2 -27.7 -1.4 -2.9 -0.1 -5.1 -0.4 -4.9 -0.9 0.3 -0.4 -2.3 -0.6 -5.6 -0.5 -8.1 0.4 -10.7 -0.3 -10.7 -2.6 0 -1.9 1.3 -2 42 -1.9 l42 0 0 3.3 c0 3.1 -0.1 3.2 -5.2 3.9 -8.1 0.9 -20.6 0.7 -21.3 -0.4 -0.3 -0.5 -1.4 -1 -2.3 -0.9 -1.4 0 -1.3 0.2 0.3 0.9 1.6 0.7 1.1 0.9 -2.1 0.9 -2.2 0.1 -4.3 -0.1 -4.5 -0.4z"/>
  <path d="M258 499 c0 -1.1 0.5 -2 1 -2 0.6 0 1 -0.9 1 -2 0 -1.8 0.7 -2 6.5 -2 3.7 0 6.5 0.4 6.5 1 0 0.6 0.9 1 2 1 1.1 0 2 -0.5 2 -1 0 -0.7 8 -1 22.5 -0.9 l22.5 0.1 0 2.3 c0 1.3 -0.3 2.6 -0.7 2.8 -0.9 0.5 -16.1 1.4 -38.7 2.3 -10.8 0.4 -14.1 0.2 -14.7 -0.8 -0.7 -1 -0.9 -1 -0.9 0 0 0.8 -1.6 1.2 -4.5 1.2 -3.8 0 -4.5 -0.3 -4.5 -2z"/>
  <path d="M330 495.6 c0 -2.6 0.1 -2.6 7 -2.6 6.3 0 7 0.2 7 2 0 1.6 -0.6 2 -3.2 1.9 -1.8 -0.1 -5 0.2 -7 0.6 -3.6 0.7 -3.8 0.6 -3.8 -1.9z"/>
  <path d="M148.8 496.2 c-3.4 -0.7 -2 -3.2 1.7 -3.2 2.8 0 3.5 0.4 3.5 1.9 0 1.9 -1 2.2 -5.2 1.3z"/>
  <path d="M126 493.9 c-8 -1 -14.8 -1.8 -15.2 -1.8 -1.5 -0.2 -0.8 -2 1 -2.4 0.9 -0.2 0.6 -0.3 -0.8 -0.1 -1.4 0.2 -3.6 0.6 -5 1 -2 0.4 -2.2 0.3 -1 -0.5 0.8 -0.6 1 -1.1 0.5 -1.1 -0.6 0 -1.6 0.5 -2.2 1.1 -0.7 0.7 -2.7 0.7 -6.9 -0.1 -3.3 -0.6 -6.8 -1.3 -7.9 -1.5 -1.1 -0.1 -2.3 -0.3 -2.7 -0.4 -0.5 0 -0.8 -0.8 -0.8 -1.5 0 -1.3 4 -1.5 25.9 -1.6 l25.8 0 0.6 3 c0.5 2.1 1.2 3 2.7 3 1.5 0 2 0.7 2 2.5 0 1.4 -0.3 2.4 -0.7 2.4 -0.5 -0.1 -7.3 -0.9 -15.3 -2z m-4 -2.9 c1.5 -0.5 1.8 -0.8 0.8 -0.9 -0.9 -0.1 -2.5 -0.4 -3.5 -0.7 -1.4 -0.5 -1.5 -0.4 -0.4 0.4 1.1 0.8 1 1.1 -0.5 1.5 -1 0.2 -1.2 0.5 -0.4 0.5 0.8 0 2.6 -0.4 4 -0.8z"/>
  <path d="M354 492.9 c0 -1.8 0.6 -2.8 2 -3.2 1.2 -0.3 2 -1.4 2 -2.6 0 -2 0.4 -2 26.5 -1.9 21.3 0.1 26.5 0.4 26.5 1.4 0 1.5 -0.9 1.7 -10.9 3.4 -4.5 0.8 -6.7 0.8 -7.4 0.1 -0.6 -0.6 -1.6 -1.1 -2.2 -1.1 -0.5 0 -0.4 0.4 0.4 0.9 1.8 1.2 -3 2.2 -11.2 2.4 -3.1 0.1 -5.7 0.5 -5.7 0.9 0 0.4 -1.2 0.7 -2.7 0.7 -1.6 0 -6.1 0.4 -10 0.9 l-7.3 0.8 0 -2.7z"/>
  <path d="M78.9 487.6 c-0.4 -0.4 -2.2 -0.7 -11.8 -2.2 -3.1 -0.5 -3.9 -0.9 -3 -1.6 0.9 -0.6 -0.2 -0.7 -3 -0.2 -3.1 0.4 -4.2 0.3 -3.7 -0.5 0.5 -0.8 -0.4 -1 -2.8 -0.6 -2 0.2 -3.6 0 -3.6 -0.5 0 -0.5 -1.4 -0.7 -3.2 -0.3 -2.4 0.5 -2.9 0.3 -2.3 -0.7 0.6 -0.9 0.4 -1.1 -0.4 -0.6 -1.9 1.2 -8.1 -0.3 -8.1 -2 0 -1.2 2.7 -1.4 17.3 -1.3 9.8 0 18 0.5 19.2 1.1 1.4 0.8 2 0.8 2.3 -0.1 0.2 -0.6 1.9 -1.1 3.8 -1.1 l3.4 0 0 5.5 c0 4.7 -0.3 5.5 -1.8 5.5 -1 0 -2.1 -0.2 -2.3 -0.4z"/>
  <path d="M413.4 483.9 c0.4 -2.4 1.1 -4.8 1.6 -5.3 0.5 -0.5 5.5 -1.1 11.1 -1.4 7.9 -0.4 10.3 -0.2 11 0.9 0.6 1 0.9 1 0.9 0.2 0 -1.4 3 -1.7 7.9 -0.7 4.1 0.9 4.4 4.4 0.4 4.4 -1.6 0 -4.5 0.5 -6.5 1 -3.1 0.9 -4.2 0.8 -6.3 -0.6 -1.4 -0.9 -2.8 -1.4 -3.2 -1 -0.3 0.3 -0.1 0.6 0.6 0.6 0.7 0 0.9 0.4 0.6 1 -0.4 0.6 0.1 0.7 1.1 0.3 1.2 -0.5 1.5 -0.3 0.9 0.6 -0.5 0.8 -1.8 1.1 -3.7 0.7 -1.6 -0.3 -2.7 -0.2 -2.4 0.3 0.3 0.4 -1.8 1.1 -4.7 1.5 -2.8 0.3 -6.3 0.9 -7.6 1.3 -2.3 0.6 -2.4 0.5 -1.7 -3.8z"/>
  <path d="M453 475.6 l0 -5.6 3.9 0 c2.2 0 4.2 0.5 4.4 1.3 0.3 0.7 0.6 0.4 0.6 -0.7 0.1 -1.7 0.7 -1.8 8.1 -1.1 8 0.7 8 0.7 8 -1.7 0 -3 1.9 -5.5 4.5 -6 1.8 -0.3 2 -1.2 2.3 -9.1 0.1 -4.8 0.6 -8.7 1.1 -8.7 0.5 0 0.5 -1.9 0 -4.2 -0.4 -2.4 -0.8 -9.1 -0.9 -15 0 -10.8 0 -10.8 2.4 -10.8 2.6 0 3 0.7 4 7 l0.6 3.5 -1.4 -3 c-0.8 -1.6 -1.5 -2.5 -1.5 -1.8 -0.1 0.7 0.8 2.9 1.9 5 2.5 4.9 4 25.4 2 27.8 -0.8 1 -0.9 1.5 -0.1 1.5 1.8 0 1.2 5 -1.1 9.1 -1.2 2.2 -2.5 3.9 -2.9 3.9 -0.4 0 -0.9 0.9 -1.2 2 -0.3 1.1 -1.9 2.5 -3.6 3.1 -1.7 0.6 -3.1 1.5 -3.1 2.1 0 0.5 -0.5 0.6 -1.1 0.2 -0.6 -0.3 -1.4 -0.2 -1.8 0.5 -0.9 1.3 -10.5 3.3 -12.6 2.5 -0.8 -0.4 -1.5 -0.2 -1.5 0.4 0 0.5 -1.7 1.3 -3.7 1.6 -2.1 0.4 -4.6 0.9 -5.5 1.2 -1.6 0.5 -1.8 -0.2 -1.8 -5z"/>
  <path d="M29.5 478.4 c-2.6 -0.6 -9.6 -2.5 -11.5 -3.2 -2 -0.7 -2.8 -0.9 -4.1 -1.1 -0.5 0 -0.7 -0.5 -0.4 -1.1 0.3 -0.5 -0.3 -1 -1.3 -1 -2.6 0 -4 -1.8 -5.1 -6.6 -0.5 -2.1 -0.9 -3.1 -1 -2.1 -0.1 0.9 -0.5 1.7 -0.9 1.7 -1.2 0 -3 -5.8 -3.7 -12.2 -0.7 -5.2 -0.5 -5.8 1.1 -5.8 1.5 0 1.6 -0.2 0.5 -0.9 -1.8 -1.2 -0.7 -16 1.5 -20.3 1 -2 1.1 -2.8 0.3 -2.3 -0.9 0.6 -1 0.2 -0.6 -1.6 0.4 -1.3 0.7 -3.3 0.7 -4.4 0 -1.7 0.2 -1.7 1 -0.5 0.6 1 0.8 0.3 0.3 -2.2 -0.3 -2.2 -0.1 -4.3 0.6 -5.1 0.6 -0.8 0.8 -1.7 0.4 -2 -0.3 -0.4 0.1 -0.7 0.9 -0.7 1.1 0 1.8 1.3 2.2 3.8 1 6.1 0.3 28.6 -0.8 29.4 -0.7 0.5 -0.7 0.8 0.2 0.8 1.7 0 1.7 18.7 0 19.3 -0.7 0.2 1.1 0.7 4 1.1 5.1 0.7 5.2 0.7 5.2 4.1 l0 3.5 4.8 0 c3.5 0 5.2 0.5 6.5 2 1.6 1.9 1.6 2 -1.1 2.1 l-2.7 0.1 2.5 0.7 c1.6 0.4 2.6 1.4 2.8 2.9 0.2 1.2 0.2 2.1 0 2.1 -0.2 -0.1 -1.2 -0.3 -2.3 -0.5z"/>
  <path d="M10.5 401.4 c-0.9 -0.9 -1.4 -2.3 -1.1 -3.1 0.4 -0.8 0.9 -2.6 1.2 -3.9 0.3 -1.3 1 -2.2 1.4 -1.9 0.5 0.3 0.6 -0.5 0.2 -1.7 -0.4 -1.7 -0.2 -2 1.3 -1.4 1.4 0.5 1.6 0.4 0.6 -0.8 -1.2 -1.4 -0.5 -4.6 1 -4.6 0.4 0 0.6 -0.7 0.3 -1.5 -0.4 -1 0 -1.5 1.5 -1.5 2 0 2.1 0.5 2.1 11 l0 11 -3.4 0 c-1.9 0 -4.2 -0.7 -5.1 -1.6z"/>
  <path d="M481.3 401.7 c-2.1 -1.1 -2.3 -1.8 -3.9 -12.4 -0.6 -3.7 -1 -4.3 -3.1 -4.3 -2.4 0 -2.5 -0.3 -2.1 -4.9 0.1 -2.7 0 -4.7 -0.3 -4.5 -0.7 0.4 -1.9 -5.6 -1.9 -9.4 0 -2.2 2.1 -2.8 2.2 -0.7 0.1 0.6 0.8 1.6 1.7 2.3 0.9 0.8 1 1 0.3 0.7 -1.1 -0.6 -1.1 -0.3 0 1.4 0.7 1.2 1.7 2.1 2.2 2.1 0.4 0 0.6 0.9 0.3 2 -0.3 1 -0.1 1.8 0.5 1.7 0.5 -0.1 1.8 2 2.9 4.7 1.5 3.7 1.7 5.1 0.8 6.2 -1 1.2 -0.9 1.3 0.5 0.8 1.2 -0.5 1.5 -0.2 1 1 -0.3 0.9 -0.1 1.6 0.5 1.6 0.6 0 1.1 0.5 1.1 1.1 0 0.5 -0.6 0.7 -1.2 0.4 -0.7 -0.4 -0.5 0 0.5 0.8 0.9 0.8 2.3 3.5 3.1 6.1 1.4 4.5 1.4 4.6 -0.7 4.5 -1.2 -0.1 -3.2 -0.6 -4.4 -1.2z"/>
  <path d="M17.5 378.1 c-0.3 -0.5 0 -2.1 0.6 -3.5 1.4 -3.1 5.2 -3.2 4.4 -0.1 -0.5 1.5 -0.2 1.4 0.9 -0.5 l1.5 -2.5 0.1 3.8 c0 3.6 -0.1 3.7 -3.4 3.7 -1.9 0 -3.7 -0.4 -4.1 -0.9z"/>
  <path d="M21.3 370 c0.2 -3.9 7.6 -17.2 9 -16.3 0.6 0.3 0.7 0.1 0.3 -0.6 -0.7 -1 2.9 -7.2 4.6 -7.9 0.4 -0.2 0.8 -1 0.8 -1.7 0 -0.8 0.8 -1.9 1.8 -2.4 0.9 -0.6 1.3 -1.1 0.8 -1.1 -0.6 0 0.3 -1.3 1.8 -2.9 1.6 -1.7 3.4 -4 4.1 -5.3 0.6 -1.3 1.7 -2.2 2.4 -2 0.7 0.1 1 -0.2 0.6 -0.8 -0.3 -0.5 0.1 -1.3 0.9 -1.6 0.9 -0.3 1.6 -1.2 1.6 -1.9 0 -1.1 3.9 -5.3 4.1 -4.4 0 0.2 0.2 1.2 0.4 2.2 0.4 2.2 1.5 3.5 1.5 1.9 0 -0.7 0.7 -1.2 1.5 -1.2 1 0 1.5 1.1 1.5 3.5 l0 3.4 -5.7 0.3 -5.8 0.3 0.2 3.3 c0.1 2.8 -0.2 3.2 -2.3 3.2 -2.3 0 -2.4 0.2 -2.4 7.4 l0 7.5 -4.3 0.6 -4.2 0.7 0.3 3.9 c0.3 2.4 0 3.9 -0.7 3.9 -0.6 0 -1.1 1.9 -1.1 4.4 l0 4.4 -5 0.4 c-4.6 0.3 -4.9 0.1 -4.4 -1.7 0.3 -1.5 0.1 -1.4 -1 0.5 l-1.5 2.5 0.2 -2.5z m17.5 -25.6 c0.8 -1.5 0.8 -2.1 -0.1 -2.1 -0.7 0 -1.3 1.1 -1.3 2.4 -0.2 2.7 -0.1 2.7 1.4 -0.3z m15.3 -17.7 c-0.6 -0.8 -0.7 -1.8 -0.3 -2.3 0.4 -0.4 -0.1 -0.2 -1.1 0.6 -1.8 1.4 -1.8 1.4 0 2.1 2.6 1.1 2.7 1 1.4 -0.4z"/>
  <path d="M462.2 362.1 c-0.9 -0.5 -1.3 -2.5 -1.1 -6 0.2 -3.1 -0.2 -5.6 -1 -6.4 -1 -0.9 -1.1 -0.9 -0.6 0.4 0.5 1.3 -0.1 1.6 -2.7 1.5 -3.2 -0.1 -3.3 -0.2 -3.6 -4.8 l-0.3 -4.7 3.5 0.2 c2.1 0.1 3.6 0.7 3.6 1.5 0 0.6 -0.4 1.2 -1 1.2 -0.5 0 -1 0.5 -1 1.2 0 0.9 0.3 0.9 1.2 0 1.7 -1.7 3.1 -1.5 2.4 0.3 -0.3 0.8 -0.2 1.4 0.2 1.4 1.9 -0.3 2.5 0.2 1.2 1.1 -1.3 0.8 -1.3 1 0.2 1 1.6 0 7.8 9.4 7.8 11.9 0 1.3 -6.8 1.5 -8.8 0.2z"/>
  <path d="M445.6 333.6 c-0.8 -5.7 -1.2 -6.1 -5.8 -5.7 -1.3 0.2 -1.8 -0.5 -1.8 -2.3 0 -2.2 -0.4 -2.6 -3 -2.6 -1.6 0 -3 -0.4 -3 -1 0 -0.5 -0.7 -1 -1.5 -1 -1 0 -1.5 -1 -1.5 -2.8 0 -1.6 -0.9 -3.7 -2 -4.7 -2.1 -1.9 -2.4 -6.5 -0.4 -6.5 2 0 7.5 5.1 6.7 6.2 -0.3 0.6 -0.2 0.8 0.4 0.5 0.5 -0.3 3.4 1.8 6.3 4.8 3 3 5.1 5.5 4.7 5.5 -0.4 0 0.8 1.4 2.8 3.1 1.9 1.7 3.5 3.6 3.5 4.3 0 0.7 -0.3 0.6 -0.9 -0.2 -0.7 -1.1 -1 -1 -1.5 0.3 -0.7 2 0 3.5 1.7 3.4 0.9 0 0.9 -0.2 0 -0.6 -2 -0.7 -1.5 -2.3 0.5 -1.6 2.2 0.8 5.6 4.3 4.8 5 -0.3 0.3 -2.5 0.8 -4.9 1 l-4.4 0.5 -0.7 -5.6z m-0.9 -7.7 c-1.5 -1.1 -2.5 -2.4 -2.2 -2.9 0.3 -0.4 -0.2 -1.3 -0.9 -1.9 -1.9 -1.6 -1.6 1 0.3 3.3 0.7 0.9 1 1.6 0.5 1.7 -0.5 0.1 0.2 0.5 1.6 0.9 3.7 1.2 3.7 1.1 0.7 -1.1z m-8.5 -9.5 c-0.9 -0.7 -2.1 -1.4 -2.6 -1.4 -0.6 0 -0.1 0.7 1 1.5 1.5 1.1 1.6 1.5 0.4 1.6 -0.8 0.1 -1.9 0.1 -2.3 0 -0.5 -0.1 -0.6 0.3 -0.2 0.8 0.4 0.7 1.4 0.6 3 -0.1 2.3 -1 2.3 -1.2 0.7 -2.4z"/>
  <path d="M57 320.5 c0 -1 0.9 -1.3 2.8 -1 2 0.2 2.9 -0.1 2.9 -1.1 0 -1 -0.4 -1.1 -1.4 -0.2 -1 0.8 -1.7 0.8 -2.6 -0.1 -0.9 -1 0.3 -2.6 5.7 -7.7 3.7 -3.5 7.2 -6.4 7.7 -6.4 0.5 0 0.9 1.6 0.9 3.5 0 1.9 -0.4 3.5 -0.9 3.5 -0.5 0 -0.7 0.9 -0.4 2 0.5 1.7 0 2 -3 2 -3.6 0 -5.2 1.7 -4.8 5.3 0.2 1.3 -0.5 1.7 -3.3 1.7 -2.5 0 -3.6 -0.5 -3.6 -1.5z m6 -4.5 c0 0.7 0.3 1.1 0.6 0.7 0.3 -0.3 0.2 -1.2 -0.3 -2 -0.6 -1.2 -1.2 -1 -2.7 1.1 l-2 2.7 2.2 -1.9 c1.5 -1.3 2.2 -1.5 2.2 -0.6z"/>
  <path d="M413 304.6 c0 -1.3 0.3 -3.7 0.6 -5.4 0.6 -3 0.7 -3 3 -1.5 1.3 0.8 2.2 1.9 1.9 2.3 -0.3 0.5 0.5 1 1.7 1.2 1.7 0.2 2.4 1.1 2.6 3.1 0.3 2.6 0.2 2.7 -4.7 2.7 -4.7 0 -5.1 -0.2 -5.1 -2.4z"/>
  <path d="M75.2 303.8 c0.2 -2.6 2.7 -6 3.8 -5.3 0.4 0.3 1 -0.2 1.4 -1 0.9 -2.5 2.6 -1.7 2.6 1.3 0 5.7 -1 7.2 -4.6 7.2 -2.8 0 -3.3 -0.3 -3.2 -2.2z m2.7 -1.5 c-1.2 -1.5 -1.2 -1.6 0.3 -1 1.2 0.4 1.5 0.2 1.1 -0.9 -0.5 -1.4 -0.8 -1.4 -2.2 0.1 -1.4 1.4 -1.4 1.7 -0.1 2.5 2.2 1.4 2.4 1.2 0.9 -0.7z"/>
  <path d="M87.7 296.9 c-0.5 -1.7 -0.2 -2 1.4 -1.6 1.1 0.3 1.7 0.1 1.3 -0.5 -0.4 -0.6 0.1 -0.8 1.4 -0.4 1.1 0.4 2.3 0.2 2.7 -0.3 0.4 -0.7 -0.1 -0.8 -1.1 -0.4 -1.2 0.4 -1.5 0.3 -1 -0.5 1 -1.7 0.2 -1.5 -3.9 0.8 -1.9 1.1 -3.5 1.6 -3.5 1.1 0 -1.3 5.3 -4.6 6.8 -4.3 0.7 0.2 1.2 -0.1 1.1 -0.5 -0.3 -2 0.2 -2.4 1.6 -1.3 1.3 1.1 1.4 1 1 -0.1 -0.5 -1.5 4.7 -5.4 5.7 -4.3 0.3 0.3 1.8 -0.6 3.3 -2 1.5 -1.4 4.3 -3 6.3 -3.7 2.1 -0.6 4.3 -1.6 4.9 -2.1 2 -1.6 3.8 -0.3 4.1 3.1 0.2 2.7 -0.1 3.1 -2.2 3.1 -2.5 0 -3.6 1.6 -3.6 5.2 0 1.9 -0.4 2 -5.5 1.4 -3.5 -0.4 -5.5 -0.2 -5.5 0.4 0 0.5 -0.9 1 -2 1 -1.7 0 -2 0.7 -2 4 l0 4 -5.4 0 c-4.6 0 -5.4 -0.3 -5.9 -2.1z m19.6 -10.3 c0.4 -1 0 -1.2 -1.5 -0.8 -1.6 0.4 -1.9 0.2 -1.3 -0.9 0.8 -1.2 0.6 -1.2 -0.8 -0.1 -0.9 0.8 -2.2 1 -2.8 0.6 -0.8 -0.5 -0.9 -0.3 -0.5 0.5 0.5 0.7 1.4 1 2 0.8 0.7 -0.3 1.9 -0.1 2.7 0.4 1.8 1.1 1.6 1.1 2.2 -0.5z m4.2 -3.6 c0.4 -0.6 -0.1 -0.7 -1.2 -0.3 -1.6 0.6 -1.7 0.5 -0.3 -1.2 1.4 -1.7 1.4 -1.8 -0.9 -0.6 -1.9 1 -2.1 1.5 -1 2.2 1.8 1.1 2.6 1.1 3.4 -0.1z"/>
  <path d="M216.9 297.8 c-0.1 -0.7 -0.1 -1.6 0 -2 0 -0.5 -0.3 -0.8 -0.9 -0.8 -0.5 0 -1 -1.3 -1 -2.8 l0 -2.8 5.4 1 c3 0.6 5.3 1.4 5 1.8 -0.3 0.4 1.2 0.7 3.3 0.6 10.5 -0.4 33.6 0.5 31.8 1.2 -1.4 0.6 -1.5 0.9 -0.5 0.9 0.9 0.1 2.6 -0.6 3.8 -1.5 1.3 -0.9 3 -1.3 3.9 -1 0.9 0.4 1.9 0.2 2.2 -0.3 0.4 -0.6 2.2 -1.2 4.1 -1.4 1.9 -0.2 4.9 -1 6.5 -1.6 1.7 -0.7 4.4 -1.3 6.2 -1.4 1.7 -0.1 2.9 -0.4 2.7 -0.6 -0.7 -0.7 4.8 -3.1 5.8 -2.5 0.5 0.3 1.8 -0.2 2.8 -1.1 1 -0.9 2.4 -1.4 3.1 -0.9 0.7 0.4 1 0.3 0.6 -0.3 -0.4 -0.6 0.6 -1.6 2.3 -2.2 l3 -1 0 6 0 6 -10.2 -0.3 c-7.4 -0.2 -10.2 0 -10.6 1 -0.2 0.6 -1.1 1.2 -2 1.2 -1 0 -2.3 1.4 -3 3 l-1.4 3 -19.1 -0.1 c-10.6 -0.1 -20.2 -0.5 -21.4 -1 -1.4 -0.5 -2.3 -0.5 -2.3 0.1 0 1.4 -4.7 1.2 -8.8 -0.2 -2.8 -1 -3.6 -1 -3.9 0 -0.3 0.6 -2 1.2 -3.9 1.2 -2 0 -3.4 -0.5 -3.5 -1.2z m11 -2.2 c-1.5 -1.3 -4.9 -2.5 -4.9 -1.7 0 0.5 0.8 1.2 1.8 1.4 2.4 0.6 3.6 0.8 3.1 0.3z"/>
  <path d="M397 294.6 c0 -4.3 0 -4.3 -4.2 -5 -2.7 -0.4 -4.4 -0.3 -4.6 0.4 -0.2 0.5 -2 1 -3.9 1 l-3.6 0 0.6 -5 c0.6 -4.8 0.5 -5 -1.8 -5 -1.3 0 -2.7 0.5 -3 1 -0.3 0.6 -2.2 1 -4.1 1 -1.9 0 -3.4 -0.4 -3.4 -1 0 -0.5 -0.7 -1 -1.5 -1 -1.1 0 -1.5 -1.2 -1.5 -5.1 0 -4.8 0.1 -5 2.3 -4.3 1.2 0.3 2.7 1 3.2 1.3 0.6 0.4 3.9 1.8 7.4 3.2 4.3 1.6 6.6 3.1 7.2 4.7 0.5 1.2 1.1 2.2 1.5 2.2 0.3 0 0.4 -0.7 0.1 -1.5 -0.5 -1.2 -0.1 -1.2 2.8 0.2 1.9 0.9 3.1 2.1 2.8 2.6 -0.4 0.6 0 0.8 0.9 0.5 0.8 -0.4 2.1 -0.2 2.9 0.3 1.2 0.8 1.2 1.1 -0.1 1.9 -1.1 0.8 -0.8 0.9 1.3 0.6 2.1 -0.4 2.7 -0.1 2.4 0.8 -0.3 0.7 0.1 1.3 0.9 1.3 0.7 0 1 -0.5 0.7 -1.1 -0.4 -0.6 0.9 0.1 2.8 1.6 1.8 1.5 3.3 3.1 3.2 3.7 -0.2 0.6 0.4 0.8 1.2 0.5 1.9 -0.8 1.9 1.3 0.1 3.2 -0.9 0.9 -3.5 1.4 -7 1.4 l-5.6 0 0 -4.4z m6.5 -0.2 c-1 -0.8 -1.2 -1.4 -0.5 -1.7 0.6 -0.3 0.6 -0.5 -0.1 -0.3 -2.1 0.4 -1.8 3.2 0.3 3.2 1.7 0 1.8 -0.2 0.3 -1.2z"/>
  <path d="M190.6 287 c-0.4 -2.6 -1.1 -4 -2.1 -4 -0.8 0 -1.5 -0.9 -1.5 -2 0 -1.1 -0.4 -2 -1 -2 -0.5 0 -1 0.7 -1 1.5 0 1 -1 1.5 -2.9 1.5 -3.6 0 -6.1 -0.9 -6.1 -2.2 0 -0.6 0.7 -0.7 1.6 -0.4 0.8 0.3 1.2 0.2 0.9 -0.3 -0.3 -0.5 0.5 -1.7 1.7 -2.5 1.2 -0.9 1.7 -1.6 1.1 -1.6 -0.6 0 -1.6 0.7 -2.3 1.5 -1.5 1.8 -3.1 2 -2.7 0.3 0.1 -0.9 -1.6 -1.4 -5.5 -1.6 l-5.8 -0.3 0 -5.4 c0 -4.2 0.4 -5.5 1.5 -5.5 0.8 0 1.5 0.5 1.5 1 0 0.6 0.5 1 1.1 1 1.2 0 7.6 5 7.2 5.6 -1.2 1.7 0.1 3.2 2.5 2.9 3 -0.3 10.6 3.7 9.5 5 -0.5 0.4 -0.3 0.5 0.4 0.1 1.4 -0.8 6.4 1.4 5.7 2.5 -0.3 0.5 0.1 0.6 0.9 0.3 0.8 -0.3 1.8 0 2.2 0.5 0.3 0.6 1.1 0.9 1.6 0.6 0.5 -0.4 0.9 -0.1 0.9 0.5 0 0.6 0.3 0.9 0.8 0.7 1.3 -0.8 4.7 1 4.7 2.4 0.1 2.3 -3.6 3.8 -9.1 3.9 l-5.1 0 -0.7 -4z m-6.9 -9.5 c0.1 -1.1 -1.7 -0.8 -3 0.4 -0.4 0.4 0 0.7 1 0.6 1 0 1.9 -0.5 2 -1z"/>
  <path d="M124.3 281 c0.3 -1.3 -0.2 -2.5 -1.6 -3.5 l-2.1 -1.5 2.3 0 c1.4 0 2.5 -0.7 2.8 -2 0.4 -1.5 2.9 -2.7 10.7 -5 5.5 -1.7 11.4 -3.5 13 -4.1 4.3 -1.3 4.6 -1.2 4.6 2.1 0 2.6 -0.4 3 -2.7 3.1 -1.7 0.1 -2.1 0.3 -1 0.6 0.9 0.2 1.7 1.4 1.7 2.5 0 1.9 -0.4 2 -6 1.5 -3.3 -0.4 -8 -0.4 -10.5 0 -4.5 0.6 -4.5 0.6 -4.5 4.4 0 3.8 -0.1 3.9 -3.6 3.9 -3.1 0 -3.6 -0.3 -3.1 -2z m26.8 -13.4 c-0.7 -0.8 -2.1 -1.2 -3.4 -0.8 -2.2 0.6 -2.2 0.6 0.3 1.3 3.9 1.1 4.3 1 3.1 -0.5z"/>
  <path d="M311.8 282.3 c-1.9 -0.3 -2.8 -1 -2.8 -2.3 0 -2 5.8 -7 8.5 -7.4 0.9 -0.1 2 -0.8 2.5 -1.5 0.4 -0.8 1.3 -1 1.9 -0.7 0.6 0.4 1 0.4 0.9 -0.1 -0.2 -0.4 0.1 -1 0.7 -1.3 0.5 -0.3 1.1 1 1.2 2.8 0.2 2.3 -0.1 3.2 -1.2 3.2 -1.1 0 -1.5 1.1 -1.5 4 0 4 0 4 -3.7 3.9 -2.1 -0.1 -5 -0.4 -6.5 -0.6z m4.8 -5 c-0.2 -0.9 -0.9 -1.9 -1.7 -2.1 -1.1 -0.3 -1.1 -0.1 0.1 0.7 1.3 1 1.3 1.1 0 1.1 -1.3 0 -1.3 0.1 0 1 1.9 1.2 1.9 1.3 1.6 -0.7z"/>
  <path d="M122 274 c1.9 -1.3 3 -1.3 3 0 0 0.6 -1 1 -2.2 1 -1.9 0 -2 -0.2 -0.8 -1z"/>
  <path d="M333.1 268.7 l0.2 -6.3 3.9 1 c3.7 1 3.9 1.3 3.4 4 -0.3 1.5 -0.6 3.9 -0.6 5.2 0 2.1 -0.5 2.4 -3.6 2.4 l-3.5 0 0.2 -6.3z"/>
  <path d="M351 274.2 c0 -0.5 -1.8 -0.7 -4.5 -0.4 -4.4 0.5 -4.5 0.4 -4.5 -2.4 0 -4 1 -7.4 2.2 -7.4 0.5 0 0.6 0.4 0.3 1 -0.3 0.5 0 0.7 0.7 0.5 0.8 -0.3 4.9 0.6 9.3 2 4.4 1.4 8.7 2.5 9.5 2.5 1.2 0 1.3 0.2 0.1 0.9 -1.1 0.7 -1.1 0.9 0 1.3 2.5 0.9 0.5 1.6 -6.3 2.3 -4.3 0.5 -6.8 0.4 -6.8 -0.3z"/>
  <path d="M236 258.1 c-5.6 -0.5 -6.5 -0.9 -6.8 -2.7 -0.3 -2.1 -0.1 -2.1 16.7 -2 l17 0.1 0.3 -3 0.3 -3 8 -0.2 c4.7 0 8.1 -0.5 8.3 -1.2 0.2 -0.7 3.2 -1.1 7.3 -1.1 6.7 0 6.9 -0.1 6.9 -2.5 0 -1.6 0.6 -2.5 1.5 -2.5 0.8 0 1.5 -0.7 1.5 -1.5 0 -1.2 1.3 -1.5 6 -1.5 l6 0 0.6 -4 c0.7 -4 0.7 -4 5.3 -4.1 2.5 0 4 -0.3 3.4 -0.6 -0.7 -0.2 -1.3 -2 -1.3 -3.9 l0 -3.4 7 0 c3.9 0 7 0.4 7 0.9 0 0.5 1 1.1 2.3 1.3 2 0.3 1.9 0.6 -2.1 4.5 -6.5 6.4 -9.4 8.2 -11.7 7.2 -1.1 -0.4 -1.4 -0.8 -0.7 -0.8 0.6 -0.1 1.2 -0.6 1.2 -1.2 0 -0.8 -0.5 -0.7 -1.6 0.2 -1.4 1.2 -1.4 1.4 0.2 2.6 1.4 1 1.5 1.3 0.3 1.4 -0.8 0.1 -1.7 0.1 -2.2 0 -0.4 0 -0.6 0.2 -0.6 0.6 0.3 2 -0.2 2.6 -1.1 1.3 -0.8 -1.3 -1 -1.2 -1 0.3 0 0.9 -0.6 1.7 -1.4 1.7 -0.8 0 -1.6 0.5 -1.8 1 -0.2 0.6 -1.7 1.1 -3.4 1.3 -1.8 0.1 -3 0.7 -2.7 1.3 0.4 1.2 -8.3 5 -10.4 4.6 -0.7 -0.2 -1.3 0.2 -1.3 0.8 0 0.6 -0.4 0.8 -1 0.5 -0.5 -0.3 -1 -0.1 -1 0.4 0 1.7 -3 1.3 -3.6 -0.4 -0.4 -0.8 -1.1 -1.2 -1.6 -0.9 -0.6 0.4 -0.5 1 0.3 1.5 0.7 0.4 1 1.1 0.6 1.5 -0.3 0.4 -1.3 0.1 -2.2 -0.6 -1.3 -1.1 -1.4 -1 -0.9 0.5 0.5 1.3 0.4 1.6 -0.5 1.1 -0.6 -0.4 -1.8 -0.3 -2.5 0.3 -3.2 2.7 -29.7 5.1 -32.2 3 -0.8 -0.6 -1.7 -0.9 -2.1 -0.5 -0.3 0.3 0 0.6 0.8 0.6 1.1 0 1.1 0.2 -0.1 1 -0.8 0.5 -2.2 0.9 -3 0.8 -0.8 -0.1 -4.4 -0.4 -8 -0.7z m79.6 -22.2 c1.1 -1.8 -1.4 -3.5 -2.8 -2 -1.1 1 -1 1.1 0.5 0.6 1.9 -0.8 2.4 1 0.5 1.8 -1 0.4 -1 0.6 -0.1 0.6 0.6 0.1 1.5 -0.4 1.9 -1z"/>
  <path d="M215.5 253.9 c-0.4 -0.5 -1.3 -0.8 -2.1 -0.5 -0.7 0.3 -1.6 0.1 -1.8 -0.3 -0.3 -0.5 -1.8 -0.8 -3.3 -0.8 -1.5 0 -2.9 -0.5 -3.1 -1.1 -0.2 -0.6 -1 -0.8 -1.9 -0.5 -1.1 0.4 -1.4 0.3 -0.9 -0.6 0.5 -0.8 0.3 -1.1 -0.5 -1 -2.6 0.6 -6.9 -1.1 -6.9 -2.6 0 -0.8 -0.5 -1.5 -1.1 -1.5 -0.5 0 -0.7 0.5 -0.4 1 0.4 0.6 -1.4 0 -3.9 -1.2 -2.5 -1.2 -4.6 -2.5 -4.6 -2.8 0 -0.9 4.4 -0.7 5.1 0.3 0.3 0.5 0.9 0.2 1.2 -0.6 0.4 -1 -0.3 -1.4 -2.6 -1.3 -1.8 0.1 -3.8 0.5 -4.5 1 -0.7 0.4 -1.5 0.1 -1.8 -0.8 -0.3 -0.9 -1 -1.4 -1.4 -1.1 -0.8 0.5 -9 -5.1 -9 -6.1 0 -0.4 0.8 0 1.8 0.7 1.5 1.2 1.5 1.1 -0.1 -0.8 -2.3 -2.6 -1.7 -3 6 -3.8 l6.1 -0.7 0.7 5.1 c0.6 4.5 1 5.1 3.1 5.1 1.3 0 2.4 -0.4 2.4 -1 0 -0.5 1.6 -1 3.5 -1 3.2 0 4 0.7 3.6 3.2 0 0.5 0.2 0.7 0.7 0.7 2.2 -0.4 3.2 0.3 3.2 2.1 0 1.8 0.7 2 7.5 2 l7.5 0 0 4.4 c0 4.4 -1.2 6.6 -2.5 4.5z m-33.2 -17.6 c-2 -0.8 -1.5 -2.6 0.5 -1.8 1.4 0.5 1.5 0.4 0.5 -0.6 -1 -1 -1.6 -1 -2.4 -0.2 -1.3 1.3 -0.4 3.3 1.4 3.2 0.9 0 0.9 -0.2 0 -0.6z"/>
  <path d="M166 228.9 c-2.5 -2.2 -4 -3.8 -3.3 -3.5 0.6 0.4 1.4 0.2 1.8 -0.3 0.3 -0.6 -0.4 -0.8 -1.6 -0.6 -1.4 0.3 -3 -0.5 -4.8 -2.3 -5.2 -5.5 -8.7 -9.7 -9.4 -11.5 -0.3 -0.9 -1.1 -1.7 -1.7 -1.7 -0.5 0 -1 -0.9 -1 -2 0 -1.6 0.7 -2 3.5 -2 2.8 0 3.5 0.4 3.5 2 0 1.1 0.5 2 1.1 2 0.6 0 0.9 1.7 0.7 4.3 -0.2 3.4 0.1 4.2 1.4 4.2 0.9 0 2 0.4 2.5 0.9 0.4 0.5 0.3 0.6 -0.4 0.2 -1.5 -0.8 -1.8 1 -0.4 1.9 0.5 0.3 1.2 -0.4 1.6 -1.5 0.7 -2.4 3.5 -2.7 3.5 -0.4 0 2.2 2.5 4.4 4.9 4.4 1.5 0 2.2 0.9 2.6 3.4 1.3 6.5 0.4 7 -4.5 2.5z"/>
  <path d="M336.9 221.4 c0 -0.5 -0.3 -2.1 -0.5 -3.6 -0.4 -2.6 -0.2 -2.8 3.1 -2.8 1.9 0 3.5 0.4 3.5 0.8 0 1.2 -6 6.7 -6.1 5.6z"/>
  <path d="M341 209 l0 -4 4 0 4 0 0 -4.9 c0 -5.3 1.4 -6.8 4.2 -4.4 1.3 1.2 1.7 1.2 2.4 0.1 0.4 -0.7 0.4 -1 -0.1 -0.6 -1.3 1.2 -3.5 -1.2 -3.5 -3.8 0 -1.9 0.5 -2.4 2.5 -2.4 2.3 0 2.5 -0.4 2.5 -4.2 0 -2.4 0.3 -6 0.6 -8 0.6 -3.5 0.9 -3.8 4 -3.8 l3.4 0 0 -12 c0 -10 0.3 -12 1.5 -12 1.1 0 1.5 -1.1 1.5 -4 0 -2.2 0.5 -4 1 -4 0.6 0 1 -1.8 1 -4 0 -3.8 0.2 -4 3.1 -4 l3.1 0 -0.7 9.3 c-0.4 5 -1.2 11 -1.7 13.2 -0.6 2.2 -1.2 4.7 -1.3 5.6 -0.4 4.2 -2.9 10.8 -3.8 10.2 -0.6 -0.4 -0.7 -0.1 -0.2 0.6 0.9 1.5 -4.4 15.3 -5.6 14.6 -0.4 -0.3 -0.5 -1.5 -0.3 -2.8 0.4 -2 0.4 -2 -0.5 -0.2 -0.5 1.2 -0.5 2.7 0.1 3.8 0.6 1.1 0.5 1.7 -0.2 1.7 -0.6 0 -0.9 0.4 -0.6 0.9 0.3 0.4 -0.3 1.6 -1.3 2.5 -1.1 1 -2.2 2.9 -2.5 4.2 -0.4 1.4 -1.1 2.2 -1.6 1.9 -0.5 -0.3 -0.7 0 -0.4 0.8 0.3 0.9 -0.4 2.2 -1.8 3.1 -1.2 0.9 -1.9 1.6 -1.5 1.6 0.8 0 -2.6 5.3 -4.9 7.8 -2.2 2.1 -2.7 1.3 -1 -1.5 l1.7 -2.8 -2.5 2.8 c-3.4 3.7 -4.6 3.4 -4.6 -1.3z"/>
  <path d="M139 198.4 c-1.3 -3.3 -1.3 -4.4 0.1 -4.4 0.5 0 0.7 -0.5 0.3 -1.1 -0.5 -0.8 -0.9 -0.8 -1.4 0.1 -1 1.7 -2.2 -0.4 -1.4 -2.5 0.5 -1.2 1.7 -1.5 5.3 -1.3 4.4 0.3 4.6 0.4 4.9 3.7 0.5 5.1 -0.5 8 -2.7 7.8 -1 0 -1.7 -0.6 -1.4 -1.2 0.2 -0.7 -0.3 -1.2 -1.1 -1.2 -0.8 0 -1.2 0.6 -0.9 1.4 0.3 0.7 0.2 1.3 -0.1 1.3 -0.4 0 -1.1 -1.2 -1.6 -2.6z"/>
  <path d="M135.7 186.6 c-0.5 -1.4 -1 -1.6 -2 -0.7 -1.1 0.8 -1.9 -0.3 -4 -5.4 -1.5 -3.6 -2.7 -6.8 -2.7 -7.1 0 -0.3 2.6 -0.4 5.8 -0.2 l5.7 0.3 0.3 5.3 c0.2 2.9 -0.1 5.2 -0.7 5.2 -0.5 0 -1.1 1 -1.3 2.3 -0.3 2 -0.4 2 -1.1 0.3z m-3.3 -8 c-0.3 -1.5 -0.8 -2.5 -1.1 -2.3 -0.2 0.3 -0.1 1.7 0.3 3.1 0.3 1.5 0.8 2.5 1.1 2.3 0.2 -0.3 0.1 -1.7 -0.3 -3.1z"/>
  <path d="M124.9 166.5 c-0.7 -2.2 -1.2 -5 -1.1 -6.2 0.2 -1.3 -0.2 -2.3 -0.9 -2.3 -0.7 0 -1 -1.1 -0.7 -2.9 0.2 -1.7 0.1 -2.8 -0.3 -2.5 -1 0.6 -1.9 -7.8 -2.2 -20.1 -0.2 -8.8 0 -10 1.6 -10.3 1.4 -0.3 1.7 0.5 1.7 5.2 0 5.6 0 5.6 3 5.6 l3 0 0 8.5 c0 5 0.4 8.5 1 8.5 1.5 0 1.2 6.8 -0.2 7.3 -1 0.4 -1 0.7 0 1.8 0.6 0.7 1.2 3.7 1.2 6.6 0 5 -0.1 5.3 -2.4 5.1 -1.9 -0.2 -2.7 -1.1 -3.7 -4.3z m1.5 -3.9 c-0.3 -1.5 -0.8 -2.5 -1.1 -2.3 -0.2 0.3 -0.1 1.7 0.3 3.1 0.3 1.5 0.8 2.5 1.1 2.3 0.2 -0.3 0.1 -1.7 -0.3 -3.1z"/>
  <path d="M370 121 c0 -3.8 0.2 -4 3 -4 2.8 0 3 0.2 3 4 0 3.8 -0.2 4 -3 4 -2.8 0 -3 -0.2 -3 -4z"/>
  <path d="M120 116.7 c0 -1.9 0.3 -3.7 0.7 -4.1 0.4 -0.4 0.8 -1.7 0.8 -2.9 0.3 -6.6 0.6 -7.8 1.4 -7.3 0.5 0.3 1.2 -0.1 1.5 -1 0.9 -2.2 0.8 -2.6 -0.5 -1.8 -0.7 0.4 -0.9 0 -0.6 -1.2 0.3 -1.1 1.1 -3.8 1.8 -6.1 0.7 -2.3 1.5 -4 2 -3.8 0.4 0.3 0.5 -0.4 0.2 -1.5 -0.3 -1.2 0.1 -2.2 1.1 -2.6 1 -0.4 1.6 -1.8 1.6 -3.5 0 -3 1.4 -3.9 2.4 -1.6 0.3 0.6 0.3 0.1 0 -1.2 -0.5 -1.8 -0.3 -2.2 0.7 -1.5 1.1 0.6 1.2 0.5 0.2 -0.7 -1 -1.3 -0.9 -2 0.9 -3.8 1.8 -2.1 2.2 -2.1 3 -0.7 1.5 2.7 2.2 11.6 0.9 11.6 -0.6 0 -1.1 1.7 -1.1 4 0 3.8 -0.2 4 -3 4 -3 0 -3 0.1 -3.1 5.8 -0.1 3.1 0 6.6 0.1 7.6 0.1 1.1 -0.1 3.9 -0.5 6.3 -0.5 3.7 -1 4.3 -3 4.3 -1.8 0 -2.6 0.7 -3.1 2.5 -0.4 1.6 -1.3 2.5 -2.5 2.5 -1.5 0 -1.9 -0.7 -1.9 -3.3z"/>
  <path d="M365 102.5 l0 -11.5 -4 0 -4 0 0 -11 c0 -7.1 0.4 -11 1.1 -11 1.8 0 4.9 2 4.9 3.2 0 0.6 -0.6 0.5 -1.7 -0.3 -0.9 -0.8 -0.3 0.6 1.3 3.1 1.6 2.5 3.2 4.8 3.7 5.1 1.4 1 5.6 15.4 4.6 15.7 -1.5 0.6 -1 3.1 1 5.1 2.1 2.1 4 9.8 2.1 8.6 -0.6 -0.4 -1.1 -0.1 -0.9 0.6 0.4 3.3 -0.2 3.9 -4.1 3.9 l-4 0 0 -11.5z"/>
  <path d="M349.5 63 c-0.5 -3.1 -1.1 -4 -2.7 -4 -2.5 0 -5.8 -3.6 -5.8 -6.2 0 -1 -0.6 -1.8 -1.4 -1.8 -1 0 -1.3 -1.6 -1.2 -6.1 l0 -6.2 6.2 6.8 c3.9 4.3 6 7.4 5.6 8.3 -0.3 1 -0.1 1.3 0.6 0.8 0.7 -0.4 1.5 0 1.9 1.1 0.4 1 1.4 2.3 2.2 3 1.1 0.8 1.2 1.2 0.4 1.3 -0.7 0 -1.3 0.4 -1.3 1 0 0.5 0.6 0.7 1.3 0.5 0.8 -0.3 1.3 0.6 1.4 2.5 0.2 2.8 0 3 -3.2 3 -3.1 0 -3.4 -0.3 -4 -4z m-1.1 -8.3 c0.4 0.4 0.4 0 0 -1 -0.3 -0.9 -1.1 -1.7 -1.6 -1.7 -0.6 0 -0.8 -0.6 -0.5 -1.3 0.3 -0.8 0 -1.4 -0.7 -1.4 -0.6 0 -1.2 0.8 -1.2 1.8 0 1 0.3 1.7 0.6 1.6 0.3 -0.1 0.5 0.3 0.5 0.8 0 0.6 -0.4 0.9 -0.8 0.7 -0.5 -0.1 -0.6 0.2 -0.2 0.8 0.5 0.8 1.1 0.8 1.9 0.1 0.7 -0.6 1.6 -0.8 2 -0.4z"/>
  <path d="M139.8 64.3 c-0.5 -2 1.1 -6.3 2.2 -6.3 0.4 0 1 -1 1.4 -2.2 0.5 -2 0.8 -2.1 1.7 -0.8 0.9 1.2 1 1 0.6 -0.8 -0.4 -1.7 0 -2.6 1.8 -3.4 1.3 -0.6 2.1 -1.6 1.9 -2.2 -0.2 -0.6 1.6 -3 4 -5.4 6 -5.9 9.6 -5.3 9.6 1.6 0 2.9 -0.3 3.3 -2.2 3 -1.4 -0.2 -2.2 -0.9 -2 -1.8 0.3 -1.2 0.1 -1.3 -0.9 -0.2 -2.8 2.7 -3.1 1 -0.3 -2 l2.9 -3.3 -3.8 3.4 c-2 1.9 -3.7 3.6 -3.7 3.7 0 0.1 1.1 0.1 2.5 -0.1 2.7 -0.3 3.4 0.9 1 1.9 -0.8 0.3 -1.5 1.6 -1.5 2.8 0 5.3 -1.1 6.8 -4.6 6.8 -3.2 0 -3.4 0.2 -3.4 3.5 0 3.3 -0.2 3.5 -3.4 3.5 -2.5 0 -3.6 -0.5 -3.8 -1.7z m8.7 -10.3 c-0.3 -0.5 -0.1 -1 0.5 -1 0.6 0 0.8 -0.5 0.4 -1.2 -0.6 -0.9 -0.9 -0.9 -1.2 0 -0.2 0.7 -0.9 0.9 -1.5 0.5 -0.7 -0.4 -0.6 0.1 0.2 1 1.5 1.8 2.6 2.3 1.6 0.7z"/>
  <path d="M326 38.6 c0 -3.5 1.9 -5.3 3.7 -3.5 0.7 0.7 1.2 0.5 1.6 -0.4 0.5 -1.2 -0.2 -1.4 -3.3 -1.1 -3.8 0.5 -3.8 0.5 -3.7 -3.1 0.1 -4.2 0.9 -4.4 3.7 -0.7 1.2 1.5 2.5 2.7 2.8 2.7 1.1 0 6.2 4.8 6.2 5.7 0 0.4 -0.5 0.8 -1.1 0.8 -0.5 0 -0.8 -0.4 -0.4 -0.9 0.3 -0.5 0.1 -1.2 -0.4 -1.5 -2 -1.2 -2.1 1.3 -0.1 2.7 2.7 1.9 1.5 2.7 -4.2 2.7 -4.8 0 -4.8 0 -4.8 -3.4z"/>
  <path d="M159.3 37.5 c-0.4 -0.5 -0.3 -0.7 0.2 -0.3 0.4 0.4 1.7 0.3 2.8 -0.3 1.4 -0.8 1.8 -0.8 1.3 0 -0.4 0.6 -0.2 1.1 0.3 1.1 1.3 0 1.3 -0.3 0.5 -2.4 -0.3 -0.9 -1.1 -1.3 -1.8 -0.9 -0.6 0.4 -0.5 -0.1 0.3 -1 0.7 -0.9 1.7 -1.4 2.2 -1.2 0.4 0.3 1.2 -0.2 1.7 -1 0.7 -1.3 1.4 -1.4 3.5 -0.6 3.3 1.3 3.4 2.3 0.4 5.3 -1.7 1.7 -3.5 2.3 -6.6 2.3 -2.3 0.1 -4.5 -0.4 -4.8 -1z"/>
  <path d="M172.3 30.7 c-0.4 -0.6 0 -0.8 1 -0.4 1 0.4 1.7 0.2 1.7 -0.5 0 -0.6 -1.1 -0.8 -3 -0.5 -2.3 0.5 -2.8 0.3 -2.4 -0.8 0.4 -1 1.5 -1.3 3.3 -1 2.2 0.5 2.3 0.4 0.6 -0.4 -1.9 -0.9 -1.8 -1.2 0.5 -1.5 0.6 0 1.5 -0.8 2 -1.6 0.5 -0.8 1 -1 1 -0.5 0 0.6 0.5 0.2 1.1 -0.7 0.5 -1 1.8 -1.8 2.7 -1.8 1.5 0 1.5 0.2 0.2 1.1 -1.3 0.9 -1.3 1 0 0.6 0.8 -0.2 1.4 -1.1 1.2 -2.1 -0.2 -1 0.4 -1.6 1.6 -1.6 1.1 0 2.5 -0.7 3.2 -1.5 2.2 -2.7 9.3 -5.4 11.2 -4.4 2.2 1.2 2.8 1.1 2.8 -0.2 0 -0.5 -0.4 -0.8 -0.9 -0.4 -0.5 0.3 -1.2 0.2 -1.5 -0.3 -0.3 -0.5 2.7 -1.9 6.7 -3.2 9.6 -3.2 10.3 -3.3 10.4 -1 0.1 1.5 -0.5 2 -2.3 2 -2 0 -2.4 0.5 -2.4 2.8 0 4.4 -1.2 5.1 -8.8 5.8 l-7.2 0.7 0 3.2 0 3.2 -8 0.7 c-7.5 0.7 -8 0.9 -8 3.1 0 2 -0.5 2.4 -3 2.3 -1.7 -0.1 -3.4 -0.6 -3.7 -1.1z m15.5 -8.6 c1 -0.6 1 -1 -0.3 -2.1 -1.3 -1.1 -1.5 -1 -0.9 0.3 0.3 1 -0.1 1.7 -1.3 2 -1.2 0.3 -1.3 0.5 -0.3 0.6 0.8 0 2.1 -0.3 2.8 -0.8z"/>
  <path d="M312.2 24.5 c0.2 -1.6 0.7 -2.4 1.5 -2.1 0.7 0.3 1.5 0.1 1.8 -0.5 0.8 -1.2 6.5 2.1 6.5 3.8 0 0.9 -1.6 1.3 -5 1.3 -4.7 0 -5 -0.1 -4.8 -2.5z"/>
  <path d="M306.7 22.6 c-0.2 -0.6 -1.6 -1 -3 -0.8 -1.7 0.1 -2.7 -0.3 -2.7 -1.2 0 -1.9 -2.7 -2.8 -6.6 -2 -1.9 0.3 -4.5 0.3 -5.9 0 -2.1 -0.5 -2.5 -1.2 -2.5 -4.1 l0 -3.5 -33.5 0 -33.5 0 0 -2.5 c0 -1.4 0.5 -2.5 1.1 -2.5 0.5 0 0.7 -0.5 0.3 -1.1 -0.4 -0.7 0.4 -1 2.2 -0.8 1.6 0.2 3.6 -0.1 4.4 -0.6 0.8 -0.5 4.5 -1 8.2 -1.2 3.8 -0.1 7.2 -0.5 7.8 -0.8 1.3 -0.8 12 -0.4 12 0.5 0 0.3 1.6 0.4 3.5 0.2 1.9 -0.2 5.8 0.2 8.7 0.9 2.9 0.7 6.1 1.2 7 1 1.3 -0.1 1.6 0.2 1.2 1.3 -0.3 0.9 -0.1 1.6 0.5 1.6 0.6 0 1.1 -0.4 1.1 -1 0 -0.5 0.7 -1 1.5 -1 0.8 0 1.5 0.5 1.5 1.1 0 0.5 0.5 0.7 1 0.4 1.3 -0.8 14 3.5 14 4.7 0 0.5 0.4 0.7 0.9 0.3 1.4 -0.8 6.1 1.6 5.4 2.8 -0.3 0.5 0 0.7 0.8 0.5 1.5 -0.6 12.9 5.2 12.9 6.5 0 0.4 -1 0.3 -2.1 -0.4 -1.5 -0.8 -1.9 -0.8 -1.5 0 0.4 0.6 0.1 1.1 -0.6 1.1 -0.9 0 -0.9 0.3 0.2 1 1.1 0.8 0.9 0.9 -1.2 0.8 -1.5 -0.1 -2.9 -0.7 -3.1 -1.2z"/>
 </g>
 <g fill="#ffffff">
  <path d="M239.8 501.3 c-5.6 -0.2 -9.8 -0.8 -9.8 -1.4 0 -0.6 -0.7 -0.6 -1.9 0.1 -1.1 0.5 -3 0.9 -4.3 0.9 -2 -0.1 -2.1 -0.2 -0.3 -0.6 2 -0.5 3.5 -2 3.5 -3.7 0 -0.5 -0.8 -0.2 -1.8 0.7 -1 1 -2.4 1.7 -3 1.7 -0.7 0 -1.2 0.4 -1.2 1 0 0.8 -5.7 0.9 -14.8 0.1 -0.7 -0.1 -1 -0.5 -0.7 -1.1 0.3 -0.5 0.1 -1 -0.4 -1 -0.6 0 -1.1 0.5 -1.1 1 0 0.6 -0.4 1 -1 1 -0.5 0 -1 -0.7 -1 -1.5 0 -0.8 0.5 -1.5 1.2 -1.5 0.6 0 0.9 -0.2 0.6 -0.5 -0.3 -0.3 -2 0.2 -3.9 1 -1.9 0.9 -2.4 1.4 -1.1 1.1 1.2 -0.2 2.2 0 2.2 0.5 0 1 -2.9 1.1 -8.3 0.2 -2.6 -0.4 -3.4 -0.9 -2.5 -1.4 0.9 -0.6 0.6 -0.9 -1 -0.9 -1.4 0 -2.1 0.4 -1.7 1.1 0.5 0.7 -1.5 0.9 -5.9 0.8 -3.6 -0.1 -6.3 -0.6 -6 -1.1 0.3 -0.5 -0.6 -0.6 -2 -0.2 -1.6 0.4 -3.2 0.1 -4.1 -0.6 -1.2 -1 -1.5 -1 -1.5 0 0 0.9 -1.2 1.1 -4.7 0.6 -2.7 -0.4 -8.6 -0.9 -13.3 -1.2 -4.7 -0.2 -9.2 -0.8 -10 -1.1 -0.8 -0.4 -3.5 -0.7 -5.8 -0.7 -3 -0.1 -4.7 -0.7 -5.3 -1.9 -1.1 -1.9 -2.9 -2.3 -2.9 -0.6 0 0.5 0.5 0.7 1 0.4 0.6 -0.3 1 -0.1 1 0.4 0 1.4 -4.7 1.4 -5.5 0.1 -0.4 -0.6 -1.5 -0.8 -2.6 -0.5 -2.6 0.9 -10.1 -0.4 -9.3 -1.6 0.3 -0.5 1.4 -0.9 2.4 -0.9 1 0 2.1 -0.3 2.4 -0.8 0.2 -0.4 -1.3 -0.7 -3.4 -0.7 -2.2 0 -3.3 0.3 -2.7 0.7 1.3 0.8 1.2 0.9 -6.1 1.3 -2.7 0.2 -4.8 -0.2 -5.7 -1.1 -0.9 -0.9 -1.6 -1.1 -2 -0.4 -0.4 0.6 -1.6 0.8 -2.8 0.4 -1.2 -0.4 -3.3 -0.8 -4.7 -1 -1.4 -0.1 -5 -0.6 -8 -1 -3 -0.4 -5.9 -0.8 -6.5 -0.8 -0.5 -0.1 -0.9 -1 -0.7 -2.1 0.2 -1.8 0.2 -1.9 -0.8 -0.2 -0.6 0.9 -1.8 1.7 -2.6 1.7 -0.9 0 -1.2 -0.5 -0.8 -1.1 0.4 -0.8 -0.4 -0.9 -2.7 -0.5 -2.5 0.4 -2.9 0.4 -1.4 -0.3 l2 -1 -2 -0.1 c-1.1 0 -2.9 -0.7 -3.9 -1.5 -1.5 -1.1 -2.3 -1.2 -3.3 -0.3 -1.6 1.3 -6.3 1.8 -6.3 0.6 0 -0.4 -1.5 -0.5 -3.2 -0.2 -2.7 0.5 -3 0.3 -1.8 -0.6 1.2 -1 1.1 -1.1 -0.9 -0.6 -3.5 0.7 -21.4 -3.2 -22.4 -4.9 -0.4 -0.8 -1.6 -1.5 -2.5 -1.5 -1.5 0 -1.5 0.2 -0.2 1 1.3 0.8 1.2 1 -0.3 1 -2.4 0 -1.7 -2.4 0.8 -2.9 1 -0.2 2.5 0.5 3.2 1.5 0.7 1 1.3 1.3 1.3 0.8 0 -3.2 -7.2 -4.8 -8.4 -1.9 -0.3 0.8 -1.2 1.2 -2 0.9 -0.8 -0.3 -1.3 -1.1 -1 -1.9 0.3 -0.7 -0.2 -1.5 -1 -1.8 -0.9 -0.4 -1.6 -0.1 -1.6 0.5 0 0.6 -0.9 0.3 -2 -0.7 -1.1 -1 -1.7 -2.2 -1.4 -2.6 0.3 -0.5 0 -0.9 -0.6 -0.9 -0.7 0 -0.9 -0.8 -0.5 -2 0.4 -1.2 0.1 -2.7 -0.5 -3.5 -0.9 -1.1 -0.9 -1.8 0.4 -3 0.9 -0.9 1.6 -1.9 1.6 -2.2 0 -0.4 -0.2 -0.4 -0.5 -0.1 -0.6 0.6 -6.5 -4.2 -6.5 -5.3 0 -0.4 1 -0.5 2.3 -0.3 l2.2 0.5 -2.2 -1.2 c-2.4 -1.2 -3.2 -3.1 -1.2 -2.7 0.6 0.2 1.4 -0.3 1.7 -1.1 0.3 -0.8 0 -1.1 -0.7 -0.7 -1.3 0.8 -1.5 -4.3 -0.5 -11.8 0.5 -3.4 1 -4.4 1.6 -3.4 0.7 0.9 0.8 0.6 0.4 -1.1 -0.3 -1.3 0 -3.3 0.6 -4.4 0.7 -1.4 0.7 -1.7 -0.1 -1.3 -1.1 0.7 -0.9 -1.6 1 -9.9 0.5 -2.2 1.2 -5.3 1.4 -6.9 0.7 -4.3 3.6 -13.9 4.6 -15.2 0.5 -0.6 0.5 -1.5 0.1 -1.9 -0.4 -0.5 -0.1 -0.5 0.6 -0.1 0.7 0.4 0.9 1.3 0.6 1.9 -0.5 0.8 -0.2 0.8 0.7 -0.1 0.7 -0.6 1.4 -3.3 1.5 -6 0.2 -5.1 1.2 -8.1 4.3 -12.6 1 -1.6 1.7 -3.5 1.4 -4.2 -0.3 -0.8 0.2 -1.7 1.1 -2 0.9 -0.3 1.4 -1 1.1 -1.4 -0.7 -1.2 5.7 -12 6.7 -11.3 0.5 0.3 0.8 -0.2 0.6 -1.1 -0.2 -0.9 0.7 -2.2 2.1 -2.9 1.4 -0.6 2.6 -1.9 2.8 -2.7 0.3 -1 -0.1 -0.8 -1.1 0.4 -0.9 1.1 -1.8 1.7 -2.1 1.5 -0.3 -0.3 0.4 -1.5 1.5 -2.7 1.1 -1.2 2 -2.6 2 -3.2 0 -0.6 1 -1.5 2.3 -2 1.2 -0.5 1.6 -0.9 0.8 -0.9 -1 -0.1 -0.5 -1.1 1.3 -3 2.2 -2.3 3.3 -2.8 5 -2.1 1.7 0.6 2.2 0.4 2.2 -0.9 0 -1 -0.6 -1.8 -1.3 -1.8 -0.7 0 -1 0.4 -0.7 0.9 0.3 0.4 0 0.8 -0.5 0.8 -2.2 0 -1 -3 1.9 -5.2 1.7 -1.2 3 -2.7 3 -3.3 0 -0.7 0.9 -2 1.9 -2.9 1.4 -1.3 2.1 -1.4 2.7 -0.5 0.4 0.8 0.3 1 -0.5 0.5 -0.7 -0.5 -1 -0.2 -0.9 0.6 0.2 0.7 -0.2 1.2 -0.8 1.1 -0.6 -0.1 -1.1 0.5 -1.1 1.3 0 0.7 0.4 1.4 0.8 1.4 0.4 0 1.6 0.3 2.6 0.6 1.7 0.5 1.7 0.5 0 -0.6 -0.9 -0.6 -1.5 -1.6 -1.1 -2.2 0.4 -0.7 0.9 -0.6 1.5 0.3 0.5 0.8 0.7 -0.3 0.6 -2.6 -0.2 -3.1 0.1 -3.9 1.3 -3.6 3.9 1 6.3 0.5 6.6 -1.3 0.1 -1.1 -0.1 -2.7 -0.6 -3.7 -0.7 -1.2 -0.4 -2.2 1.2 -3.5 1.2 -1.1 1.8 -1.3 1.4 -0.6 -0.4 0.6 -0.2 1.2 0.3 1.2 0.6 0 1.1 -0.9 1.1 -1.9 0 -1.8 2.5 -3.6 4.3 -3.2 0.5 0.1 0.6 -0.3 0.3 -0.8 -0.7 -1.1 1.8 -3.3 2.8 -2.4 0.8 0.9 4.6 1.2 4.7 0.4 0.7 -5.5 2.8 -8.2 7.4 -9.7 1.1 -0.4 2.5 -1.4 3.2 -2.3 1.1 -1.4 1.2 -1.4 1.3 0.2 0 1 -1.1 2.2 -2.5 2.7 -1.4 0.5 -2.5 1.1 -2.5 1.3 0 0.9 7.2 -0.1 8.3 -1.2 0.9 -1 0.9 -1.1 -0.4 -0.6 -1.2 0.5 -1.6 0 -1.4 -2.2 0 -1.5 0.5 -2.6 1.1 -2.3 0.5 0.3 0.8 1.1 0.8 1.8 -0.1 0.6 0.3 1.2 0.8 1.2 0.6 0 0.8 -0.9 0.5 -2 -0.6 -2.4 3.6 -6.2 5.9 -5.3 0.8 0.3 1.4 0.7 1.4 1 0 0.3 -0.7 0.2 -1.6 -0.1 -0.9 -0.3 -1.2 -0.2 -0.9 0.5 0.4 0.5 1.2 0.8 1.8 0.6 0.7 -0.2 1.9 0 2.9 0.4 1.7 0.9 3.3 -1.4 2.2 -3.2 -0.3 -0.5 0 -0.9 0.5 -0.9 0.6 0 1.1 0.5 1.1 1.2 0 0.8 0.6 0.6 1.7 -0.5 1.3 -1.3 1.4 -2 0.5 -2.9 -0.9 -0.9 -1.6 -0.7 -3.1 0.6 -1.1 1 -1.9 2.3 -1.8 2.8 0.1 0.6 -0.4 1.3 -1.2 1.6 -0.9 0.3 -1.1 0 -0.7 -0.7 0.4 -0.6 0.4 -1.1 -0.1 -1 -2.7 0.5 -2.3 -0.4 1.2 -2.5 2.2 -1.4 5.1 -2.3 6.5 -2.2 1.4 0.2 1.8 0.1 1 -0.1 -0.8 -0.3 1.2 -1.8 4.9 -3.5 3.5 -1.6 6.5 -2.7 6.8 -2.4 0.3 0.3 -0.5 1 -1.8 1.6 -2.2 1 -2.1 1 0.8 0.6 1.9 -0.3 3.3 -0.1 3.7 0.7 0.2 0.7 0.5 0.4 0.5 -0.5 0.1 -1 -0.3 -1.8 -0.9 -1.8 -0.5 0 -1 -0.4 -1 -1 0 -1.2 13.8 -5.5 14.8 -4.6 0.3 0.4 -0.4 0.9 -1.6 1.3 -2.9 0.7 -2.8 1.8 0.2 1.8 1.3 0 2.2 -0.5 1.9 -1.1 -0.5 -1.4 2.3 -4.4 4.2 -4.4 0.7 0 2.1 -0.3 3.1 -0.7 1.2 -0.4 1.5 -0.3 1 0.5 -0.4 0.7 -1.6 1.2 -2.7 1.2 -1.1 0 -1.9 0.7 -1.9 1.8 0 1.4 -0.2 1.5 -1 0.2 -0.8 -1.3 -1 -1.2 -1 0.4 0 1.5 0.5 1.7 2.6 1.2 1.7 -0.5 2.3 -0.3 1.9 0.4 -0.7 1.2 0.2 1.2 3 0 1.9 -0.8 1.9 -0.9 -0.2 -0.9 -1.2 -0.1 -2.5 -0.6 -2.9 -1.2 -0.5 -0.8 0.1 -1 1.8 -0.6 2.3 0.6 2.5 0.4 2 -1.8 -0.4 -2.1 0 -2.5 1.9 -2.6 2.8 -0.1 5.1 -0.4 9.6 -1.3 2.6 -0.5 3.5 -0.2 4.5 1.4 0.7 1.1 1.7 2 2.1 2 1.4 0 6.6 4.7 6 5.4 -0.6 0.5 1.1 1 2.8 0.8 0.4 -0.1 2 1.1 3.5 2.5 1.6 1.5 3.1 2.6 3.4 2.5 1.1 -0.4 4 1 3.6 1.7 -0.3 0.4 0.1 0.8 0.8 0.8 2.3 0 7.6 2.5 7.6 3.5 0 0.6 0.7 0.7 1.6 0.4 1 -0.4 1.3 -0.2 0.8 0.6 -0.5 0.8 -0.2 0.9 1.1 0.4 1.5 -0.5 1.6 -0.4 0.5 0.9 -0.7 0.9 -1 1.8 -0.6 2.2 0.3 0.3 0.6 0.1 0.6 -0.6 0 -0.8 0.6 -1.1 1.6 -0.7 1 0.4 1.3 0.2 0.8 -0.6 -0.5 -0.8 -0.2 -0.9 1 -0.5 1 0.4 2.1 0.7 2.4 0.7 0.4 0 0.1 0.4 -0.5 0.8 -0.8 0.5 0.1 0.8 2.3 0.9 6.1 0.2 11.6 3.3 8.2 4.6 -1 0.4 -1 0.6 -0.1 0.6 0.6 0.1 1.5 -0.3 1.8 -0.9 0.3 -0.5 2.2 -1 4.1 -1 1.9 0 3.3 0.4 3 0.9 -0.4 0.5 0.7 1.2 2.4 1.6 1.6 0.4 3 1.1 3 1.6 0 0.5 0.8 0.9 1.8 0.9 1.2 0 0.9 -0.6 -1.3 -2.1 -2.8 -1.9 -2.8 -2 -0.5 -1.4 1.4 0.4 4.8 0.7 7.5 0.6 4.4 -0.2 4.8 0 3.2 1.2 -1.7 1.2 -1.4 1.3 2.7 1.2 2.6 -0.1 5 -0.5 5.4 -1 0.4 -0.4 -0.8 -0.4 -2.5 0 -2.1 0.4 -3.3 0.3 -3.3 -0.4 0 -1.7 6.9 -1.3 8.6 0.4 0.9 0.8 2.3 1.5 3.2 1.4 1.2 0 1.1 -0.3 -0.5 -0.9 -3.9 -1.6 -2.6 -1.9 5.4 -1.5 5.2 0.2 7.2 0 6.2 -0.6 -1 -0.7 -0.5 -0.8 1.5 -0.3 2.1 0.5 2.7 0.4 2.2 -0.5 -0.5 -0.7 0.1 -1.1 1.6 -1.2 5.3 -0.1 10.3 -1.1 10.8 -2 0.4 -0.5 2 -1.1 3.7 -1.2 1.7 -0.1 2.9 -0.5 2.7 -0.8 -0.4 -0.7 4.5 -2.4 6 -2 0.5 0.1 1.6 -0.5 2.5 -1.3 1.4 -1.3 8.5 -4.8 10.1 -5 0.3 -0.1 2.1 -1.3 4 -2.7 5.1 -3.8 6.5 -4.5 5.6 -2.8 -0.4 0.8 0.1 0.4 1.2 -0.8 2.1 -2.4 3.8 -3.1 2.6 -1.1 -0.4 0.7 -0.3 0.8 0.5 0.4 0.6 -0.4 0.9 -1.1 0.6 -1.5 -0.6 -1.1 3 -4.3 3.8 -3.4 1.2 1.1 0.8 2.5 -0.6 2 -0.7 -0.3 -1.3 0.2 -1.3 1.2 0 0.9 0.8 1.7 1.7 1.7 1.2 0 1.5 -0.8 1.3 -3.2 -0.3 -4.3 2.7 -7.4 5.3 -5.3 1.1 0.9 1.4 1 0.9 0.2 -0.5 -0.9 -0.2 -1.1 0.8 -0.7 0.9 0.3 1.6 1 1.6 1.4 0 0.4 2.1 0.5 4.6 0.2 2.7 -0.3 4.5 -0.1 4.2 0.4 -0.4 0.5 1 1 2.9 1.1 1.9 0.1 3.7 0.4 4 0.7 1 1 -0.9 2.6 -3 2.6 -1.8 0 -1.9 -0.2 -0.7 -1 1.3 -0.9 1.3 -1 0 -1 -0.8 0 -2.1 0.4 -2.8 0.9 -2.4 1.5 3.5 2.3 7.9 1.1 4.2 -1.2 5.9 -0.7 5.9 1.6 0 1.6 1.6 1.9 2.5 0.4 0.3 -0.5 1.4 -1 2.3 -1 1.5 0 1.5 0.2 0.2 1.1 -1.2 0.8 -1 0.9 0.8 0.4 1.3 -0.4 3 -0.1 3.9 0.7 0.9 0.7 1.8 1.2 1.9 1.1 0.5 -0.3 3 0.6 7.9 2.7 2.2 1 4.8 2 5.8 2.4 1.2 0.4 1.5 1 1 1.8 -0.4 0.7 -0.8 2.7 -0.8 4.5 -0.1 2.9 0.1 3 2 2.1 3.1 -1.7 3.6 -3.1 1.7 -5.1 -1.7 -1.9 -1.6 -1.9 2 -0.1 2 0.9 3.5 2.1 3.2 2.6 -0.3 0.4 -1 0.5 -1.6 0.2 -0.6 -0.4 -0.8 -0.2 -0.4 0.4 0.3 0.5 0 1.3 -0.6 1.5 -1 0.4 -1 0.6 0 0.6 0.7 0.1 2 -0.6 2.8 -1.4 0.8 -0.8 2.1 -1.2 2.9 -0.9 2.3 0.9 1.8 2.6 -0.5 1.9 -1.1 -0.3 -2 -0.2 -2 0.3 0 0.5 1.6 0.9 3.5 0.7 2.8 -0.1 3.5 0.1 3 1.3 -0.4 1.2 -0.3 1.2 0.9 0.3 1.1 -0.9 1.6 -0.9 2.2 0 0.5 0.8 0.3 0.9 -0.6 0.4 -0.8 -0.5 -1.1 -0.4 -0.6 0.3 0.4 0.6 1.2 0.9 1.9 0.6 0.7 -0.2 2.2 0.5 3.2 1.6 l1.8 2 -4.3 -1.5 c-4.7 -1.6 -6 -1.4 -4.1 0.9 0.9 1.1 0.9 1.5 -0.1 1.8 -0.7 0.3 0.2 0.5 2 0.5 3.3 0 3.4 0 1 -1.4 -2.2 -1.4 -2.2 -1.4 0.7 -0.7 1.7 0.4 3.8 0.6 4.9 0.6 2.5 -0.1 8.9 4.3 9.2 6.3 0.1 1 -0.3 1.5 -1 1.2 -0.7 -0.3 -1.3 0 -1.3 0.7 0 1.3 4.1 1.6 5.3 0.3 0.5 -0.4 0 -0.5 -1.1 -0.1 -1.7 0.6 -1.8 0.5 -0.7 -0.7 1 -1.1 1.6 -0.9 3.7 1.3 1.3 1.4 2.1 2.9 1.7 3.2 -0.3 0.4 -0.7 1.4 -0.8 2.2 -0.1 0.9 0 1.3 0.3 1 0.3 -0.3 1.2 0.2 2 1.2 0.8 0.9 1.2 1.2 0.9 0.6 -0.9 -1.9 1.9 -3.7 3.3 -2.1 0.6 0.8 0.8 1.7 0.4 2 -0.3 0.4 0 0.7 0.8 0.7 2.4 0 11.3 9.6 9.8 10.5 -0.7 0.5 -1 0.4 -0.5 -0.3 0.3 -0.6 0.3 -1.3 -0.2 -1.6 -0.4 -0.2 -0.8 0.8 -0.7 2.3 0 2.1 0.4 2.7 1.5 2.3 1.2 -0.5 1.3 -0.3 0.3 0.9 -0.9 1.1 -0.6 1.4 1.7 1.4 l2.9 0 -2.7 -2.2 c-2.3 -1.9 -2.4 -2.2 -0.8 -2.3 1.1 0 1.7 0.3 1.3 0.6 -0.3 0.3 1 1.9 2.9 3.6 1.9 1.7 3.4 3.5 3.4 4.1 0 0.6 -0.6 0.3 -1.3 -0.7 -1.2 -1.6 -1.3 -1.5 -1.1 1.1 0.2 4 0.2 4 2.7 3.8 3.1 -0.3 4.7 0.5 4.7 2.1 0 0.8 0.4 1.4 0.8 1.4 0.5 0 1.5 1.2 2.3 2.8 0.8 1.5 2.2 3.6 3.1 4.6 1 1.1 1.5 2.2 1.2 2.5 -0.4 0.3 -0.9 0 -1.1 -0.6 -0.3 -0.7 -0.9 -1.3 -1.4 -1.3 -1.6 0 0.1 2.1 2.4 3 3 1.1 9.1 12.8 9.6 18.3 0.1 0.5 0.5 0.6 0.9 0.3 0.4 -0.2 0.9 0.4 0.9 1.5 0.1 1.1 -0.2 1.7 -0.8 1.4 -0.5 -0.4 -0.9 -0.2 -0.9 0.4 0 0.5 0.5 1.3 1 1.6 0.6 0.3 1 0.1 1 -0.4 0 -0.6 0.5 -1.1 1.1 -1.1 0.6 0 0.9 0.9 0.6 2 -0.3 1.1 -0.1 1.8 0.4 1.5 1.2 -0.8 3.9 6.2 3.2 8.2 -0.4 1.1 -0.3 1.4 0.5 0.9 0.7 -0.4 1.2 -0.3 1.2 0.3 0 0.5 -0.4 1.3 -1 1.6 -1.8 1.1 -1.1 4.4 1.3 5.6 2.3 1.2 3.7 2.8 3.7 4.2 0 0.5 -0.4 0.5 -1 0.2 -1.6 -1 -1.2 0.3 1 3.3 1.3 1.7 2.2 4.6 2.3 7.4 0.1 2.5 0.5 4.4 0.8 4.2 0.4 -0.2 0.9 1 1.1 2.6 0.3 1.8 0 3 -0.7 3 -1.5 0 -1.4 4.2 0.1 5.7 1 1 1.3 0.9 1.7 -0.5 0.4 -1.7 0.5 -0.7 1 9.8 0.1 3 0.7 5.9 1.2 6.3 0.6 0.6 0.6 1 -0.2 1.4 -0.7 0.2 -1.3 1.4 -1.2 2.6 0 2.1 0.1 2.1 0.8 0.2 0.6 -1.4 0.9 -0.2 0.9 3.8 0.1 3.1 -0.3 5.7 -0.7 5.7 -0.5 0 -1.1 1.1 -1.3 2.5 -0.4 2 -0.3 2.3 0.8 1.4 1.1 -0.9 1.4 -0.7 1.4 1.1 0 3.2 -3.8 9.6 -6.6 11.1 -1.3 0.7 -2.4 1.6 -2.4 2.1 0 0.5 0.5 0.6 1.2 0.2 0.7 -0.4 0.8 -0.3 0.4 0.4 -0.4 0.7 -1.3 1.2 -2 1.2 -0.8 0 -1.9 0.6 -2.6 1.4 -1.2 1.5 -4.4 1.1 -3.5 -0.4 0.3 -0.5 -0.6 -0.3 -2 0.3 l-2.4 1.2 2.2 0.7 c2 0.6 2 0.6 -0.5 0.7 -1.5 0.1 -3.9 0.6 -5.4 1.1 -3.3 1.3 -6.5 0.4 -5.7 -1.6 0.3 -0.9 2 -1.4 4.7 -1.5 l4.1 -0.1 -3.9 -0.8 c-3.1 -0.6 -4.2 -0.4 -5.7 1.1 -1 1 -1.4 2.1 -0.9 2.4 2.3 1.4 0.5 2.3 -7.6 4 -6.4 1.3 -8.8 1.5 -9.7 0.6 -1.3 -1.3 -4.4 -1.5 -5.1 -0.2 -0.3 0.4 0.7 0.6 2.2 0.4 2.2 -0.3 2.4 -0.2 0.7 0.5 -3.3 1.5 -8.5 2.2 -8.5 1.2 0 -0.4 -0.8 -1.1 -1.7 -1.4 -1 -0.3 0 -0.3 2.2 -0.1 3.5 0.4 3.7 0.3 1.5 -0.6 -2.8 -1.2 -8.2 -0.3 -6.1 1 1.1 0.7 1.1 1 0 1.5 -0.8 0.3 -0.3 0.3 1 0 1.6 -0.4 2.1 -0.3 1.6 0.5 -0.4 0.7 -2 0.9 -4.3 0.6 -2.8 -0.5 -3.3 -0.4 -2.2 0.4 1.2 0.8 0.5 1.1 -2.7 1.3 -2.4 0.1 -5.1 0.2 -6 0.2 -1 0.1 -2 0.4 -2.3 0.7 -0.3 0.4 -3 0.9 -6 1.3 -3 0.4 -6.8 0.9 -8.5 1.2 -7.1 1.2 -11.3 1.1 -15.8 -0.1 -2.6 -0.8 -4.5 -1 -4.3 -0.6 0.3 0.5 2 1.1 3.7 1.5 4.2 0.8 3.6 1.2 -3.1 1.9 -4 0.5 -4.9 0.4 -3.5 -0.4 1.6 -0.7 1.3 -0.8 -1.5 -0.4 -1.8 0.3 -3.8 1.1 -4.2 1.8 -0.6 0.9 -1.1 0.8 -1.9 -0.5 -1.2 -2.2 -3.1 -2.4 -2.3 -0.3 0.4 0.9 0 1.5 -1 1.5 -0.9 0 -1.6 -0.7 -1.6 -1.5 0 -0.8 -0.4 -1.5 -1 -1.5 -0.5 0 -1 0.9 -1 2 0 1.3 -0.7 2 -2 2 -2.3 0 -2.6 -1 -0.8 -2.8 0.9 -0.9 0.9 -1.2 0 -1.2 -0.7 0 -1.2 0.5 -1.2 1 0 0.6 -0.5 1 -1.1 1 -0.6 0 -1.6 0.6 -2.4 1.3 -1.4 1.4 -10.3 2.5 -18.7 2.3 -2.5 -0.1 -4.4 0.2 -4.1 0.7 0.2 0.4 -2.2 0.8 -5.4 0.9 -3.2 0.1 -8.5 0.3 -11.8 0.5 -3.3 0.2 -10.9 0.6 -17 0.8 -6 0.3 -13 0.7 -15.5 0.9 -3.1 0.3 -3.9 0.2 -2.5 -0.4 1.6 -0.7 1.7 -0.9 0.3 -0.9 -0.9 -0.1 -2.5 -0.4 -3.5 -0.8 -1.6 -0.6 -1.6 -0.5 -0.4 1 1.2 1.6 0.9 1.7 -4.3 1.7 -4.4 0 -5.6 -0.3 -5.6 -1.6 0 -0.8 -0.5 -1.2 -1 -0.9 -0.6 0.4 -0.8 1 -0.5 1.5 0.2 0.4 -1 0.7 -2.8 0.7 -1.7 0 -5.7 0.2 -8.7 0.5 -3 0.2 -9.9 0.3 -15.2 0.1z m-20.8 -2.5 c0 -0.5 -0.8 -0.8 -1.7 -0.8 -1.5 0 -1.5 -0.2 -0.4 -0.9 1 -0.7 0.6 -0.9 -1.3 -0.8 -2.3 0.2 -2.4 0.4 -1 1.4 1.4 1 1.3 1.2 -0.8 1.6 -1.3 0.2 -0.6 0.4 1.4 0.3 2.1 0 3.8 -0.4 3.8 -0.8z m72.5 -0.9 c0.4 -0.6 0.4 -1.3 0 -1.7 -0.4 -0.4 -1 -0.1 -1.2 0.6 -0.4 1 -0.8 1 -1.9 0.1 -1.2 -1 -1.3 -0.9 -0.8 0.5 0.7 1.8 2.9 2.1 3.9 0.5z m17.2 -0.7 c0.6 -0.4 -1.1 -0.7 -3.8 -0.7 -2.7 0 -4.9 0.3 -4.9 0.8 0 0.9 7.1 0.9 8.7 -0.1z m-175.7 -6.4 c-1.2 -1.1 -2.4 -1.8 -2.6 -1.5 -0.8 0.8 2.9 4.5 3.9 3.9 0.5 -0.2 -0.1 -1.3 -1.3 -2.4z m-11 0.2 c2.5 -0.8 2.5 -0.8 0.2 -0.9 -1.3 -0.1 -2 -0.5 -1.7 -1.1 0.3 -0.5 0.2 -1 -0.4 -1 -1.5 0 -2.4 2 -0.9 2.1 0.7 0.1 0 0.5 -1.7 0.9 -2.7 0.7 -2.7 0.8 -0.5 0.8 1.4 0 3.6 -0.4 5 -0.8z m255.4 -0.9 c1.9 -0.7 1.9 -0.8 -0.2 -1.3 -1.2 -0.4 -2 -0.2 -1.7 0.2 0.3 0.5 -0.5 1.1 -1.7 1.3 -1.9 0.4 -2 0.4 -0.3 0.5 1.1 0 2.9 -0.3 3.9 -0.7z m16.1 -1 c1.4 -0.6 0.7 -0.8 -2.5 -0.8 -3.2 0 -3.9 0.2 -2.5 0.8 1.1 0.4 2.2 0.8 2.5 0.8 0.3 0 1.4 -0.4 2.5 -0.8z m34.1 -6.8 c-1.4 -0.4 -1.6 -0.7 -0.6 -1.3 0.8 -0.5 0.3 -0.8 -1.4 -0.7 -2.4 0.2 -2.5 0.3 -0.9 1.5 0.9 0.6 2.4 1.1 3.2 1.1 1.1 -0.1 1 -0.3 -0.3 -0.6z m42.9 -6.3 c1.8 -0.8 1.7 -0.9 -0.7 -0.9 -1.6 -0.1 -2.8 0.4 -2.8 0.9 0 1.2 0.8 1.2 3.5 0z m-438.5 -2.4 c0 -0.2 -1.5 -0.6 -3.4 -0.8 -1.9 -0.2 -3.2 0 -3 0.4 0.5 0.8 6.4 1.2 6.4 0.4z m452.6 -8.3 c-0.4 -0.4 -1.4 0.1 -2.2 1.1 -2.2 3.1 -1.7 4.3 0.8 1.9 1.2 -1.3 1.8 -2.6 1.4 -3z m6.4 -3.4 c0 -0.6 -0.4 -0.7 -1 -0.4 -0.5 0.3 -1 0.1 -1 -0.6 0 -0.7 -0.2 -1 -0.5 -0.7 -0.9 0.8 0.6 3.8 1.6 3.2 0.5 -0.3 0.9 -1 0.9 -1.5z m-2 -7.4 c-0.6 -3 -0.8 -3.3 -0.9 -1.3 -0.1 2.5 0.8 6.2 1.4 5.6 0.2 -0.2 -0.1 -2.1 -0.5 -4.3z m-481.4 -7.7 c0 -1.3 -0.4 -2.6 -0.9 -2.9 -0.5 -0.4 -0.9 -1.8 -0.9 -3.2 0 -2 -0.3 -2.3 -1.3 -1.4 -0.7 0.7 -0.9 1.4 -0.4 1.5 0.5 0.2 1.2 2.1 1.5 4.3 0.7 4.2 2 5.3 2 1.7z m484.4 1 c0 -2 -1.8 -4.3 -2.7 -3.5 -0.4 0.5 -0.1 1.2 0.6 1.6 0.7 0.5 1 1.4 0.7 2 -0.4 0.6 -0.2 1.1 0.3 1.1 0.6 0 1.1 -0.6 1.1 -1.2z m-484.5 -30.4 c0.4 -2.8 0.2 -3.5 -0.5 -2.4 -1 1.5 -1.4 7.8 -0.5 6.8 0.3 -0.3 0.8 -2.3 1 -4.4z m8 -21.2 c0 -2.9 -0.4 -3.8 -1.7 -3.8 -2.2 0 -2.2 0.1 -0.2 2.1 2 2 1.1 3.3 -1.1 1.5 -2.4 -2 -1.8 0 0.7 2.1 1.1 1.1 2.2 1.9 2.2 1.9 0.1 0 0.1 -1.7 0.1 -3.8z m467.8 2.1 c-0.3 -0.7 -0.9 -1.3 -1.3 -1.3 -0.4 0 -1 0.6 -1.3 1.3 -0.3 0.7 0.3 1.3 1.3 1.3 1 0 1.6 -0.6 1.3 -1.3z m-6.3 -18.3 c0 -1.1 -0.4 -2 -1 -2 -0.5 0 -1 0.9 -1 2 0 1.1 0.5 2 1 2 0.6 0 1 -0.9 1 -2z m-453.6 -5.6 c0.3 -0.9 0.4 -2 0.1 -2.5 -0.3 -0.5 -0.1 -1.8 0.5 -2.9 1.8 -3.4 0.3 -2.2 -1.9 1.6 -2 3.3 -2 5.4 -0.1 5.4 0.4 0 1.1 -0.7 1.4 -1.6z m6.1 -15.6 c-0.6 -2.2 -0.5 -2.2 0.8 -0.5 1.4 1.7 1.5 1.7 1.3 -0.6 0 -1.3 -0.7 -2.4 -1.3 -2.4 -1.5 0 -2.7 3.2 -1.8 4.7 1.1 1.8 1.7 1.1 1 -1.2z m439 0.2 c-0.4 -0.6 -1.1 -0.8 -1.6 -0.5 -0.5 0.3 -0.6 -0.1 -0.3 -0.9 0.3 -0.9 0.1 -1.6 -0.5 -1.6 -0.6 0 -0.8 -0.8 -0.4 -1.7 0.4 -1.1 0.2 -1.5 -0.3 -1 -1.2 1.2 -1.1 5 0.1 5.9 1.5 1.1 3.7 0.9 3 -0.2z m-428.7 -10.1 c-0.1 -1.7 -0.4 -2.5 -0.8 -1.8 -0.7 1 -0.2 4.9 0.5 4.9 0.2 0 0.3 -1.4 0.3 -3.1z m420.8 1.2 c-0.9 -1 -1.4 -2.5 -1 -3.5 0.3 -0.9 0.1 -1.6 -0.5 -1.6 -0.6 0 -1.1 0.8 -1.2 1.8 0 1 -0.2 1.2 -0.6 0.4 -0.3 -0.7 -0.3 -1.8 0 -2.5 0.7 -2 0.7 -2.7 0 -2.7 -1.9 -0.1 -1.2 5.4 0.9 7.5 2.8 2.7 4.8 3.3 2.4 0.6z m-420.9 -6.6 c0 -2.2 -2.2 -1.1 -2.3 1.1 -0.1 1.8 0.1 2 1 1.1 0.7 -0.6 1.3 -1.6 1.3 -2.2z m395.9 -25.1 c-0.3 -0.8 0 -1.1 0.9 -0.7 0.8 0.3 1.2 1 0.8 1.6 -0.3 0.6 -0.1 0.7 0.6 0.3 0.8 -0.5 0.3 -1.6 -1.6 -3.4 l-2.8 -2.7 -0.7 2.4 c-0.8 2.9 -0.4 3.8 1.7 3.8 0.9 0 1.4 -0.6 1.1 -1.3z m-215.2 -23.5 c-0.7 -1.2 0.9 -1 6.3 0.7 1 0.3 0.2 -0.4 -1.7 -1.4 -2.6 -1.5 -4 -1.8 -5.4 -1 -1.5 0.8 -1.6 1.2 -0.5 1.9 1.9 1.2 2.2 1.1 1.3 -0.2z m56.2 0.4 c-0.3 -0.4 0.3 -1.2 1.5 -1.8 1.9 -1.1 1.8 -1.2 -1.3 -1.2 -1.8 0 -2.8 0.2 -2.1 0.4 0.7 0.3 0.9 1.1 0.6 1.9 -0.3 0.8 0.1 1.4 0.8 1.4 0.7 0 0.9 -0.3 0.5 -0.7z m24.4 -8.5 c0 -0.4 -0.9 -0.8 -2 -0.8 -1.1 0 -2 0.4 -2 0.8 0 0.4 0.9 0.8 2 0.8 1.1 0 2 -0.4 2 -0.8z m-104.5 -1.8 c0.7 -1.2 -0.2 -1.2 -3 0 -1.9 0.8 -1.9 0.9 0.2 0.9 1.2 0.1 2.5 -0.3 2.8 -0.9z m-77.3 -6.5 c0.2 0.3 0.5 -0.1 0.5 -0.9 0 -1.1 -0.4 -1.2 -1.9 -0.3 -1 0.7 -1.8 1.6 -1.8 2.1 0 0.4 0.6 0.3 1.3 -0.3 0.8 -0.6 1.6 -0.9 1.9 -0.6z m59.3 0.5 c-0.3 -0.5 0.7 -0.8 2.5 -0.5 1.6 0.2 3.2 0 3.5 -0.5 0.3 -0.4 -0.6 -0.7 -2 -0.5 -1.4 0.1 -2.5 -0.2 -2.5 -0.6 0 -0.5 0.5 -0.9 1.2 -0.9 0.6 0 0.3 -0.6 -0.8 -1.4 -1 -0.8 -2.1 -1 -2.2 -0.5 -0.2 0.5 -0.7 0.7 -1.1 0.5 -0.4 -0.3 -0.8 0.2 -0.8 1 0 1 0.4 1.1 1.1 0.4 0.5 -0.5 1.5 -1 2.1 -1 0.5 0.1 0 0.9 -1.3 1.9 -1.5 1.3 -1.8 2.1 -1 2.4 1.9 0.8 2 0.8 1.3 -0.3z m135.3 -0.4 c0.7 -0.4 1.9 -0.3 2.7 0.4 2.6 2.1 4.5 -1.5 2 -3.7 -0.4 -0.4 -0.5 -0.2 -0.1 0.5 0.9 1.5 -0.6 1.6 -2 0.2 -0.6 -0.6 -1.9 -0.8 -2.8 -0.4 -1.4 0.5 -1.5 0.9 -0.4 1.5 1 0.7 0.9 0.9 -0.4 0.9 -0.9 0 -1.9 0.4 -2.2 0.9 -0.7 1.1 1.3 0.9 3.2 -0.3z m60.2 -0.1 c1 -1.2 0.9 -1.5 -0.4 -1.5 -1 0 -1.4 0.5 -1.1 1 0.3 0.6 -0.1 1 -1 1 -0.9 0 -1.4 -0.4 -1 -0.9 0.3 -0.5 0.1 -1.2 -0.4 -1.5 -0.5 -0.3 -1.1 0.1 -1.4 0.8 -1 2.6 3.4 3.4 5.3 1.1z m-1.5 -3.5 c-1.1 -0.5 -2.7 -0.9 -3.5 -0.9 -0.9 0 -0.8 0.4 0.5 0.9 1.1 0.5 2.7 0.9 3.5 0.9 0.9 0 0.8 -0.4 -0.5 -0.9z m-202.9 -5.9 c-0.4 -0.5 0 -1.2 0.6 -1.4 0.8 -0.3 0.6 -0.6 -0.4 -0.6 -1 -0.1 -1.8 0.6 -1.8 1.4 0 0.8 0.5 1.5 1.1 1.5 0.5 0 0.8 -0.4 0.5 -0.9z"/>
  <path d="M3.2 461.7 c-0.7 -1.8 -1.2 -4.4 -1.2 -5.6 0 -2 0.2 -2.2 1.6 -1 0.9 0.8 1.3 2.1 1 3.5 -0.4 1.3 -0.2 2.6 0.4 2.9 1.2 0.7 1.3 3.5 0.2 3.5 -0.4 0 -1.3 -1.5 -2 -3.3z"/>
  <path d="M482 390.6 c-0.6 -0.9 -1 -2.1 -0.7 -2.8 0.4 -0.9 0.6 -0.7 0.6 0.4 0.1 0.9 0.7 1.8 1.4 2.1 0.6 0.2 0.9 0.7 0.6 1.1 -0.3 0.4 -1.2 0 -1.9 -0.8z"/>
  <path d="M450.8 334.3 c-1 -0.2 -1.8 -0.8 -1.8 -1.3 0 -0.4 0.9 -0.6 2 -0.3 1.1 0.3 2 0.9 2 1.4 0 0.5 -0.1 0.8 -0.2 0.8 -0.2 -0.1 -1.1 -0.3 -2 -0.6z"/>
  <path d="M58.3 317.7 c-0.7 -1.1 1.8 -3.8 3.1 -3.4 2 0.7 1.5 4.3 -0.6 4.3 -1.1 0 -2.2 -0.4 -2.5 -0.9z"/>
  <path d="M75.1 302.4 c-0.1 -0.6 0.9 -1.9 2.1 -3 1.6 -1.3 1.9 -1.4 1 -0.2 -0.7 0.9 -0.9 1.8 -0.5 2 0.4 0.3 0.3 0.3 -0.4 0.2 -0.6 -0.2 -1.4 0.2 -1.7 0.9 -0.3 0.8 -0.5 0.8 -0.5 0.1z"/>
  <path d="M386 284.5 c0.9 -1 0.9 -1.5 0.1 -1.5 -0.6 0 -1.1 -0.5 -1.1 -1 0 -0.6 0.8 -0.5 1.9 0.2 1.5 0.9 1.7 1.5 0.9 2.5 -0.6 0.7 -1.5 1.3 -2 1.3 -0.6 0 -0.5 -0.7 0.2 -1.5z"/>
  <path d="M243.5 258 c1.1 -0.5 2.7 -0.9 3.5 -0.9 0.9 0 0.8 0.4 -0.5 0.9 -1.1 0.5 -2.7 0.9 -3.5 0.9 -0.9 0 -0.8 -0.4 0.5 -0.9z"/>
  <path d="M223.7 256.5 c-3.8 -0.8 -7.5 -1.9 -8.2 -2.5 -0.8 -0.7 -1.9 -0.9 -2.4 -0.6 -0.5 0.4 -1.2 0.2 -1.5 -0.3 -0.3 -0.4 -1.8 -0.8 -3.3 -0.8 -1.5 0 -2.9 -0.5 -3.1 -1.1 -0.2 -0.6 -1 -0.8 -1.9 -0.5 -1 0.4 -1.4 0.2 -1 -0.4 0.8 -1.3 -2 -2.6 -3.4 -1.7 -1.2 0.7 -8.2 -6.3 -7.5 -7.4 0.3 -0.4 -1.5 -0.8 -3.9 -0.8 -2.4 0.1 -4.1 0.5 -3.8 1 0.4 0.5 0.1 0.6 -0.5 0.2 -0.7 -0.4 -1.2 -1.4 -1.2 -2.2 0 -0.8 0.5 -1.2 1 -0.9 0.6 0.3 1 0.1 1 -0.5 0 -0.6 -0.7 -1.3 -1.5 -1.6 -0.8 -0.4 -1.5 -1.1 -1.5 -1.6 0 -0.6 0.7 -0.8 1.4 -0.5 1 0.4 1.3 0.1 0.9 -0.9 -0.5 -1.4 -0.7 -1.4 -2.1 0 -1.2 1.2 -1.3 1.9 -0.5 2.7 1.5 1.5 0.5 3.9 -1.4 3.2 -1.2 -0.5 -1.2 -0.7 -0.1 -1.4 0.9 -0.6 0.5 -0.9 -1.3 -0.9 -1.5 0 -3.1 -0.6 -3.7 -1.3 -0.8 -1 -0.6 -1.3 0.8 -1.3 1 0 1.6 0.4 1.3 0.9 -0.3 0.5 0 0.7 0.8 0.5 0.8 -0.3 1.3 -1.1 1.1 -1.7 -0.1 -0.6 0.3 -1.1 1 -1.1 0.6 0 0.9 -0.3 0.6 -0.6 -0.4 -0.3 -1.6 0 -2.8 0.6 -1.6 0.9 -2.5 0.8 -3.8 -0.2 -1.1 -0.9 -1.4 -1 -0.8 0 1.4 2.3 -1.2 1.2 -3.3 -1.4 -1.1 -1.4 -2.2 -2.5 -2.6 -2.4 -0.3 0 -1.5 -0.9 -2.8 -2.1 -1.2 -1.2 -1.7 -1.9 -1 -1.5 0.6 0.3 1.5 0.2 1.8 -0.4 0.4 -0.6 0.3 -1 -0.2 -0.9 -2.5 0.4 -4.6 -0.4 -7.3 -3 -3.1 -2.9 -3.7 -4.1 -2 -4.1 0.5 0 1.6 1.2 2.4 2.8 0.8 1.5 1.6 2.5 1.6 2.2 0.8 -3.4 0.8 -5 0 -5.5 -0.6 -0.3 -1 -0.1 -1 0.6 0 0.9 -0.4 0.9 -1.5 -0.1 -0.8 -0.6 -1.9 -0.9 -2.4 -0.6 -1.3 0.9 -2.4 -1.1 -2.5 -4.7 -0.1 -1.7 -0.7 -3.2 -1.4 -3.5 -1.4 -0.4 -1.6 1.4 -0.2 2.3 0.6 0.3 1 1 1 1.6 0 0.5 -0.4 0.9 -1 0.9 -0.5 0 -1 -0.7 -1 -1.5 0 -0.7 -0.6 -1.8 -1.4 -2.2 -2.3 -1.3 -8.4 -9.8 -9.1 -12.6 -0.4 -1.4 -1.5 -3.3 -2.6 -4.3 -1 -0.9 -1.6 -2.1 -1.3 -2.5 0.3 -0.5 0.1 -0.9 -0.5 -0.9 -0.6 0 -0.8 -0.7 -0.4 -1.6 0.5 -1.3 0.7 -1.3 1.4 -0.2 0.6 0.9 0.9 0.9 0.9 0.1 0 -0.6 -0.4 -1.4 -0.9 -1.7 -0.4 -0.3 -1.4 -2.6 -2.1 -5.1 -0.8 -2.9 -1.6 -4.2 -2.1 -3.4 -0.4 0.7 -0.1 2.3 0.8 3.5 0.8 1.3 1.2 2.7 0.9 3.3 -0.3 0.5 -0.1 1.1 0.6 1.3 0.8 0.3 0.8 0.7 0.2 1.1 -1.5 0.9 -6.6 -12 -5.9 -14.7 0.5 -1.7 0.4 -1.8 -0.4 -0.6 -0.9 1.2 -1.1 0.9 -1.1 -1.3 0 -1.6 0.5 -3.7 1 -4.7 0.7 -1.3 0.7 -2.1 0 -2.5 -0.5 -0.3 -1 -2.2 -1 -4.1 0 -1.9 -0.4 -3.4 -1 -3.4 -0.5 0 -0.8 0.6 -0.6 1.3 0.3 0.6 0.7 3.2 1 5.7 0.5 4.1 0.5 4.3 -0.9 2.6 -0.8 -1.1 -1.2 -2.9 -0.9 -4.3 0.4 -1.5 0.2 -2.3 -0.6 -2.3 -0.9 0 -1.1 -1 -0.6 -3 0.3 -1.7 0.2 -2.9 -0.2 -2.6 -0.4 0.2 -0.6 -1.4 -0.4 -3.6 0.3 -2.7 0 -4.3 -0.9 -4.9 -1.1 -0.7 -1.1 -1.4 -0.1 -4.1 0.9 -2.5 0.9 -3.4 -0.1 -4 -1.5 -0.9 -1.4 -15.2 0.3 -20.2 0.6 -2 0.9 -4.4 0.6 -5.3 -0.3 -1 -0.1 -3.4 0.4 -5.3 l0.9 -3.5 -0.2 4.1 c-0.2 4.1 1.6 7.7 2.6 5.1 0.4 -0.9 0.6 -0.9 0.6 0.1 0.1 0.6 0.6 1.2 1.3 1.2 0.9 0 0.9 -0.3 0 -1.2 -0.7 -0.7 -1.2 -2.1 -1.2 -3.2 0 -1.7 0.2 -1.8 1 -0.6 0.7 1.1 0.8 0.6 0.5 -1.9 -0.2 -1.8 -0.7 -3.6 -1.1 -4 -0.4 -0.3 -0.4 0.2 -0.1 1.2 0.4 0.9 0.2 1.7 -0.3 1.7 -0.5 0 -1.1 1.2 -1.3 2.8 -0.2 1.5 -0.3 0.3 -0.2 -2.5 0.2 -2.9 -0.1 -5 -0.6 -4.7 -1.1 0.6 -1.2 -1 -0.1 -2 0.4 -0.4 0.7 -1.1 0.7 -1.4 0.1 -0.4 0.4 -2.5 0.9 -4.6 0.6 -3.1 1 -3.6 1.8 -2.5 0.7 1 0.8 0.8 0.4 -1 -0.6 -2.7 1.5 -8.3 3.9 -10.7 0.8 -0.9 1.3 -2 1 -2.5 -0.4 -0.5 -0.1 -0.9 0.4 -0.9 0.6 0 1.1 -0.7 1.1 -1.5 0 -0.8 0.4 -1.5 0.8 -1.5 0.4 0 0.8 -1 0.9 -2.1 0.2 -2.4 5.3 -10.2 6.1 -9.4 0.3 0.3 -0.3 1.5 -1.4 2.7 l-1.9 2.3 2.4 -2 c2.2 -1.8 2.4 -1.8 1.8 -0.2 -0.4 1 -0.3 1.6 0.3 1.2 0.5 -0.3 0.7 -2.3 0.4 -4.4 -0.3 -2.3 -0.1 -4.2 0.5 -4.6 0.6 -0.3 1.1 -0.2 1.1 0.2 0 0.5 0.9 0.9 2.1 1 1.4 0.1 1.9 -0.3 1.5 -1.3 -0.5 -1.2 0.5 -1.8 2.6 -1.5 0.4 0 0.6 -0.8 0.5 -1.9 -0.1 -1 -0.4 -1.7 -0.8 -1.4 -0.4 0.2 -1 0 -1.4 -0.6 -0.3 -0.6 1.3 -3 3.7 -5.5 3.7 -3.8 4.9 -4.4 7.6 -4.1 1.7 0.2 2.9 -0.1 2.6 -0.5 -0.7 -1.3 1 -1.1 2.3 0.2 0.8 0.8 1.3 0.7 1.8 -0.2 0.5 -0.7 0.4 -1 -0.3 -0.5 -1.5 0.9 -2.7 -1.3 -1.3 -2.7 0.8 -0.8 1.1 -0.7 1.1 0.3 0 0.7 0.3 1.1 0.6 0.8 0.3 -0.4 0.1 -1.5 -0.5 -2.7 -1 -1.7 -0.6 -2.5 2.5 -5.5 2 -2 4.1 -3.3 4.5 -3 0.5 0.3 1.2 -0.2 1.5 -1 0.3 -0.9 1 -1.4 1.4 -1.1 0.4 0.3 1 -0.2 1.4 -1 0.3 -0.8 1.2 -1.5 2.1 -1.5 0.8 0 1.5 -0.4 1.5 -0.9 0 -0.5 1.2 -1.4 2.8 -2 1.5 -0.6 4.2 -2.1 6 -3.2 1.8 -1.2 4.4 -2.1 5.7 -2.1 1.4 0 2.3 -0.4 2 -0.8 -0.2 -0.3 2.8 -1.7 6.8 -2.9 4 -1.2 8.3 -2.7 9.6 -3.2 1.3 -0.5 3.2 -0.7 4.3 -0.3 1.5 0.4 1.8 0.3 1.3 -0.7 -0.6 -0.9 -0.3 -1.1 0.9 -0.6 1 0.4 2.2 0.7 2.7 0.7 0.5 0 0.9 0.7 0.9 1.5 0 0.8 0.4 1.5 0.9 1.5 0.4 0 0.8 -1 0.7 -2.2 -0.1 -2.7 4.8 -4.2 11.1 -3.5 2.4 0.2 4.1 0.2 3.9 -0.2 -0.3 -0.4 0.7 -0.8 2.1 -0.9 2.2 -0.2 2.4 0 1.3 1.3 -0.7 0.9 -1 1.8 -0.7 2.1 0.9 0.9 2.7 -0.5 2.7 -2.2 0 -0.8 0.5 -1.4 1 -1.4 0.6 0 1 0.6 1 1.4 0 1.4 2.9 3 3.8 2.1 0.3 -0.3 0 -0.5 -0.6 -0.5 -0.7 0 -1.2 -0.7 -1.2 -1.6 0 -0.8 0.5 -1.2 1 -0.9 0.6 0.4 4.4 0.8 8.4 0.9 8.3 0.3 11.6 1.5 7.6 2.8 -2 0.6 -1.9 0.7 0.8 0.3 2.1 -0.3 3.2 0 3.2 0.8 0 0.6 0.5 0.4 1.1 -0.6 1.3 -2.3 3.3 -2.3 2 0 -0.7 1.5 -0.5 1.8 1.7 1.9 1.5 0.1 2.1 -0.1 1.5 -0.3 -1.8 -0.6 -1.6 -2.3 0.2 -2.3 0.8 0 1.5 0.5 1.5 1.1 0 0.5 0.5 0.7 1.1 0.4 1.3 -0.9 7.1 1.4 8.2 3.2 0.4 0.7 1.3 1.3 2 1.3 0.8 0 0.6 -0.4 -0.3 -1.1 -1.2 -0.9 -1.2 -1 0.3 -0.5 1 0.3 2.3 0.6 2.8 0.6 0.6 0 0.7 0.5 0.3 1.1 -0.4 0.8 0.1 0.9 1.6 0.4 1.7 -0.5 2.1 -0.4 1.5 0.6 -0.6 0.9 -0.3 1 1.1 0.5 1.4 -0.5 1.6 -0.4 0.7 0.4 -0.8 0.9 -2 0.9 -4.8 0 -3.2 -1 -3.9 -1 -5.3 0.4 -1 0.9 -1.2 1.6 -0.5 1.6 0.7 0 1.5 -0.4 1.8 -1 0.3 -0.5 1.1 -1 1.7 -1 0.6 0 0.5 0.7 -0.3 1.7 -1.3 1.5 -1.2 1.5 0.8 0.5 2.5 -1.4 3.6 -1.5 2.9 -0.4 -0.2 0.4 0.4 0.8 1.5 0.8 1 0 1.9 -0.3 1.9 -0.7 0 -0.4 0.7 -1 1.6 -1.3 0.8 -0.3 1.2 -0.2 0.9 0.3 -0.3 0.5 -0.1 1.2 0.5 1.6 0.5 0.3 1 0.2 1 -0.4 0 -0.6 0.7 -0.8 1.5 -0.5 0.8 0.4 1.5 1.2 1.5 2 0 0.8 0.5 1.4 1.1 1.4 0.5 0 0.7 -0.5 0.3 -1.1 -0.3 -0.6 1.2 0 3.5 1.3 4.4 2.5 5.6 4.5 1.6 2.6 -1.4 -0.6 -2.5 -1.5 -2.5 -2 0 -0.4 -0.6 -0.8 -1.2 -0.8 -0.7 0.1 -0.3 0.9 1 1.9 1.4 1.2 1.8 2.1 1 2.3 -0.7 0.3 -0.5 0.7 0.6 1.1 1 0.4 1.5 0.3 1.1 -0.3 -0.9 -1.4 0.9 -1.2 2.4 0.3 0.7 0.6 1.2 0.8 1.1 0.2 -0.5 -2.4 0.1 -2.7 1.6 -0.9 0.8 1 1.2 1.3 0.9 0.5 -0.5 -0.9 0.1 -0.8 1.9 0.4 1.4 0.9 2.3 2.2 1.9 2.8 -0.3 0.6 -0.1 0.7 0.6 0.3 0.6 -0.4 2.5 0.7 4.4 2.6 1.7 1.8 3.7 3.3 4.2 3.3 0.6 0 0.9 0.9 0.7 1.9 -0.2 1.1 0.1 1.5 0.8 1.1 1.2 -0.8 7.5 5 7.5 6.9 0 0.6 0.7 1.1 1.5 1.1 0.8 0.1 1.4 0.6 1.2 1.3 -0.1 0.7 0.3 1.2 0.9 1.2 1.8 0 6.4 6.3 6.1 8.4 -0.2 1.7 -0.1 1.8 0.7 0.6 1 -1.3 1.5 -0.8 1.2 1.2 0 0.4 0.8 1.2 1.9 1.8 1.8 1 1.9 1.3 0.5 2.6 -0.8 0.9 -1.5 2.1 -1.5 2.7 0 0.7 0.5 0.4 1.1 -0.6 1.3 -2.2 3 -2.2 2.2 0 -0.4 1.1 -0.3 1.4 0.5 0.9 0.7 -0.4 1.8 0.6 2.7 2.4 0.8 1.6 1.2 3 0.8 3 -0.4 0 0.1 0.6 1.2 1.3 1 0.8 1.5 1.9 1.1 2.5 -0.7 1.1 2.4 7.2 3.7 7.2 0.4 0 0.7 1.1 0.7 2.5 0 1.4 0.5 2.5 1 2.5 0.6 0 0.8 1.1 0.6 2.5 -0.3 1.4 -0.1 2.3 0.4 2 0.5 -0.3 1.3 0.9 1.8 2.7 0.9 3.5 -0.3 5.2 -1.9 2.7 -1.7 -2.8 -0.8 0.1 1.1 3.7 2.1 3.6 1.9 6.3 -0.1 3.4 -0.9 -1.3 -1 -1.2 -0.5 0.2 0.3 1 0.1 2 -0.4 2.3 -0.6 0.4 -1 1.1 -1 1.7 0 0.7 1 0.2 2.1 -1.1 2.4 -2.6 3.5 -2 4.4 2.4 0.5 2.3 0.4 2.6 -0.4 1.5 -1 -1.3 -1.1 -1.3 -1.1 0 0.1 0.8 0.7 2.4 1.5 3.4 2 2.6 2 7.6 0 7.6 -0.8 0 -1.5 0.5 -1.5 1 0 0.6 0.6 1 1.4 1 0.9 0 1.5 1.5 1.8 4.2 0.5 5.9 -0.2 9.8 -1.8 9.8 -0.8 0 -1.4 0.5 -1.4 1 0 0.6 0.7 1 1.6 1 1.3 0 1.4 1.1 0.8 7.3 -0.7 7.9 -1.1 9 -2.5 8.2 -0.5 -0.4 -0.9 -0.2 -0.9 0.4 0 0.5 0.6 1.1 1.3 1.4 0.9 0.3 0.9 0.7 -0.1 2 -0.8 0.9 -1.1 2.1 -0.7 2.8 1.1 1.7 -1.7 3 -3.4 1.6 -1.2 -1 -1.3 -0.9 -0.2 1.1 0.7 1.3 1.7 2 2.3 1.6 0.8 -0.5 0.9 -0.1 0.3 1.2 -0.4 1 -1 3 -1.3 4.2 -0.4 1.8 -0.7 2.1 -1.4 1 -0.7 -0.9 -0.8 -0.5 -0.4 1.3 0.4 1.7 -0.2 4.2 -1.8 7 -2.4 4.6 -2.6 5.2 -2.6 7 0 0.5 -0.4 0.8 -0.9 0.4 -0.6 -0.3 -0.3 -2.4 0.6 -5.1 0.8 -2.5 1.3 -4.7 1.1 -5 -0.3 -0.2 -1.1 1.6 -1.8 4.1 -0.7 2.5 -1.7 4.8 -2.1 5.1 -0.5 0.3 -0.9 1.1 -0.9 1.7 0 0.8 0.3 0.8 0.9 -0.1 0.7 -1.1 0.9 -1.1 1.4 0.1 0.3 0.9 -0.1 1.8 -0.9 2.1 -0.9 0.3 -1.3 1 -1 1.5 0.3 0.5 -0.1 1.4 -0.9 2.1 -0.8 0.7 -1.5 1.9 -1.5 2.7 0 0.8 -0.5 1.1 -1.2 0.7 -0.7 -0.5 -0.9 -0.2 -0.5 0.9 0.3 0.9 -0.2 2.4 -1.1 3.4 -0.9 1.1 -1.3 1.3 -0.8 0.6 0.5 -0.8 0.6 -1.6 0.3 -2 -0.4 -0.3 0.2 -2 1.3 -3.7 l1.9 -3.2 -2.5 -0.2 c-1.5 -0.1 -2.3 0.2 -1.9 0.8 0.4 0.6 1.1 0.8 1.6 0.5 0.5 -0.3 0.6 0.1 0.3 1 -0.5 1.3 -0.9 1.3 -2.3 0.3 -1.4 -1.2 -1.5 -1.1 -0.2 0.5 0.9 1.1 1.1 2.1 0.5 2.5 -0.5 0.4 -0.9 2.1 -0.9 3.7 0 4.8 -2.2 7.6 -5.6 7 -2.7 -0.5 -2.8 -0.4 -2.5 2.7 0.4 2.9 -0.4 4 -6.1 9.8 -3.6 3.6 -6.3 6 -5.9 5.3 0.9 -1.6 -1.3 -2.8 -2.7 -1.4 -0.9 0.9 -0.8 1.1 0.6 0.5 3.2 -1.2 0.5 3.2 -4.2 6.9 -4.2 3.3 -7.5 4 -6.5 1.3 0.3 -0.7 -0.5 -1.2 -1.8 -1.3 -1.8 -0.2 -2 0 -0.8 0.7 1.3 0.9 1.3 1 0 1 -0.9 0 -2.1 -0.5 -2.7 -1.1 -0.7 -0.7 -1.2 -0.6 -1.6 0.5 -0.4 1 -0.1 1.3 0.9 0.9 2 -0.7 1.8 0.7 -0.3 2.3 -1.1 0.8 -1.3 1.3 -0.5 1.4 0.6 0 1.2 0.7 1.2 1.5 0 1.3 -0.9 1.5 -4.2 1.1 -3.2 -0.4 -3.9 -0.3 -2.5 0.5 0.9 0.6 2.2 0.7 2.7 0.4 0.6 -0.3 1 -0.2 1 0.3 0 1.4 -5.3 2.2 -6.7 1 -0.9 -0.7 -1.3 -0.7 -1.3 0 0 0.6 0.6 1.3 1.3 1.5 1.7 0.8 -1.2 2.7 -3 2 -0.7 -0.3 -1.3 -0.1 -1.3 0.4 0 1.6 -5 3.5 -5 2 0 -0.6 -0.7 -0.3 -1.5 0.7 -1.3 1.8 -2 1.5 -1.6 -0.6 0 -0.5 -0.4 -0.8 -1 -0.8 -0.6 0 -0.8 0.9 -0.4 2 0.5 1.4 0.2 2 -1 2 -1 0 -1.4 -0.5 -1 -1.2 0.4 -0.7 0 -0.5 -0.8 0.5 -1 1.2 -1.7 1.4 -2.2 0.8 -0.3 -0.6 -0.1 -1.1 0.4 -1.1 0.6 0 1.1 -0.5 1.1 -1 0 -0.7 -0.6 -0.7 -1.9 0 -2.9 1.5 -3.9 1.2 -1.7 -0.5 1.1 -0.8 1.6 -1.5 1 -1.5 -0.5 0 -1.7 0.7 -2.7 1.4 -1.8 1.4 -1.7 1.4 0.2 2.1 1.2 0.3 2.1 1.1 2.1 1.6 0 0.6 -0.4 0.7 -1 0.4 -0.5 -0.3 -2.3 0.1 -4 1 -1.7 0.9 -5.5 1.8 -8.3 2 -2.9 0.2 -5.2 0.5 -5.2 0.5 0 0.1 -2.1 0.2 -4.7 0.3 -2.6 0.2 -4.2 -0.1 -3.5 -0.5 0.8 -0.5 0.7 -0.8 -0.5 -0.8 -1 0 -1.8 0.5 -1.8 1 0 1.3 -5.3 1.3 -6.6 0 -0.7 -0.7 -2.7 -0.7 -6.2 0.1 -3.9 0.9 -5.8 1 -7.7 0.1 -1.5 -0.7 -2.5 -0.8 -2.5 -0.2 0 1.2 0.4 1.2 -8.3 -0.5z m46.2 -4.4 c0.9 -0.6 1 -1 0.2 -1.6 -1.5 -0.8 -4.1 0.1 -4.1 1.5 0 1.2 2 1.3 3.9 0.1z m-55.9 -2.6 l2.5 -1.4 -3.5 0 c-1.9 0 -2.9 0.3 -2.1 0.6 1.1 0.5 1.1 0.7 0 1.4 -2.3 1.5 0.4 0.9 3.1 -0.6z m-16.3 -6.8 c-2.6 -2.7 -3.3 -2.7 -1.7 0.2 0.6 1.2 1.7 2.1 2.5 2.1 1 0 0.8 -0.7 -0.8 -2.3z m126.6 -12.4 c-0.7 -1.8 -2.2 -0.4 -2.8 2.6 -0.4 2.3 -0.4 2.3 1.5 0.6 1 -0.9 1.6 -2.4 1.3 -3.2z m16.7 -14.1 c0 -0.4 -0.7 0.1 -1.4 1.1 -0.7 0.9 -1.6 1.7 -1.9 1.7 -0.4 0 -0.4 -0.8 0 -1.7 0.3 -1 0.3 -1.5 -0.1 -1.2 -0.4 0.4 -0.9 1.9 -1.2 3.5 l-0.5 2.8 2.5 -2.7 c1.4 -1.6 2.6 -3.1 2.6 -3.5z m-198 -17.7 c-0.6 -1.7 -0.6 -2.5 0.1 -2.5 0.6 0 0.9 -0.8 0.7 -1.7 -0.2 -1.2 -1.3 -1.8 -3.1 -1.9 -3 -0.1 -3.4 0.7 -1.2 2.6 0.9 0.7 1.4 1.8 1.2 2.4 -0.6 1.6 1.2 4.8 2.3 4.1 0.6 -0.3 0.5 -1.6 0 -3z m228.9 -50.9 c0.2 -6 -0.6 -3.9 -1.2 3.4 -0.3 4.1 -0.2 5.4 0.3 3.5 0.4 -1.6 0.8 -4.8 0.9 -6.9z m-246 0.7 c-0.1 -5.3 -0.6 -4.9 -1.1 1 -0.2 2 0 3.7 0.4 3.7 0.4 0 0.8 -2.1 0.7 -4.7z m0.1 -9.8 c0 -1.4 -0.4 -2.5 -0.9 -2.5 -0.4 0 -0.6 1.1 -0.3 2.5 0.2 1.4 0.6 2.5 0.8 2.5 0.2 0 0.4 -1.1 0.4 -2.5z m246.8 -31.4 c0.3 -0.8 -0.1 -1.2 -0.9 -0.9 -0.7 0.2 -1.5 1 -1.7 1.7 -0.3 0.8 0.1 1.2 0.9 0.9 0.7 -0.2 1.5 -1 1.7 -1.7z m-239 -24.1 c-0.5 -4.5 -0.3 -4.9 1.1 -3.8 1.3 1 1.4 1 0.4 -0.2 -1.5 -1.7 -1.7 -3.4 -0.3 -2.5 0.6 0.3 1 0.2 1 -0.4 0 -2.1 -1.7 -1.9 -2.7 0.2 -0.9 2.2 -0.6 11.7 0.4 11.7 0.3 0 0.3 -2.3 0.1 -5z m230.6 1.3 c-0.4 -2.1 -0.7 -4.4 -0.7 -5 0 -0.7 -0.3 -1.1 -0.5 -0.8 -0.3 0.3 -1.1 0 -1.9 -0.6 -1 -0.9 -1.3 -0.8 -1.3 0.5 0 1 0.4 1.5 0.9 1.2 0.5 -0.3 1.2 1.1 1.6 3.2 0.7 3.8 1.3 5.2 2.1 5.2 0.3 0 0.2 -1.7 -0.2 -3.7z m-2.4 -8.8 c-0.6 -0.8 -0.9 -1.9 -0.6 -2.4 0.4 -0.5 0.2 -1.2 -0.4 -1.6 -1.4 -0.9 -1.3 2.8 0.2 4.3 1.7 1.7 2.3 1.5 0.8 -0.3z m-13.8 -22.1 c-0.2 -1.1 -0.8 -2.1 -1.3 -2.2 -0.5 -0.2 -0.7 -0.7 -0.5 -1.1 0.3 -0.4 -0.1 -0.8 -0.8 -0.8 -0.8 0 -1.2 1.1 -1.1 3.1 0.3 3.8 0.1 3.5 2.3 3.1 1.1 -0.1 1.6 -0.9 1.4 -2.1z m-189.7 -6.2 c-0.3 -0.3 0 -1.1 0.6 -1.9 0.9 -1 0.8 -1.3 -0.1 -1.3 -1 0 -1 -0.3 -0.1 -1.4 0.9 -1.1 0.9 -1.6 0 -2.2 -0.7 -0.4 -0.9 -0.3 -0.6 0.3 0.8 1.3 -2.8 4.7 -4.2 3.9 -1.1 -0.7 -2.5 1 -1.7 2.2 0.3 0.5 1.9 0.8 3.5 0.8 1.7 0 2.9 -0.2 2.6 -0.4z m179.5 -1.7 c-0.7 -0.9 -1 -1.8 -0.8 -2.1 0.3 -0.3 1.5 0.7 2.7 2.2 1.1 1.5 2.1 2.2 2.1 1.7 0 -0.5 -1.3 -2.2 -2.9 -3.7 -2.3 -2.2 -2.8 -2.4 -2.6 -0.9 0.2 2.5 1.6 5.5 2.3 4.9 0.3 -0.3 -0.1 -1.2 -0.8 -2.1z m-6.7 -6.8 c0.6 0.4 2.3 0.8 3.6 0.9 1.7 0.2 2.1 0 1.3 -0.5 -0.8 -0.5 -1.4 -1.2 -1.5 -1.7 -0.1 -0.5 -0.9 -0.9 -1.7 -0.9 -0.8 0 -1.5 -0.7 -1.4 -1.6 0.1 -0.8 -0.8 -1.6 -1.9 -1.6 -1.8 -0.2 -1.8 -0.1 -0.2 1.7 1.1 1.2 1.3 2 0.6 2.5 -0.6 0.3 -1.1 0.1 -1.1 -0.6 0 -0.7 -0.2 -1 -0.5 -0.7 -0.3 0.3 -0.2 1.3 0.2 2.4 0.4 1.1 0.8 1.3 1.1 0.6 0.2 -0.7 0.9 -0.9 1.5 -0.5z m-159.1 -7.1 c0.7 0.4 0.8 0.3 0.4 -0.4 -0.9 -1.4 0.6 -1.6 2 -0.3 0.5 0.6 1 -0.1 1.1 -1.9 0.3 -3.5 -1.3 -3.2 -6 1.3 -2.4 2.2 -2.6 2.6 -0.9 1.8 1.2 -0.7 2.8 -0.9 3.4 -0.5z m15.6 -9.5 c1.1 -0.6 1 -1 -0.3 -2.1 -1.3 -1.1 -1.5 -1 -0.9 0.4 0.5 1.4 0.2 1.7 -1.7 1.6 -3.7 -0.3 -4.9 -0.1 -4.9 0.9 0 1 5.6 0.4 7.8 -0.8z m118.9 -3.1 c-1.2 -1.5 -2.4 -2.2 -2.6 -1.7 -0.2 0.6 0.4 1.6 1.3 2.2 2 1.5 2.1 2.9 0.2 2.2 -1 -0.4 -1.3 -0.1 -1 0.8 0.5 1.1 1 1.2 2.4 0.3 1.8 -1.1 1.7 -1.3 -0.3 -3.8z m-116 0.2 c-1 -1 -1.5 -2.2 -1.2 -2.5 0.3 -0.4 0 -0.3 -0.6 0.2 -1.2 1 0.7 4 2.5 4.1 0.5 0 0.2 -0.8 -0.7 -1.8z m7.3 -4.2 c0 -0.5 -1.2 -1 -2.7 -0.9 -2.5 0 -2.6 0.1 -0.8 0.9 2.7 1.2 3.5 1.2 3.5 0z m2.5 0 c-0.4 -0.6 0.6 -1 2.2 -1.1 l2.8 -0.1 -2.5 -0.7 c-2.7 -0.9 -4.6 0.1 -3.6 1.8 0.4 0.6 0.9 1.1 1.2 1.1 0.3 0 0.2 -0.4 -0.1 -1z m30.5 -8.5 c0 -0.8 -0.4 -1.5 -1 -1.5 -0.5 0 -1 0.7 -1 1.5 0 0.8 0.5 1.5 1 1.5 0.6 0 1 -0.7 1 -1.5z"/>
  <path d="M188.3 244.3 c-3.9 -2 -4.1 -2.8 -0.8 -2.9 1.4 -0.1 2.2 0.2 1.9 0.7 -0.3 0.5 -0.1 0.9 0.4 0.9 0.6 0 1.2 0.7 1.6 1.5 0.3 0.8 0.4 1.5 0.3 1.4 -0.1 0 -1.7 -0.8 -3.4 -1.6z"/>
  <path d="M315.4 239.2 c0.4 -0.7 0.2 -1.2 -0.6 -1.2 -0.8 0 -0.7 -0.5 0.4 -1.6 1.3 -1.3 2 -1.4 3.4 -0.4 1.7 1 1.7 1.1 -0.4 0.6 -1.7 -0.3 -2.2 -0.1 -1.8 0.9 0.3 0.8 0 1.7 -0.6 2.1 -0.7 0.4 -0.8 0.3 -0.4 -0.4z"/>
  <path d="M345.4 211.1 c0 -1.6 0.6 -1.8 3.4 -1.2 0.4 0.1 -2.5 3.1 -3 3.1 -0.2 0 -0.4 -0.8 -0.4 -1.9z"/>
  <path d="M146.1 53.6 c-1 -1.2 -0.8 -1.7 0.8 -2.5 2.5 -1.4 3.1 -1.4 3.1 0 0 0.5 -0.4 0.7 -1 0.4 -0.9 -0.6 -1.4 0.8 -1.1 2.8 0.2 1.1 -0.5 0.8 -1.8 -0.7z"/>
  <path d="M159.6 38.2 c-0.3 -0.5 0.8 -2.2 2.5 -3.8 3.1 -2.9 3.1 -2.9 2.7 -0.5 -0.3 2.6 -4.2 5.8 -5.2 4.3z"/>
 </g>
 <g fill="#ffffff">
  <path d="M179 498 c-1.1 -0.8 -0.7 -0.9 1.5 -0.4 3.7 0.8 4.5 1.4 1.9 1.4 -1 0 -2.6 -0.5 -3.4 -1z"/>
  <path d="M98.9 489.4 c-0.8 -0.9 -0.2 -1 2.6 -0.4 4.7 1.1 5.3 1.7 1.5 1.7 -1.7 0 -3.5 -0.6 -4.1 -1.3z"/>
  <path d="M374.4 489.4 c-1.9 -1.5 -1.9 -1.5 0.1 -0.6 1.1 0.5 2.7 1.2 3.5 1.5 1.3 0.5 1.3 0.6 -0.1 0.6 -0.8 0.1 -2.4 -0.6 -3.5 -1.5z"/>
  <path d="M391.3 489.4 c0 -0.6 1.1 -0.9 2.4 -0.6 3 0.6 3 2 0 1.8 -1.3 0 -2.4 -0.6 -2.4 -1.2z"/>
  <path d="M73.2 485.8 c0.5 -1.5 2.8 -2.3 2.8 -1 0 0.5 -0.7 1.3 -1.6 1.6 -1 0.4 -1.4 0.1 -1.2 -0.6z"/>
  <path d="M431.4 482.6 c0 -2.1 0.3 -2.3 2.8 -1.4 2.7 1 3.9 2.8 1.8 2.8 -0.5 0 -1 -0.4 -1 -1 0 -0.5 -0.7 -1 -1.6 -1 -0.8 0 -1.3 0.4 -0.9 0.9 0.3 0.5 0.2 1.2 -0.3 1.5 -0.4 0.2 -0.8 -0.6 -0.8 -1.8z"/>
  <path d="M488.4 465.1 c0 -1.1 0.5 -1.7 1.3 -1.4 0.7 0.3 1.3 -0.2 1.3 -1 0 -0.9 0.5 -1.9 1.2 -2.3 0.6 -0.4 0.9 -0.3 0.7 0.2 -0.3 0.5 -1.1 2.1 -1.9 3.7 -1.6 3.2 -2.6 3.5 -2.6 0.8z"/>
  <path d="M6.5 413 c-0.3 -0.5 -0.2 -1.7 0.3 -2.6 0.8 -1.4 1 -1.2 1 0.9 0 2.9 -0.3 3.3 -1.3 1.7z"/>
  <path d="M12.2 394.9 c-1.4 -2.2 -1.1 -3.2 1.3 -3.5 1.4 -0.2 3 2.4 2 3.4 -0.3 0.3 -0.5 0 -0.5 -0.6 0 -0.7 -0.5 -1.2 -1.1 -1.2 -0.6 0 -0.8 0.9 -0.4 2 0.8 2.6 0.3 2.5 -1.3 -0.1z"/>
  <path d="M474.6 372.3 c-0.6 -1.5 -0.8 -1.5 -1.6 -0.3 -0.6 0.8 -1 1 -1 0.4 0 -0.5 0.7 -1.9 1.6 -3 0.8 -1 1.2 -1.3 0.8 -0.5 -0.4 0.8 0 1.9 1 2.7 0.9 0.6 1.3 1.5 0.8 1.8 -0.6 0.3 -1.3 -0.2 -1.6 -1.1z"/>
  <path d="M25.8 361.4 c-0.3 -0.3 0.1 -1.9 0.9 -3.5 0.8 -1.7 1.6 -2.9 1.8 -2.7 0.1 0.2 0.8 1.4 1.4 2.8 1.1 2.4 1.1 2.4 -0.3 0.6 -0.9 -1.1 -1.7 -1.5 -1.7 -0.8 -0.3 2.6 -0.4 3.1 -1 3.6 -0.3 0.3 -0.8 0.3 -1.1 0z"/>
  <path d="M464 357.3 c0 -0.7 0.5 -1.5 1 -1.8 0.6 -0.3 1 -1.1 1 -1.6 0 -0.6 -0.4 -0.7 -1 -0.4 -0.5 0.3 -1 -0.1 -1 -1 0 -0.9 -0.3 -1.4 -0.7 -1.2 -0.5 0.3 -1.6 -0.6 -2.6 -1.9 l-1.7 -2.3 3.4 2.2 c3.3 2.1 6.2 6.4 5.1 7.5 -0.3 0.3 -0.5 -0.1 -0.5 -0.9 -0.1 -1 -0.5 -0.8 -1.5 0.5 -0.8 1.1 -1.5 1.5 -1.5 0.9z"/>
  <path d="M30.7 352.5 c-0.8 -1.9 1.2 -3 2.6 -1.6 0.9 0.9 0.8 1.1 -0.6 0.5 -1.3 -0.5 -1.6 -0.2 -1.1 1 0.3 0.9 0.4 1.6 0.1 1.6 -0.3 0 -0.7 -0.7 -1 -1.5z"/>
  <path d="M456.5 346 c0 -1.6 0.5 -2.8 1 -2.7 0.6 0.1 0.9 -0.5 0.7 -1.3 -0.2 -0.8 0 -1.1 0.4 -0.7 1.2 1.1 1.4 3.7 0.3 3.7 -0.5 0 -0.9 0.6 -0.9 1.4 0 0.8 -0.3 1.7 -0.7 1.9 -0.5 0.3 -0.8 -0.8 -0.8 -2.3z"/>
  <path d="M36.4 343.3 c0.4 -2.3 2.2 -2.8 3 -0.8 0.3 0.9 0.2 1.3 -0.4 1 -0.6 -0.3 -1 -0.1 -1 0.4 0 0.6 -0.4 1.1 -0.9 1.1 -0.5 0 -0.8 -0.8 -0.7 -1.7z"/>
  <path d="M43.6 333 c1 -1.9 2 -2.7 3 -2.3 1.3 0.5 1.1 1 -1 2.9 -3.3 3.1 -3.8 3 -2 -0.6z"/>
  <path d="M449 332.5 c-0.7 -0.9 -1 -1.8 -0.6 -2.2 0.3 -0.3 0.6 0 0.6 0.8 0 1.2 0.2 1.1 1 -0.1 0.7 -1.2 0.9 -1 0.7 0.8 -0.2 2.6 -0.1 2.6 -1.7 0.7z"/>
  <path d="M447.6 328.2 c-0.2 -0.4 -2 -0.7 -4 -0.6 -2 0.1 -3.6 0.1 -3.6 0 0 -0.2 0.8 -1.2 1.8 -2.3 1.7 -2 1.7 -2 4.7 0.9 1.7 1.5 2.7 2.8 2.3 2.8 -0.4 0 -0.9 -0.3 -1.2 -0.8z"/>
  <path d="M50.8 325.1 c0.8 -0.4 1.3 -1.1 1.3 -1.5 -0.1 -0.3 0.2 -0.6 0.7 -0.7 0.4 0 1.2 -0.5 1.9 -1 0.8 -0.7 1.1 -0.5 0.9 0.5 -0.3 2.1 -1.3 2.9 -3.9 3.3 -1.5 0.2 -1.8 0 -0.9 -0.6z"/>
  <path d="M440.9 322.5 c-0.1 -0.3 -0.2 -1.1 -0.3 -1.7 -0.1 -0.7 -0.7 -1.2 -1.4 -1 -0.7 0.1 -1.1 -0.3 -0.9 -0.9 0.1 -0.6 -0.4 -1.4 -1.1 -1.6 -0.8 -0.3 -1 0.1 -0.5 1.4 0.3 1 0.3 1.5 -0.1 1.1 -0.4 -0.3 -0.9 -1.2 -1 -2 -0.1 -0.7 -0.8 -2.4 -1.5 -3.7 -0.9 -1.6 0 -1.1 3 1.7 2.3 2.3 4.4 4.9 4.5 5.7 0.2 1.3 -0.4 2.2 -0.7 1z"/>
  <path d="M59.6 317.8 c0.3 -0.4 0 -0.8 -0.7 -0.8 -0.9 0 -0.9 -0.3 0 -1.4 1.8 -2.1 5.2 -1.7 4.1 0.5 -0.5 0.9 -0.7 1.8 -0.5 2.1 0.2 0.2 -0.4 0.4 -1.5 0.4 -1 0 -1.6 -0.4 -1.4 -0.8z"/>
  <path d="M63.6 310.9 c2.1 -2.3 2.1 -2.3 2.1 -0.5 0 0.8 -0.9 1.7 -2 2 -1.8 0.4 -1.8 0.4 -0.1 -1.5z"/>
  <path d="M424.9 311 c0 -0.8 -0.2 -2.6 -0.5 -4 -0.2 -1.4 -0.1 -2 0.3 -1.4 0.5 0.6 1.3 1.3 1.9 1.5 0.7 0.3 0.6 1.2 -0.3 2.9 -0.8 1.5 -1.3 1.9 -1.4 1z"/>
  <path d="M69.5 309.1 c-0.3 -0.6 -1.1 -0.9 -1.6 -0.6 -0.5 0.4 -0.9 0.2 -0.9 -0.3 0 -1 2.3 -2.2 4 -2.2 0.9 0 0.8 2.6 -0.2 3.5 -0.3 0.4 -0.9 0.1 -1.3 -0.4z"/>
  <path d="M416.9 303.8 c-0.7 -2.3 -0.4 -3.8 0.7 -4.2 0.8 -0.3 1.3 0 1.1 0.7 -0.1 0.7 0.6 1.2 1.5 1.2 1 0 2.3 0.6 3 1.4 1.1 1.1 1 1.3 -0.7 0.8 -1.1 -0.2 -2.9 -0.8 -3.9 -1.3 -1.4 -0.5 -1.7 -0.4 -1.2 0.4 0.4 0.7 0.5 1.2 0.2 1.2 -0.3 0 -0.6 -0.1 -0.7 -0.2z"/>
  <path d="M78 302.1 c-0.8 -0.6 -1.9 -0.7 -2.5 -0.4 -0.5 0.4 -0.1 -0.3 0.9 -1.5 2.2 -2.6 3.5 -3 1.5 -0.5 -1.2 1.4 -1.2 1.6 0.2 1.1 1 -0.4 1.6 -0.1 1.6 0.8 0 0.8 -0.1 1.4 -0.1 1.4 -0.1 0 -0.8 -0.4 -1.6 -0.9z"/>
  <path d="M271.5 295 c0.3 -0.5 -0.2 -1 -1.2 -1.1 -1.4 0 -1.5 -0.2 -0.3 -0.6 0.8 -0.3 1.9 -1.1 2.3 -1.7 0.6 -0.7 0.7 -0.4 0.3 0.7 -0.7 2.2 -0.1 2.2 4 -0.4 1.9 -1.1 3.4 -1.7 3.4 -1.2 0 0.5 -2.1 1.9 -4.6 3.1 -2.5 1.2 -4.3 1.8 -3.9 1.2z"/>
  <path d="M401 295 c-1.1 -0.7 -1.2 -1.2 -0.3 -2.1 0.8 -0.8 0.9 -1.8 0.3 -3 -0.7 -1.3 -0.6 -1.7 0.5 -1.5 0.8 0.1 2 0.7 2.7 1.4 0.9 0.9 0.7 1.3 -0.6 1.8 -1.4 0.5 -1.5 0.9 -0.4 1.5 1 0.7 1 0.9 -0.2 0.9 -1.3 0 -1.3 0.1 0 1 0.8 0.5 1.1 1 0.5 1 -0.5 0 -1.7 -0.5 -2.5 -1z"/>
  <path d="M254.3 294.3 c0.4 -0.3 2.2 -0.7 3.9 -0.9 2.6 -0.2 2.9 -0.1 1.3 0.6 -2.4 1 -6.1 1.3 -5.2 0.3z"/>
  <path d="M221.5 292 c-1.6 -0.6 -1.3 -0.8 1.3 -0.7 1.7 0 3.2 0.1 3.2 0.2 0 0.8 -2.8 1.1 -4.5 0.5z"/>
  <path d="M103.2 286.7 c-0.7 -0.8 -0.6 -1.8 0.5 -3.2 1.4 -1.8 1.5 -1.8 0.9 -0.1 -0.5 1.4 -0.2 1.7 1.1 1.2 1.7 -0.6 1.7 -0.5 0 0.8 -1.4 1 -1.5 1.5 -0.5 1.9 0.8 0.3 0.8 0.6 0.2 0.6 -0.6 0.1 -1.6 -0.5 -2.2 -1.2z"/>
  <path d="M293.5 286.3 c2.3 -1.6 3.8 -1.7 3.3 -0.1 -0.2 0.6 -1.5 1.2 -2.8 1.3 -2.1 0.2 -2.2 0.1 -0.5 -1.2z"/>
  <path d="M196.4 285.1 c0.6 -0.9 0 -1 -2.1 -0.5 -2.7 0.6 -2.8 0.6 -0.8 -1.1 l2 -1.7 -2 0.7 c-1.6 0.5 -1.8 0.4 -0.7 -0.7 1 -1 1.6 -0.8 3.3 0.9 1.6 1.5 1.8 2.2 0.8 2.8 -0.8 0.5 -1 0.4 -0.5 -0.4z"/>
  <path d="M298.5 285.1 c-0.6 -1 2.1 -4.1 3.5 -4.1 0.5 0 1.2 0.5 1.6 1.2 0.4 0.7 0.3 0.8 -0.5 0.4 -1.4 -0.9 -4.3 1.2 -3.5 2.5 0.3 0.5 0.3 0.9 0 0.9 -0.3 0 -0.7 -0.4 -1.1 -0.9z"/>
  <path d="M384.7 282.2 c0.4 -1 0.9 -1 2.2 0 0.9 0.7 1.7 1.3 1.9 1.4 0.2 0.1 -0.8 0.1 -2.1 0 -1.5 0 -2.3 -0.6 -2 -1.4z"/>
  <path d="M106 282.2 c0 -2 4 -3.6 5.4 -2.1 0.8 0.9 0.8 1 -0.2 0.4 -0.8 -0.4 -2.1 0 -3.3 1.1 -1 0.9 -1.9 1.2 -1.9 0.6z"/>
  <path d="M184 278.8 c0 -0.5 -0.5 -0.6 -1.2 -0.2 -0.6 0.4 -0.8 0.3 -0.5 -0.3 0.6 -0.9 2.1 -1 6.1 -0.4 1.6 0.2 -0.3 1.5 -2.4 1.6 -1.1 0.1 -2 -0.2 -2 -0.7z"/>
  <path d="M306.7 278.8 c0.3 -0.5 0.8 -0.7 1.1 -0.4 0.3 0.4 1.7 -0.4 3.1 -1.6 1.4 -1.3 2 -1.5 1.2 -0.6 -0.7 0.9 -1 2.1 -0.7 2.6 0.3 0.4 -0.8 0.8 -2.4 0.8 -1.6 0 -2.6 -0.4 -2.3 -0.8z"/>
  <path d="M313.4 278.4 c0.1 -0.8 0.9 -2 1.7 -2.5 1.1 -0.7 1.1 -0.9 0.1 -0.9 -0.7 0 -1 -0.5 -0.7 -1.1 0.9 -1.3 1.6 -0.6 1.9 1.7 0.2 1 0.9 2 1.6 2.2 0.8 0.3 1 0 0.5 -0.8 -0.6 -0.9 -0.4 -1.1 0.4 -0.5 0.9 0.5 1 1 0.2 1.8 -0.8 0.8 -1.4 0.8 -2.3 -0.1 -1.7 -1.7 -2.9 -1.5 -2.2 0.3 0.4 0.8 0.2 1.5 -0.4 1.5 -0.6 0 -0.9 -0.7 -0.8 -1.6z"/>
  <path d="M377 279.1 c0 -0.7 -0.4 -0.9 -1 -0.6 -0.5 0.3 -1 0.2 -1 -0.3 0 -0.8 4 -2.5 4.6 -1.9 0.1 0.1 -0.4 1.1 -1.2 2.1 -0.8 1.1 -1.4 1.4 -1.4 0.7z"/>
  <path d="M118.5 278 c0.3 -0.6 0 -1 -0.7 -1 -1 0 -0.9 -0.3 0.2 -0.9 1.5 -1 3 -0.6 3 0.9 0 0.4 -0.7 1.1 -1.6 1.4 -0.8 0.3 -1.2 0.2 -0.9 -0.4z"/>
  <path d="M177 277.9 c-1.2 -0.9 -1.2 -1 0.4 -0.5 1 0.4 2.6 0.1 3.5 -0.6 1.4 -1.2 1.4 -1.1 0.2 0.5 -1.6 2 -2.1 2.1 -4.1 0.6z"/>
  <path d="M134.7 270.3 c0.3 -0.7 0.8 -1.2 1.1 -0.9 0.2 0.3 1.3 0.1 2.3 -0.5 1.1 -0.5 1.9 -0.6 1.9 -0.2 0 0.5 -1.3 1.4 -2.9 2 -2.4 0.9 -2.9 0.8 -2.4 -0.4z"/>
  <path d="M173 270 c-0.7 -1 -2 -1.6 -2.9 -1.3 -1.4 0.4 -1.4 0.3 -0.1 -0.6 1.3 -0.9 1.2 -1.1 -0.5 -1.2 -1.1 0 -1.4 -0.3 -0.7 -0.6 1.4 -0.6 7.6 4.3 6.4 5.1 -0.5 0.3 -1.4 -0.3 -2.2 -1.4z"/>
  <path d="M321.6 271.1 c-0.3 -0.4 0.6 -1.9 2.1 -3.2 1.4 -1.3 2.3 -1.8 1.9 -1.1 -0.4 0.7 -0.2 1.2 0.6 1.2 1 0 1 0.2 -0.1 0.9 -0.8 0.5 -1 1.4 -0.6 2.2 0.6 1.1 0.5 1.2 -0.6 0.2 -1.6 -1.5 -3.3 -1.7 -2.4 -0.3 0.3 0.6 0.4 1 0.1 1 -0.3 0 -0.7 -0.4 -1 -0.9z"/>
  <path d="M360.5 271 c-0.5 -0.8 5.2 -0.6 6 0.2 0.3 0.2 -0.9 0.5 -2.5 0.5 -1.7 0 -3.3 -0.3 -3.5 -0.7z"/>
  <path d="M143.5 267 c1.1 -0.5 2.9 -0.8 4 -0.8 1.6 0 1.5 0.2 -0.5 0.8 -3.4 1.1 -6 1.1 -3.5 0z"/>
  <path d="M345 266.6 c0.6 -0.8 1.9 -1.2 2.7 -0.9 1.4 0.6 1.4 0.8 -0.3 1.4 -3 1.2 -3.7 1 -2.4 -0.5z"/>
  <path d="M341.5 265 c-0.3 -0.5 0.3 -1 1.5 -1 1.2 0 1.8 0.5 1.5 1 -0.3 0.6 -1 1 -1.5 1 -0.5 0 -1.2 -0.4 -1.5 -1z"/>
  <path d="M329.5 263 c0.5 -0.8 4.2 -0.6 5 0.1 0.2 0.3 -0.8 0.5 -2.5 0.5 -1.6 0 -2.7 -0.3 -2.5 -0.6z"/>
  <path d="M273.5 255 c0.3 -0.5 1.3 -1 2.1 -1 0.8 0 1.4 0.5 1.4 1 0 0.6 -0.9 1 -2.1 1 -1.1 0 -1.7 -0.4 -1.4 -1z"/>
  <path d="M285.3 251.4 c0.8 -0.9 4.7 -1.3 5.1 -0.6 0.2 0.4 -0.9 0.8 -2.5 0.8 -1.7 0.1 -2.8 0 -2.6 -0.2z"/>
  <path d="M187.3 242.6 c0.3 -0.8 0.1 -1.7 -0.6 -1.9 -0.7 -0.2 0 -0.4 1.5 -0.3 2.5 0.1 2.5 0.2 1.1 1.9 -1.9 2.1 -2.7 2.2 -2 0.3z"/>
  <path d="M306.7 241.8 c-1.5 -1.2 -1.4 -1.3 1 -1.4 1.6 -0.1 2.2 0.1 1.5 0.3 -0.6 0.3 -1 0.9 -0.6 1.4 0.7 1.2 0.1 1.1 -1.9 -0.3z"/>
  <path d="M182.3 240 c-0.3 -1.1 -1 -2 -1.5 -2 -0.5 0 -0.6 0.5 -0.2 1.2 0.4 0.7 0.3 0.8 -0.4 0.4 -0.6 -0.4 -0.8 -1.3 -0.5 -2.2 0.5 -1.3 0.9 -1.2 2.9 0.7 1.3 1.2 2.1 2.6 1.8 3 -0.8 1.4 -1.6 1 -2.1 -1.1z"/>
  <path d="M312.7 240.3 c-0.4 -0.6 0.3 -1.9 1.6 -2.9 1.2 -1.1 1.7 -1.2 1.1 -0.4 -0.6 0.8 -1.3 2.2 -1.6 3 -0.3 0.9 -0.7 1 -1.1 0.3z"/>
  <path d="M181.3 235.1 c-1.9 -1.6 -2 -2 -0.7 -2.5 1 -0.4 1.3 -0.2 0.8 0.6 -0.5 0.7 -0.2 0.9 0.7 0.6 1 -0.4 1.5 0.1 1.5 1.3 0 1.1 0 1.9 -0.1 1.9 0 -0.1 -1 -0.9 -2.2 -1.9z"/>
  <path d="M312.4 234.3 c-0.1 -1.3 0.1 -2.1 0.5 -1.6 0.3 0.4 1 1 1.4 1.4 0.4 0.3 0.2 1.1 -0.5 1.7 -1 0.8 -1.3 0.5 -1.4 -1.5z"/>
  <path d="M319.9 234.9 c-1.1 -0.8 -1 -0.9 0.6 -0.7 1.1 0.2 1.9 -0.2 1.8 -0.7 -0.1 -0.6 0.7 -1.2 1.8 -1.2 2.5 -0.2 2.4 0.1 -0.4 2 -1.6 1 -2.8 1.2 -3.8 0.6z"/>
  <path d="M165.7 229.4 c-1.1 -1.1 -0.8 -2.6 0.3 -1.9 0.6 0.3 1 -0.1 1 -0.9 0 -1.8 -1.6 -2.1 -2.5 -0.6 -0.4 0.6 -1.1 0.8 -1.6 0.4 -1.5 -0.9 -0.1 -2.1 2.3 -2 1.4 0.1 2.4 0.8 2.6 2 0.4 2 -1 4 -2.1 3z"/>
  <path d="M329.4 228.1 c0.4 -0.5 0 -1.2 -0.6 -1.4 -0.8 -0.3 -0.6 -0.6 0.5 -0.6 0.9 -0.1 1.7 0.6 1.7 1.4 0 0.8 -0.5 1.5 -1.1 1.5 -0.5 0 -0.8 -0.4 -0.5 -0.9z"/>
  <path d="M336.7 220.7 c-0.8 -2.2 1.9 -5 3.9 -3.9 1.1 0.6 1.3 1.1 0.5 1.6 -0.6 0.4 -1.1 0.2 -1.1 -0.5 0 -0.9 -0.3 -0.9 -1.4 0.1 -0.8 0.6 -1.2 1.8 -0.9 2.6 0.3 0.8 0.3 1.4 0 1.4 -0.3 0 -0.7 -0.6 -1 -1.3z"/>
  <path d="M155.2 219 c-1.2 -1.2 -2.2 -2.2 -2.2 -2.3 0 -0.1 1.2 -0.3 2.8 -0.3 1.5 -0.1 2.1 0.1 1.5 0.3 -0.9 0.3 -1 1 -0.3 2.4 1.4 2.4 0.9 2.4 -1.8 -0.1z"/>
  <path d="M344.8 212.9 c0.6 -0.7 1.2 -1.7 1.2 -2.2 0 -0.4 -0.6 -0.5 -1.2 -0.1 -1 0.5 -1 0.4 -0.1 -0.6 0.7 -0.8 2.2 -1.5 3.4 -1.7 1.9 -0.3 1.9 -0.2 0.5 1.3 -0.9 0.8 -1.6 1.9 -1.6 2.4 0 0.4 -0.8 1.1 -1.7 1.5 -1.5 0.5 -1.6 0.4 -0.5 -0.6z"/>
  <path d="M141.4 202.3 c-1.3 -2 -1.3 -2.5 -0.2 -1.6 0.8 0.7 1.7 1.1 1.9 0.8 0.3 -0.2 0.5 0.5 0.5 1.5 0 2.5 0 2.5 -2.2 -0.7z"/>
  <path d="M137.2 194.2 l-1.2 -2.5 2.5 2.3 c2.5 2.4 3.5 1.6 1.3 -1 -1.1 -1.2 -1 -1.2 0.3 -0.2 0.9 0.6 1.9 0.8 2.4 0.4 0.4 -0.4 0.3 0.2 -0.2 1.2 -1.5 2.8 -3.7 2.7 -5.1 -0.2z"/>
  <path d="M353.8 194.6 c-0.6 -1.2 -0.7 -1.8 -0.3 -1.4 0.5 0.4 1.5 0.2 2.4 -0.4 1.3 -1 1.4 -1 0.4 0.2 -2 2.2 -1.5 3.5 0.6 1.6 1.9 -1.7 1.9 -1.7 1.5 0.1 -0.7 2.6 -3.2 2.5 -4.6 -0.1z"/>
  <path d="M134.4 190.2 c0.4 -0.7 0.2 -1.2 -0.4 -1.2 -0.6 0 -0.8 -0.5 -0.5 -1.1 0.4 -0.6 -0.1 -1.6 -1.1 -2.3 -1.3 -1 -1.4 -1.5 -0.4 -2.1 0.9 -0.6 1.1 -0.4 0.6 0.4 -0.5 0.8 -0.2 1.1 0.9 0.9 1.3 -0.2 1.8 0.4 1.9 2.5 0.1 1.6 -0.3 3.1 -0.8 3.4 -0.5 0.3 -0.6 0.1 -0.2 -0.5z"/>
  <path d="M361.4 184.8 c-1.3 -1.6 -1.4 -1.9 -0.2 -1 1.3 1 1.7 1 2.1 0 0.3 -0.7 0.6 -0.3 0.6 1 0.1 2.7 -0.1 2.7 -2.5 0z"/>
  <path d="M130.2 180.8 c-0.7 -0.7 -1.2 -1.9 -1.2 -2.7 0 -1.1 0.5 -0.8 1.6 0.7 1.8 2.5 1.5 3.9 -0.4 2z"/>
  <path d="M364 181.4 c0 -0.5 0.9 -2 2 -3.4 1.8 -2.4 1.9 -2.4 1.4 -0.3 -0.6 2.2 -3.4 5.3 -3.4 3.7z"/>
  <path d="M126.9 173.3 c-0.6 -4.2 -0.7 -6.4 -0.1 -5.8 0.7 0.7 1.2 6.5 0.6 6.5 -0.2 0 -0.5 -0.3 -0.5 -0.7z"/>
  <path d="M123.6 160.3 c0.9 -3.8 1.4 -4.2 1.4 -1 0 1.4 -0.5 2.9 -1 3.2 -0.7 0.4 -0.8 -0.3 -0.4 -2.2z"/>
  <path d="M121.1 108.8 c0 -0.7 0.4 -2.2 0.9 -3.3 0.8 -1.8 0.9 -1.7 0.9 0.7 0.1 1.5 -0.3 3 -0.9 3.3 -0.5 0.3 -1 0 -0.9 -0.7z"/>
  <path d="M124 102.3 c0 -0.7 0.4 -1.5 1 -1.8 0.5 -0.3 0.8 -2.6 0.5 -5.2 -0.2 -2.5 -0.1 -4.3 0.2 -3.9 1.3 1.2 1.1 8.1 -0.3 10 -0.8 1.1 -1.4 1.5 -1.4 0.9z"/>
  <path d="M365 82.2 c0 -1.9 -0.9 -2.6 -3 -2.4 -0.3 0 -0.7 -0.9 -0.7 -2.1 -0.2 -2 -0.1 -2 0.8 -0.4 0.6 0.9 1.4 1.5 1.9 1.2 1.1 -0.7 2.6 4.3 1.6 5.2 -0.3 0.4 -0.6 -0.3 -0.6 -1.5z"/>
  <path d="M133.2 78.8 c-0.7 -0.7 -1.2 -1.6 -1.2 -2.2 0 -0.5 0.7 -0.1 1.6 1 1.5 1.9 1.6 1.9 0.9 -0.1 -0.5 -1.6 -0.4 -1.8 0.6 -0.7 0.9 0.8 1 1.5 0.3 2.2 -0.7 0.7 -1.4 0.6 -2.2 -0.2z"/>
  <path d="M134.1 72.8 c0.5 -1 1.1 -1.8 1.2 -1.8 0.2 0 0.3 0.8 0.4 1.8 0.1 1 -0.5 1.9 -1.2 1.9 -1 0 -1.1 -0.5 -0.4 -1.9z"/>
  <path d="M139.8 61.4 c1 -1.2 1.9 -1.8 2 -1.3 0.2 0.5 0.7 0.7 1.1 0.5 0.4 -0.3 0.7 0.3 0.7 1.3 0 1.2 -0.8 1.7 -2.7 1.7 -2.6 0 -2.7 0 -1.1 -2.2z"/>
  <path d="M348.6 54.9 c0.6 -1.8 -2.3 -5.2 -3.7 -4.4 -0.5 0.4 -0.6 -0.1 -0.3 -0.9 0.8 -2.2 1.7 -2 4.2 0.7 2 2.1 2.1 2.5 0.7 4.3 -1.1 1.3 -1.3 1.4 -0.9 0.3z"/>
  <path d="M145.4 52.8 c-0.3 -0.4 0.6 -1.3 2 -1.9 1.6 -0.7 2.2 -1.7 1.9 -2.7 -0.4 -0.9 -0.1 -1.3 0.7 -1 0.7 0.2 1.4 1.2 1.6 2.1 0.1 0.9 -0.2 1.5 -0.7 1.1 -0.5 -0.3 -0.9 0 -0.9 0.6 0 0.6 -0.5 0.8 -1.2 0.4 -0.7 -0.5 -0.9 -0.2 -0.6 0.8 0.6 1.5 -1.9 2.1 -2.8 0.6z"/>
  <path d="M153.1 46.3 c-0.2 -2.5 -0.1 -2.8 0.9 -2.8 0.6 0 0.9 -0.3 0.8 -0.6 -0.5 -1 2.4 -4 3.5 -3.6 0.6 0.2 1.2 1.4 1.4 2.8 0.2 1.7 0 2 -0.6 1 -0.9 -1.4 -3.1 -0.7 -3.1 1 0 0.6 0.5 0.7 1 0.4 0.6 -0.3 1 -0.1 1 0.5 0 0.6 0.6 0.8 1.3 0.4 0.6 -0.4 0.9 -0.3 0.4 0.1 -1.1 1.3 -4.9 1.7 -4.2 0.5 0.3 -0.5 0.2 -1 -0.4 -1 -0.5 0 -1.2 0.6 -1.4 1.3 -0.4 1 -0.6 1 -0.6 0z"/>
  <path d="M340.2 44.8 c-1.5 -1.5 -2.1 -1.7 -1.7 -0.7 0.3 0.9 0.1 1.6 -0.7 1.6 -0.8 0 -1.4 -0.8 -1.4 -1.8 0 -1 0.3 -1.6 0.7 -1.3 0.4 0.2 1 -0.3 1.3 -1.2 0.7 -1.8 2.1 -1.1 2.1 0.9 0 0.7 0.5 1.2 1.2 1.2 0.6 0 1.5 0.4 2 0.9 0.5 0.6 0.2 0.6 -0.6 0.1 -1.1 -0.6 -1.3 -0.4 -0.8 0.8 0.8 2.2 0.6 2.1 -2.1 -0.5z"/>
  <path d="M160 38.5 c-1.2 -1.5 0.3 -3 1.9 -2 0.6 0.3 1.4 -0.3 2 -1.2 0.7 -1.2 1 -1.3 1.1 -0.4 0 1 0.4 1.1 1.3 0.3 0.9 -0.8 1.2 -0.4 1.2 1.7 0.1 2.4 -0.3 2.7 -3.2 2.8 -1.8 0 -3.7 -0.5 -4.3 -1.2z m7 -0.4 c0.3 -0.1 -0.2 -0.5 -1 -1.1 -0.9 -0.5 -1.9 -0.5 -2.7 0.1 -0.7 0.6 -1.8 0.7 -2.4 0.3 -0.7 -0.4 -0.9 -0.3 -0.5 0.4 0.5 0.9 2.5 1 6.6 0.3z"/>
  <path d="M329.3 33.3 c-0.7 -0.3 -1.3 -0.9 -1.3 -1.5 0 -0.7 0.5 -0.7 1.3 0.1 0.8 0.6 1.6 0.8 1.9 0.5 0.3 -0.3 0.8 -0.1 1.2 0.4 0.5 0.9 -1 1.2 -3.1 0.5z"/>
  <path d="M172.4 30.9 c-0.5 -0.9 -0.2 -1 0.9 -0.6 1.8 0.7 2.4 -0.8 0.7 -1.6 -0.6 -0.3 -0.5 -0.4 0.2 -0.3 1.6 0.3 1.7 2.8 0.1 3.3 -0.6 0.2 -1.5 -0.1 -1.9 -0.8z"/>
  <path d="M321.4 31.2 c0.4 -0.7 0.3 -1.9 -0.3 -2.6 -0.8 -0.9 -0.7 -1.3 0.4 -1.3 0.8 0 1.2 0.4 0.9 0.9 -0.3 0.4 -0.1 0.8 0.5 0.8 0.5 0 1.1 -0.5 1.3 -1.2 0.5 -1.4 2.8 -0.1 2.7 1.5 0 0.8 -0.2 0.8 -0.6 -0.1 -0.4 -1 -1.2 -0.7 -3.1 1 -1.4 1.3 -2.2 1.7 -1.8 1z"/>
  <path d="M170.3 28.8 c0 -1.9 3.4 -4.1 4.2 -2.8 0.3 0.6 0.1 1 -0.6 1 -0.6 0 -1.7 0.7 -2.4 1.6 -1 1.4 -1.2 1.4 -1.2 0.2z"/>
  <path d="M320.2 24.4 c-1.2 -0.8 -2.2 -1.2 -2.2 -0.8 0 0.3 -1.1 -0.1 -2.5 -1 -2.9 -1.9 -3.9 -2 -2.9 -0.4 0.4 0.7 -0.7 0.3 -2.6 -0.8 -3.5 -2.1 -7 -6.4 -5.1 -6.4 0.6 0 1.1 0.7 1.1 1.5 0 0.8 0.9 1.9 2 2.5 2.5 1.3 2.6 0.2 0.3 -1.7 -1.6 -1.3 -1.6 -1.3 0.5 -0.3 1.5 0.7 2.1 1.7 1.8 2.6 -0.4 1.1 -0.1 1.4 1.3 0.9 1.1 -0.3 2.2 -0.1 2.6 0.5 0.3 0.6 1.1 0.8 1.6 0.5 0.5 -0.4 0.9 -0.1 0.9 0.5 0 0.6 0.4 0.9 0.8 0.6 0.4 -0.2 1.9 0.4 3.2 1.5 3 2.2 2.4 2.5 -0.8 0.3z"/>
  <path d="M178.6 22.5 c0.4 -0.8 1.2 -1.5 2 -1.5 0.8 0 1.4 -0.4 1.4 -1 0 -0.5 0.8 -1 1.8 -1 1.6 0.1 1.6 0.1 -0.1 1.1 -0.9 0.6 -1.5 1.4 -1.2 1.9 0.3 0.5 0 1.2 -0.6 1.6 -0.8 0.4 -0.9 0.3 -0.5 -0.4 0.4 -0.7 0.2 -1.2 -0.3 -1.2 -0.6 0 -1.1 0.5 -1.1 1 0 0.6 -0.4 1 -1 1 -0.5 0 -0.7 -0.7 -0.4 -1.5z"/>
  <path d="M186.5 23 c0.3 -0.5 -0.2 -1 -1.1 -1 -1 0 -1.5 -0.2 -1.2 -0.5 0.3 -0.4 1.8 -0.3 3.3 0.1 2 0.5 2.3 0.9 1.3 1.5 -1.8 1.2 -3.1 1.1 -2.3 -0.1z"/>
  <path d="M187.6 19.7 c-1.8 -1.3 -1.7 -1.5 0.9 -3.5 3 -2.4 4.5 -2.8 4.5 -1.1 0 0.5 -0.4 0.8 -0.8 0.5 -0.5 -0.3 -1.9 0.2 -3.1 1 -2.1 1.5 -2.1 1.7 -0.4 3 1 0.7 1.5 1.4 1.2 1.4 -0.3 0 -1.3 -0.6 -2.3 -1.3z"/>
  <path d="M195.1 13 c0.6 -0.5 1.9 -0.6 2.7 -0.2 1 0.3 1.3 0.1 0.8 -0.6 -0.7 -1.1 4.3 -0.7 5.4 0.5 0.3 0.3 -0.5 0.3 -1.7 0 -1.3 -0.3 -2.5 -0.2 -2.8 0.3 -0.2 0.4 -1.6 0.8 -3.1 0.8 -1.7 0 -2.2 -0.3 -1.3 -0.8z"/>
  <path d="M295.5 13 c-1.1 -0.5 -1.7 -0.9 -1.3 -0.9 0.3 -0.1 1.3 -0.3 2.1 -0.6 0.8 -0.4 1.4 0 1.4 1 0 0.8 -0.1 1.5 -0.1 1.4 -0.1 0 -1 -0.4 -2.1 -0.9z"/>
  <path d="M205 12.1 c0 -0.5 -0.8 -1.1 -1.7 -1.3 -1.5 -0.3 -1.5 -0.5 -0.3 -1 1.8 -0.7 4.5 1.8 3 2.7 -0.6 0.3 -1 0.2 -1 -0.4z"/>
  <path d="M214.8 6.9 c-0.5 -0.4 -0.2 -0.9 0.7 -1.3 0.9 -0.3 2.6 0 3.7 0.8 1.9 1.3 1.9 1.4 -0.7 1.2 -1.5 0 -3.1 -0.4 -3.7 -0.7z"/>
  <path d="M227.5 4 c0.3 -0.5 1.3 -1 2.1 -1 0.8 0 1.2 0.5 0.9 1 -0.3 0.6 -1.3 1 -2.1 1 -0.8 0 -1.2 -0.4 -0.9 -1z"/>
  <path d="M265.5 4 c-0.3 -0.5 0.1 -1 0.9 -1 0.8 0 1.8 0.5 2.1 1 0.3 0.6 -0.1 1 -0.9 1 -0.8 0 -1.8 -0.4 -2.1 -1z"/>
  <path d="M252 3.2 c0 -0.4 1.6 -0.6 3.5 -0.4 1.9 0.2 3.5 0.6 3.5 0.8 0 0.2 -1.6 0.4 -3.5 0.4 -1.9 0 -3.5 -0.4 -3.5 -0.8z"/>
 </g>
 <g fill="#ffffff">
  <path d="M440.5 482 c1.1 -0.5 2.7 -0.9 3.5 -0.9 0.9 0 0.8 0.4 -0.5 0.9 -1.1 0.5 -2.7 0.9 -3.5 0.9 -0.9 0 -0.8 -0.4 0.5 -0.9z"/>
  <path d="M466.5 355.1 c-0.3 -1.2 -1 -1.9 -1.4 -1.7 -0.4 0.3 -0.8 -0.1 -0.8 -0.9 0 -0.8 0.3 -1.5 0.7 -1.5 0.9 0 3.2 5.1 2.6 5.7 -0.2 0.2 -0.7 -0.5 -1.1 -1.6z"/>
  <path d="M457.5 345.5 c1.1 -3.3 1.1 -4 -0.1 -3.8 -0.6 0.1 -1.1 -0.5 -1.1 -1.3 0 -1.9 1 -1.8 2.3 0.4 0.9 1.4 0.8 2.4 -0.3 4.3 -1 1.7 -1.3 1.8 -0.8 0.4z"/>
  <path d="M44 332.6 c0 -0.8 0.4 -1.8 1 -2.1 0.6 -0.4 0.7 0.1 0.3 1.1 -0.5 1.3 -0.3 1.5 0.7 0.9 0.9 -0.5 1.1 -0.4 0.6 0.3 -1 1.7 -2.6 1.5 -2.6 -0.2z"/>
  <path d="M441.5 327 c-0.3 -0.6 0.1 -1.7 0.9 -2.6 0.9 -0.8 1.6 -1.1 1.6 -0.5 0 0.5 -0.5 1.3 -1.1 1.7 -0.8 0.4 -0.7 0.9 0.2 1.5 1 0.6 1 0.9 0.2 0.9 -0.6 0 -1.5 -0.5 -1.8 -1z"/>
  <path d="M51.5 324.8 c0.3 -0.7 1.4 -1.9 2.4 -2.5 1.6 -1 1.9 -0.9 1.7 0.5 -0.2 0.9 -0.7 1.7 -1.2 1.7 -0.5 0 -1.5 0.4 -2.1 0.8 -0.8 0.5 -1.1 0.3 -0.8 -0.5z"/>
  <path d="M440.5 322.3 c0.1 -1 -0.5 -2.7 -1.4 -3.8 -1.1 -1.4 -0.7 -1.2 1.1 0.4 2.1 1.9 2.5 2.7 1.7 3.8 -1.5 1.7 -1.8 1.7 -1.4 -0.4z"/>
  <path d="M58.9 318.8 c1 -1.3 1 -1.8 0.2 -1.8 -0.9 0 -0.9 -0.4 0.1 -1.3 2.2 -2.3 4.3 -1.6 4.3 1.3 0.1 1.5 -0.5 2.7 -1.2 2.7 -0.7 0 -1 -0.4 -0.7 -0.9 0.8 -1.2 -1 -1 -2.6 0.5 -1.2 1 -1.2 0.9 -0.1 -0.5z"/>
  <path d="M68.7 308.5 c-1.5 -1 -1.5 -1.4 -0.3 -1.8 0.8 -0.3 2 0 2.6 0.8 1.5 1.8 -0.1 2.6 -2.3 1z"/>
  <path d="M424.9 309.9 c-0.7 -3.6 -0.8 -5.2 -0.2 -4.3 0.5 0.6 1.4 1.3 2.2 1.5 1 0.4 1 0.7 -0.3 1.8 -0.9 0.7 -1.6 1.2 -1.7 1z"/>
  <path d="M88.5 294 c-1.6 -0.7 -1.4 -0.8 1.2 -0.7 1.7 0.1 2.9 0.5 2.6 1 -0.5 0.9 -1.2 0.8 -3.8 -0.3z"/>
  <path d="M94.4 294.2 c0.3 -0.6 -0.2 -1.5 -1.1 -2.1 -1 -0.6 -1.2 -1.1 -0.5 -1.1 0.6 0 1.2 -0.5 1.2 -1.1 0 -0.5 -0.5 -0.7 -1.2 -0.3 -0.7 0.4 -0.8 0.3 -0.4 -0.5 0.9 -1.5 2.9 -0.3 2.2 1.4 -0.2 0.7 0 1.7 0.6 2.3 0.6 0.6 0.6 1.2 -0.3 1.7 -0.7 0.5 -1 0.4 -0.5 -0.3z"/>
  <path d="M290.7 287.3 c-0.3 -0.5 0.2 -0.9 1.1 -0.9 0.9 -0.1 2.5 -0.4 3.5 -0.9 0.9 -0.4 1.7 -0.3 1.7 0.2 0 0.5 -0.6 1 -1.2 1 -0.7 0 -2 0.4 -2.9 0.7 -1 0.4 -1.9 0.4 -2.2 -0.1z"/>
  <path d="M387.8 284.2 c-1.6 -1 -2.8 -2.1 -2.8 -2.5 0 -0.7 3.7 1.5 6.9 4 1.4 1 -1.8 -0.1 -4.1 -1.5z"/>
  <path d="M184.7 278.5 c0.2 -0.7 1.3 -1.1 2.4 -0.8 2.5 0.7 2.4 1 -0.5 1.5 -1.6 0.3 -2.3 0.1 -1.9 -0.7z"/>
  <path d="M316.5 278 c-1.6 -1.1 -2.5 -2 -1.8 -2 0.6 0 1.5 0.5 1.8 1 0.9 1.5 2.7 1.2 1.9 -0.2 -0.4 -0.7 -0.3 -0.9 0.1 -0.5 0.7 0.6 1.7 3.7 1.2 3.7 -0.1 0 -1.5 -0.9 -3.2 -2z"/>
  <path d="M115.2 277.7 c1.8 -1.8 4.6 -2.8 5.3 -1.8 0.2 0.5 -0.3 1.5 -1.2 2.2 -1.2 1 -1.4 1 -0.9 0.2 0.4 -0.7 0.3 -1.3 -0.3 -1.3 -0.5 0 -1.3 0.5 -1.6 1 -0.3 0.6 -1.1 1 -1.6 1 -0.6 0 -0.4 -0.6 0.3 -1.3z"/>
  <path d="M173 270 c-0.7 -1 -1.8 -1.6 -2.3 -1.3 -0.6 0.3 -0.7 0.1 -0.3 -0.5 0.3 -0.6 -0.2 -1.3 -1.1 -1.5 -1.4 -0.4 -1.5 -0.5 -0.2 -0.6 1.6 -0.1 6.6 4.5 5.8 5.4 -0.3 0.2 -1.1 -0.4 -1.9 -1.5z"/>
  <path d="M321.6 271.1 c-0.3 -0.4 0.6 -1.9 2.1 -3.2 1.4 -1.3 2.3 -1.9 2 -1.2 -0.4 0.6 -0.4 1.3 0 1.6 0.5 0.2 0.2 0.2 -0.4 0.1 -1.6 -0.4 -1.7 0.8 -0.3 2.4 0.7 0.9 0.7 0.9 -0.2 0.2 -0.7 -0.5 -1.6 -1 -2.1 -1 -0.4 0 -0.5 0.5 -0.2 1 0.3 0.6 0.4 1 0.1 1 -0.3 0 -0.7 -0.4 -1 -0.9z"/>
  <path d="M187.4 242.2 c0 -1 0.8 -1.8 1.8 -1.8 1.6 0 1.6 0.2 0.1 1.8 -0.9 1 -1.7 1.8 -1.7 1.8 -0.1 0 -0.2 -0.8 -0.2 -1.8z"/>
  <path d="M172.2 234 c-2.1 -1.7 -2.1 -1.9 -0.3 -1.7 1.1 0 1.9 0.6 1.8 1.2 -0.1 0.5 0.6 0.9 1.5 0.9 1 -0.1 1.5 0.2 1.2 0.7 -0.8 1.3 -1.6 1.1 -4.2 -1.1z"/>
  <path d="M320 234.9 c-1.2 -0.8 -1.1 -0.9 0.5 -0.7 1.1 0.2 1.9 -0.2 1.8 -0.8 -0.1 -0.6 0.5 -1.1 1.3 -1.1 1.1 0 1.1 0.4 -0.3 1.9 -0.9 1 -1.7 1.8 -1.7 1.8 -0.1 0 -0.8 -0.5 -1.6 -1.1z"/>
  <path d="M155.2 219 c-1.2 -1.2 -2.2 -2.4 -2.2 -2.7 0 -0.4 1.1 0.4 2.5 1.7 2.3 2.2 2.9 3 2.2 3 -0.2 0 -1.3 -0.9 -2.5 -2z"/>
  <path d="M339.3 217.6 c-0.9 -1.1 -0.7 -1.4 1.2 -1.2 1.7 0.1 2.1 0.4 1.3 1.4 -1.2 1.4 -1 1.4 -2.5 -0.2z"/>
  <path d="M346 211.7 c0 -1.1 -0.4 -1.5 -1.2 -1.1 -0.7 0.4 -0.8 0.3 -0.4 -0.5 0.4 -0.6 1.1 -0.9 1.6 -0.6 0.5 0.3 1.1 0.1 1.5 -0.5 0.3 -0.5 1.2 -1 1.8 -1 0.8 0 0.9 0.3 0.1 0.8 -0.6 0.4 -1.6 1.6 -2.2 2.7 -1 1.8 -1.1 1.8 -1.2 0.2z"/>
  <path d="M130 180.6 c-0.6 -0.9 -1 -2.1 -0.7 -2.8 0.4 -0.9 0.6 -0.7 0.6 0.4 0.1 0.9 0.7 1.8 1.4 2.1 0.6 0.2 0.9 0.7 0.6 1.1 -0.3 0.4 -1.2 0 -1.9 -0.8z"/>
  <path d="M130 79.6 c0 -0.4 0.6 -1.4 1.4 -2.1 1.2 -1.2 1.5 -1.2 2 0.1 0.3 0.8 1.1 1.2 1.7 0.8 0.8 -0.4 0.9 -0.3 0.5 0.5 -0.6 0.8 -1.2 0.9 -2 0.2 -0.9 -0.7 -1.6 -0.7 -2.4 0.1 -0.7 0.7 -1.2 0.9 -1.2 0.4z"/>
  <path d="M348.4 53.5 c-0.1 -1.4 0.2 -2.5 0.6 -2.5 1.6 0 1.9 1.7 0.7 3.4 -1.1 1.4 -1.2 1.3 -1.3 -0.9z"/>
  <path d="M145.4 52.9 c-0.8 -1.4 1.4 -1.9 2.5 -0.6 0.8 1 0.7 1.4 -0.5 1.4 -0.8 0 -1.7 -0.4 -2 -0.8z"/>
  <path d="M149.7 49.3 c-1.1 -1 -0.8 -2 0.7 -2.6 0.8 -0.3 1.3 0 1.2 0.8 -0.3 1.9 -1.1 2.7 -1.9 1.8z"/>
  <path d="M153 46.1 c0 -0.6 0 -1.4 0 -1.8 0 -0.5 0.6 -0.8 1.3 -0.8 0.6 -0.1 1.1 -0.6 1 -1.2 -0.1 -0.6 0.5 -1.7 1.4 -2.5 1.4 -1.1 1.6 -1.1 0.8 0.1 -0.6 1 -0.4 1.3 0.6 0.9 1 -0.4 1.5 0.1 1.7 1.5 0.1 1.8 -0.1 1.9 -0.9 0.7 -0.8 -1.3 -1.3 -1 -3.4 1.3 -1.4 1.5 -2.5 2.3 -2.5 1.8z"/>
  <path d="M336.4 43.9 c0 -1 0.3 -1.6 0.7 -1.3 0.4 0.2 1 -0.3 1.3 -1.2 0.7 -1.8 2.1 -1.1 2.1 0.9 0 0.7 0.5 1.2 1.2 1.2 2 0 2.3 1.1 0.3 1.2 -1.1 0.1 -2 -0.2 -2 -0.8 0 -0.5 -0.4 -0.9 -1 -0.9 -0.5 0 -0.7 0.6 -0.4 1.3 0.3 0.8 -0.1 1.4 -0.8 1.4 -0.8 0 -1.4 -0.8 -1.4 -1.8z"/>
  <path d="M160 38.5 c-0.7 -0.8 -0.2 -1.9 1.5 -3.5 2.2 -2 2.5 -2.1 3.1 -0.6 0.5 1.3 0.9 1.4 2 0.5 1.2 -1 1.3 -0.9 0.8 0.5 -0.4 1 -1.3 1.5 -2 1.2 -0.7 -0.3 -1.6 -0.1 -1.9 0.4 -0.4 0.6 -0.1 1.1 0.4 1.1 2.6 0.3 3 0.4 3.4 0.9 0.3 0.3 -1 0.5 -2.9 0.6 -1.9 0 -3.9 -0.5 -4.4 -1.1z"/>
  <path d="M334.4 37.4 c0 -2.5 1.1 -2.3 2.5 0.4 0.7 1.4 0.5 1.8 -0.8 1.8 -1.1 0 -1.7 -0.8 -1.7 -2.2z"/>
  <path d="M320.4 30.8 c-0.4 -0.7 -0.3 -0.8 0.4 -0.4 1.5 0.9 1.6 -0.6 0.2 -2 -0.7 -0.7 -0.6 -1.1 0.4 -1.1 0.8 0 1.3 0.4 1 0.9 -0.8 1.2 1 1 2.6 -0.4 0.8 -0.7 0.4 -0.1 -0.9 1.5 -2.8 3.1 -2.7 3.1 -3.7 1.5z"/>
  <path d="M171.2 28.1 c0.8 -1.3 2.2 -2.5 3.1 -2.7 0.9 -0.1 1.5 0.2 1.1 0.7 -0.3 0.5 -1 0.9 -1.6 0.9 -0.6 0 -1.7 0.8 -2.5 1.8 -1.4 1.5 -1.4 1.4 -0.1 -0.7z"/>
  <path d="M180.2 21.5 c1.5 -1.4 3.3 -2.5 4 -2.5 0.8 0 0.6 0.5 -0.5 1.1 -0.9 0.6 -1.5 1.4 -1.2 1.9 0.3 0.5 0 1.2 -0.6 1.6 -0.8 0.4 -0.9 0.3 -0.5 -0.4 0.4 -0.7 0.2 -1.2 -0.3 -1.2 -0.6 0 -1.1 0.5 -1.1 1 0 0.6 -0.6 1 -1.2 1 -0.7 0 -0.1 -1.1 1.4 -2.5z"/>
  <path d="M310.6 21.7 c-1.6 -1.2 -1.5 -1.3 1.1 -1.1 1.5 0.1 3 0.3 3.3 0.4 0.3 0.1 0.9 0.2 1.3 0.1 0.5 -0.1 0.5 0.4 0.2 1 -0.5 0.8 -1 0.8 -1.8 0 -1.4 -1.4 -3 -1.4 -2.2 -0.1 0.8 1.4 0.2 1.3 -1.9 -0.3z"/>
 </g>
 <g fill="#ffffff">
  <path d="M174.6 235.7 c-1.6 -1.2 -1.6 -1.3 0.3 -1.3 1.1 0 1.8 0.3 1.5 0.7 -0.2 0.4 0.2 1 0.8 1.2 0.7 0.3 0.8 0.6 0.2 0.6 -0.5 0.1 -1.8 -0.5 -2.8 -1.2z"/>
  <path d="M334.4 37.5 c0 -1.9 0.3 -2.2 1.3 -1.3 1 0.8 1 1.4 0.2 2.4 -1.5 1.8 -1.5 1.8 -1.5 -1.1z"/>
  <path d="M159.6 38.1 c-0.3 -0.4 0.7 -1.9 2.2 -3.2 l2.7 -2.4 -2.3 2.6 c-1.2 1.4 -1.9 2.9 -1.5 3.2 0.3 0.4 0.4 0.7 0 0.7 -0.3 0 -0.8 -0.4 -1.1 -0.9z"/>
  <path d="M321.5 29.1 c-0.3 -0.5 0 -1.3 0.6 -1.7 0.8 -0.4 0.9 -0.3 0.5 0.4 -1 1.6 0.6 1.5 2.4 0 1.2 -1.1 1.2 -1 0.1 0.5 -1.5 1.9 -2.7 2.2 -3.6 0.8z"/>
 </g>
 <g fill="#3a3a3a">
 </g>
 <g fill="#424242">
 </g>
 <g fill="#4a4a4a">
 </g>
 <g fill="#525252">
 </g>
 <g fill="#5a5a5a">
 </g>
 <g fill="#636363">
 </g>
 <g fill="#6b6b6b">
 </g>
 <g fill="#737373">
 </g>
 <g fill="#7b7b7b">
 </g>
 <g fill="#848484">
 </g>
 <g fill="#8c8c8c">
 </g>
 <g fill="#949494">
 </g>
 <g fill="#9c9c9c">
 </g>
 <g fill="#a5a5a5">
 </g>
 <g fill="#adadad">
 </g>
 <g fill="#b5b5b5">
 </g>
 <g fill="#bdbdbd">
 </g>
 <g fill="#ffffff">
 </g>
 <g fill="#ffffff">
 </g>
 <g fill="#ffffff">
 </g>
 <g fill="#ffffff">
 </g>
 <g fill="#ffffff">
 </g>
 <g fill="#ffffff">
 </g>
 <g fill="#ffffff">
 </g>
 <g fill="#ffffff">
 </g>
<g opacity="0.5" transform="rotate(-45, 248.0, 251.5)">
  <text x="50%" y="50%" font-size="20" text-anchor="middle" fill="white" dominant-baseline="middle">
    generated by vectorizer.io
  </text>
</g>
</svg>